<?xml version="1.0" encoding="utf-8"?>
<!-- Generator: Adobe Illustrator 23.0.0, SVG Export Plug-In . SVG Version: 6.00 Build 0)  -->
<svg version="1.1" id="Capa_1" xmlns="http://www.w3.org/2000/svg" xmlns:xlink="http://www.w3.org/1999/xlink" x="0px" y="0px"
	 viewBox="0 0 512 512" style="enable-background:new 0 0 512 512;" xml:space="preserve">
<style type="text/css">
	.st0{fill:#D80027;}
</style>
<g>
	<path class="st0" d="M0.4,462.3c9.8-30.2,24.9-58.9,37.7-87.5c1.5-3.8,7.5-3.8,9.8-1.5c12.8,13.6,27.2,27.2,35.5,43.8h0.8
		c92.1,6.8,181.1-71.7,244.5-129c73.2-65.6,139.6-145.6,166-241.5c1.5-12.1,3-24.9,3-37.7c0-6,8.3-6,9.1,0c0,2.3,0,4.5,0,6.8
		c3,0,5.3,2.3,5.3,6c-0.8,8.3-3,16.6-4.5,24.9c-6,204.5-209.8,401.4-409,414.3c6.8,12.1,12.8,24.9,20.4,37c3.8,5.3-2.3,10.6-7.5,9.8
		c-37.7-5.3-71.7-23.4-106.4-37C1.9,469.9-1.1,466.9,0.4,462.3z M101.5,492.5c-4.5-9.8-7.5-19.6-12.8-29.4c-1.5-3.8,0.8-6.8,3-7.5
		c0-2.3,1.5-3.8,3.8-4.5c180.3-30.2,326.7-153.2,381.1-319.9c-35.5,65.6-89.8,123-143.4,171.3c-39.2,35.5-80.7,67.2-126,93.6
		c-35.5,20.4-80,39.2-120.7,26.4l0,0c2.3,6-6.8,9.1-9.8,4.5C66.8,414,57,402,46.4,390.7c-10.6,23.4-21.9,46.8-30.2,70.9
		C44.2,472.1,72.1,485.7,101.5,492.5z"/>
</g>
</svg>
