<svg xmlns="http://www.w3.org/2000/svg" x="0px" y="0px"
     width="50" height="50"
     viewBox="0 0 50 50"
     style="fill:#000000;"><g id="surface1"><path style=" " d="M 2.046875 5 C 1.773438 4.988281 1.507813 5.085938 1.308594 5.277344 C 1.109375 5.464844 1 5.726563 1 6 L 1 41.691406 C 1 42.140625 1.300781 42.535156 1.734375 42.65625 L 13.734375 45.964844 C 13.90625 46.011719 14.089844 46.011719 14.265625 45.964844 L 25.011719 43.03125 L 36.757813 45.96875 C 36.933594 46.015625 37.113281 46.007813 37.285156 45.957031 L 48.285156 42.652344 C 48.710938 42.523438 49 42.132813 49 41.691406 L 49 6.003906 C 49 6.003906 49 6 49 6 C 49 5.449219 48.550781 5 48 5 C 47.910156 5 47.820313 5.011719 47.734375 5.039063 L 47.734375 5.035156 L 47.703125 5.046875 L 36.988281 7.96875 L 25.242188 5.03125 C 25.074219 4.988281 24.902344 4.988281 24.734375 5.035156 L 13.988281 7.96875 L 2.242188 5.03125 C 2.175781 5.011719 2.113281 5.003906 2.046875 5 Z M 25.011719 7.03125 L 36.757813 9.96875 C 36.925781 10.011719 37.097656 10.011719 37.265625 9.964844 L 47 7.308594 L 47 40.949219 L 36.972656 43.964844 L 25.242188 41.03125 C 25.074219 40.988281 24.902344 40.988281 24.734375 41.035156 L 14 43.964844 L 3 40.929688 L 3 7.28125 L 13.757813 9.96875 C 13.925781 10.011719 14.097656 10.011719 14.265625 9.964844 Z M 15.972656 16.558594 L 15.625 16.605469 L 15.027344 16.796875 L 14.96875 16.816406 L 14.910156 16.84375 L 14.574219 17 L 14.015625 17.699219 L 14.246094 18.566406 L 15.078125 18.902344 L 15.417969 18.8125 L 15.699219 18.683594 L 16.238281 18.507813 L 16.875 17.878906 L 16.757813 16.992188 Z M 20.1875 16.679688 L 19.296875 16.789063 L 18.851563 17.5625 L 19.203125 18.390625 L 19.476563 18.542969 L 19.484375 18.546875 L 19.511719 18.5625 L 19.527344 18.566406 L 20.027344 18.820313 L 20.183594 18.921875 L 21.074219 19.027344 L 21.6875 18.375 L 21.535156 17.492188 L 21.28125 17.25 L 21.074219 17.113281 L 21.027344 17.082031 L 20.976563 17.058594 L 20.375 16.757813 L 20.324219 16.730469 L 20.265625 16.707031 Z M 12.347656 19.519531 L 11.453125 19.578125 L 11.1875 19.808594 L 11.011719 20.019531 L 10.992188 20.046875 L 10.550781 20.660156 L 10.410156 21.546875 L 11.035156 22.1875 L 11.921875 22.074219 L 12.175781 21.828125 L 12.597656 21.238281 L 12.734375 21.078125 L 12.929688 20.203125 Z M 23.578125 19.890625 L 22.765625 20.273438 L 22.585938 21.152344 L 22.734375 21.46875 L 23.277344 22.234375 L 23.304688 22.277344 L 23.324219 22.261719 L 24.042969 22.703125 L 24.875 22.375 L 25.109375 21.511719 L 24.980469 21.183594 L 24.96875 21.171875 L 24.953125 21.144531 L 24.9375 21.121094 L 24.367188 20.3125 Z M 9.539063 23.742188 L 8.695313 24.042969 L 8.5 24.339844 L 8.101563 25.253906 L 8.152344 26.152344 L 8.898438 26.644531 L 9.742188 26.34375 L 9.9375 26.046875 L 10.335938 25.128906 L 10.285156 24.234375 Z M 26.230469 24.078125 L 25.453125 24.523438 L 25.34375 25.414063 L 25.519531 25.71875 L 26.160156 26.484375 L 26.984375 26.839844 L 27.761719 26.390625 L 27.871094 25.503906 L 27.691406 25.199219 L 27.050781 24.433594 Z M 43 25.988281 C 42.707031 25.992188 42.429688 26.121094 42.238281 26.347656 L 40 28.964844 L 37.761719 26.347656 C 37.5625 26.113281 37.273438 25.984375 36.96875 25.988281 C 36.578125 26 36.230469 26.234375 36.074219 26.589844 C 35.917969 26.945313 35.984375 27.359375 36.238281 27.652344 L 38.683594 30.5 L 36.238281 33.347656 C 35.882813 33.769531 35.929688 34.402344 36.347656 34.761719 C 36.769531 35.117188 37.402344 35.070313 37.761719 34.652344 L 40 32.035156 L 42.238281 34.652344 C 42.597656 35.070313 43.230469 35.117188 43.652344 34.761719 C 44.070313 34.402344 44.117188 33.769531 43.761719 33.347656 L 41.316406 30.5 L 43.761719 27.652344 C 44.019531 27.355469 44.082031 26.933594 43.921875 26.574219 C 43.757813 26.214844 43.398438 25.984375 43 25.988281 Z M 29.519531 27.601563 L 28.910156 28.253906 L 29.066406 29.136719 L 29.328125 29.378906 L 30.167969 29.921875 L 31.058594 30.019531 L 31.667969 29.363281 L 31.511719 28.484375 L 31.25 28.242188 L 30.410156 27.699219 Z M 34.546875 29.621094 L 33.6875 29.878906 L 33.382813 30.722656 L 33.875 31.46875 L 34.203125 31.59375 L 34.53125 31.648438 L 34.589844 31.65625 L 34.644531 31.660156 L 35.308594 31.703125 L 36.128906 31.351563 L 36.34375 30.480469 L 35.773438 29.792969 L 35.429688 29.707031 L 34.816406 29.671875 Z "></path></g></svg>