<?xml version="1.0" encoding="utf-8"?>
<svg x="0px" y="0px" viewBox="0 0 100 100" xmlns="http://www.w3.org/2000/svg">
  <g transform="matrix(1, 0, 0, 1, 0, -952.362183)">
    <path style="text-indent: 0px; text-transform: none; direction: ltr; baseline-shift: baseline; color: rgb(0, 0, 0); fill: rgb(252, 104, 1);" d="m 30.000002,959.36215 c -3.3067,0 -6,2.69329 -6,6 l 0,74.00005 c 0,3.3067 2.6933,6 6,6 l 39.999999,0 c 3.306697,0 5.999997,-2.6933 5.999997,-6 l 0,-74.00005 c 0,-3.30671 -2.6933,-6 -5.999997,-6 l -40,0 z m 0,2 39.999999,0 c 2.2333,0 3.999997,1.76669 3.999997,4 l 0,4 -47.999997,0 0,-4 c 0,-2.23331 1.7667,-4 4,-4 z m -4,10 47.999997,0 0,58.00005 -47.999997,0 0,-58.00005 z m 0,60.00005 47.999997,0 0,8 c 0,2.2333 -1.766697,4 -3.999997,4 l -40,0 c -2.2333,0 -4,-1.7667 -4,-4 l 0,-8 z m 23.999999,4 c -1.1046,0 -2,0.8954 -2,2 0,1.1045 0.8954,2 2,2 1.1046,0 2,-0.8955 2,-2 0,-1.1046 -0.8954,-2 -2,-2 z" fill-opacity="1" stroke="none" marker="none" visibility="visible" display="inline" overflow="visible"/>
  </g>
</svg>