<svg xmlns="http://www.w3.org/2000/svg" x="0px" y="0px"
     width="28" height="28"
     viewBox="0 0 24 24"
     style="fill:#666666;">
  <path style="line-height:normal;text-indent:0;text-align:start;text-decoration-line:none;text-decoration-style:solid;text-decoration-color:#000;text-transform:none;block-progression:tb;isolation:auto;mix-blend-mode:normal" d="M 6 2 L 6 5.75 C 6 6.2203057 6.2194397 6.6645054 6.5996094 6.9492188 L 9 8.75 L 9 15 L 9 22 L 11 22 L 11 15 L 13 15 L 13 22 L 15 22 L 15 13 L 15 9.828125 L 18.007812 13.962891 L 19.625 12.785156 L 16.017578 7.8242188 C 15.641483 7.3060871 15.037186 7 14.398438 7 L 14 7 L 10 7 L 8 5.5 L 8 2 L 6 2 z M 12 2 A 2 2 0 0 0 10 4 A 2 2 0 0 0 12 6 A 2 2 0 0 0 14 4 A 2 2 0 0 0 12 2 z" font-weight="400" font-family="sans-serif" white-space="normal" overflow="visible"></path>
</svg>
