<?xml version="1.0" encoding="utf-8"?>
<svg x="0px" y="0px" viewBox="0 0 100 100" xmlns="http://www.w3.org/2000/svg">
  <g transform="matrix(1, 0, 0, 1, 0, -954.362183)">
    <path style="text-indent: 0px; text-transform: none; direction: ltr; baseline-shift: baseline; color: rgb(0, 0, 0); fill: rgb(252, 104, 1);" d="m 35.004329,963.3466 c -7.86134,0 -14.97454,1.59664 -20.21875,4.21875 -5.2442199,2.62213 -8.7499999,6.38191 -8.7499999,10.8125 -0.0648,15.41432 -0.0312,32.26285 -0.0312,47.99995 0,4.407 3.49848,8.1569 8.7499999,10.7813 5.25147,2.6244 12.38511,4.2187 20.24995,4.2187 6.78288,0 12.98556,-1.2078 17.9375,-3.2187 3.90045,2.063 8.34708,3.2187 13.0625,3.2187 15.45212,0 28,-12.5479 28,-28 0,-15.45213 -12.54788,-27.99995 -28,-27.99995 -0.68264,0 -1.36077,0.0457 -2.03125,0.0937 0.0312,-5.0937 0.0312,-3.09375 0,-7.09375 0,-4.43059 -3.50579,-8.19037 -8.75,-10.8125 -5.24422,-2.62206 -12.35742,-4.2187 -20.21875,-4.2187 z m 0,2.03125 c 7.60264,0 14.45395,1.55511 19.34375,4 4.88979,2.44489 7.65625,5.69842 7.65625,9 0,3.30147 -2.76646,6.555 -7.65625,9 -4.8898,2.44489 -11.74111,3.96872 -19.34375,3.96872 -7.60264,0 -14.48521,-1.52383 -19.375,-3.96872 -4.88979,-2.445 -7.6249999,-5.69853 -7.6249999,-9 0,-3.30158 2.7352099,-6.55511 7.6249999,-9 4.88979,-2.44489 11.77236,-4 19.375,-4 z M 8.0043291,983.9091 c 1.54149,2.03666 3.9051999,3.81197 6.7812499,5.25 5.24421,2.62197 12.35741,4.21877 20.21875,4.21877 4.79925,0 9.30059,-0.62211 13.28125,-1.6875 -3.68225,3.0109 -6.57185,6.941 -8.34375,11.43753 -1.60352,0.1485 -3.2426,0.25 -4.9375,0.25 -7.59688,0 -14.45873,-1.5575 -19.34375,-4.00003 -4.88502,-2.4425 -7.6562499,-5.6745 -7.6562499,-9.00002 l 0,-6.46875 z m 53.9687499,0.0312 0,1.71875 c -0.67583,0.0978 -1.34063,0.2297 -2,0.375 0.7599,-0.66216 1.43977,-1.35902 2,-2.09375 z m 4.03125,3.43755 c 14.37124,0 26,11.62872 26,25.99995 0,14.3712 -11.62876,26 -26,26 -14.37125,0 -26,-11.6288 -26,-26 0,-14.37124 11.62875,-25.99996 26,-25.99996 z m -0.125,6.96872 a 1.0001,1.0001 0 0 0 -0.875,1.0313 l 0,4 a 1.0001,1.0001 0 0 0 0,0.031 c -2.04718,0.1589 -3.89323,0.81833 -5.3125,1.93753 -1.64694,1.2988 -2.6875,3.2667 -2.6875,5.5313 0,2.4772 1.34073,4.1535 3.03125,5.1562 1.69052,1.0027 3.72764,1.5193 5.625,2.25 2.02264,0.7789 3.98303,1.3365 5.3125,2.125 1.32947,0.7885 2.03125,1.6202 2.03125,3.4687 0,1.6734 -0.71148,2.9707 -1.9375,3.9375 -1.22602,0.9668 -2.99773,1.5625 -5.0625,1.5625 -3.49717,0 -6.28732,-1.4789 -7.03125,-3.9375 a 1.0087508,1.0087508 0 1 0 -1.9375,0.5625 c 0.98511,3.2557 4.28888,5.0346 7.96875,5.3125 a 1.0001,1.0001 0 0 0 0,0.062 l 0,4 a 1.0001,1.0001 0 1 0 2,0 l 0,-4 a 1.0001,1.0001 0 0 0 0,-0.031 c 2.04718,-0.1653 3.89324,-0.8495 5.3125,-1.9687 1.64693,-1.2987 2.6875,-3.2355 2.6875,-5.5 0,-2.4773 -1.34072,-4.1849 -3.03125,-5.1875 -1.69053,-1.0027 -3.72764,-1.5194 -5.625,-2.25 -2.02264,-0.7789 -3.98302,-1.3365 -5.3125,-2.125 -1.32948,-0.7886 -2.03125,-1.5891 -2.03125,-3.4375 0,-1.6735 0.71149,-3.002 1.9375,-3.9688 1.22601,-0.9668 2.99772,-1.5312 5.0625,-1.5312 3.49717,0 6.28732,1.4477 7.03125,3.9062 a 1.0087508,1.0087508 0 1 0 1.9375,-0.5625 c -0.98511,-3.2555 -4.28888,-5.00762 -7.96875,-5.28122 a 1.0001,1.0001 0 0 0 0,-0.062 l 0,-4 a 1.0001,1.0001 0 0 0 -1.125,-1.0313 z m -57.8749999,1.5625 c 1.53809,2.0376 3.8729899,3.8115 6.7499999,5.25003 5.24898,2.6245 12.3829,4.2188 20.25,4.2188 1.4355,0 2.83997,-0.084 4.21875,-0.1875 -0.79413,2.5932 -1.21875,5.3358 -1.21875,8.1874 0,0.6401 0.0201,1.2769 0.0625,1.9063 -1.0047,0.058 -2.02299,0.094 -3.0625,0.094 -7.59688,0 -14.45873,-1.5575 -19.34375,-4 -4.88502,-2.4424 -7.6562499,-5.6744 -7.6562499,-8.9999 l 0,-6.46883 z m 0,12.00003 c 1.53809,2.0376 3.8729899,3.8115 6.7499999,5.25 5.24898,2.6244 12.3829,4.2187 20.25,4.2187 1.11529,0 2.20186,-0.033 3.28125,-0.094 0.48683,3.4732 1.60909,6.7436 3.25,9.6875 -2.0956,0.2639 -4.26716,0.4062 -6.53125,0.4062 -7.59688,0 -14.45873,-1.5575 -19.34375,-4 -4.88502,-2.4425 -7.6562499,-5.6744 -7.6562499,-9 l 0,-6.4687 z m 0,12 c 1.53809,2.0376 3.8729899,3.8115 6.7499999,5.25 5.24898,2.6245 12.3829,4.2187 20.25,4.2187 2.65754,0 5.21427,-0.2144 7.65625,-0.5625 2.12866,3.2107 4.8931,5.9636 8.125,8.0625 -4.43102,1.5636 -9.88534,2.5 -15.78125,2.5 -7.59454,0 -14.45597,-1.5574 -19.34375,-4 -4.88778,-2.4426 -7.6562499,-5.675 -7.6562499,-9 l 0,-6.4687 z" fill-opacity="1" stroke="none" marker="none" visibility="visible" display="inline" overflow="visible"/>
  </g>
</svg>