<?xml version="1.0" encoding="utf-8"?>
<svg x="0px" y="0px" viewBox="0 0 100 100" xmlns="http://www.w3.org/2000/svg">
  <g transform="matrix(1, 0, 0, 1, 0, -952.362183)">
    <path style="font-size: medium; font-style: normal; font-variant-ligatures: normal; font-variant-caps: normal; font-weight: normal; font-stretch: normal; text-indent: 0px; text-align: start; text-decoration: none; line-height: normal; letter-spacing: normal; word-spacing: normal; text-transform: none; direction: ltr; writing-mode: lr-tb; text-anchor: start; baseline-shift: baseline; opacity: 1; color: rgb(0, 0, 0); fill-opacity: 1; stroke: none; stroke-width: 2; marker: none; visibility: visible; display: inline; overflow: visible; font-family: Sans; fill: rgb(252, 104, 1);" d="M 17 12 C 14.247299 12 12 14.2473 12 17 L 12 83 C 12 85.7527 14.247299 88 17 88 L 83 88 C 85.752701 88 88 85.7527 88 83 L 88 17 C 88 14.2473 85.752701 12 83 12 L 17 12 z M 17 14 L 83 14 C 84.679296 14 86 15.3207 86 17 L 86 83 C 86 84.6793 84.679296 86 83 86 L 17 86 C 15.320704 86 14 84.6793 14 83 L 14 17 C 14 15.3207 15.320704 14 17 14 z M 33.875 20.96875 A 1.0001 1.0001 0 0 0 33 22 L 33 32 L 23 32 A 1.0001 1.0001 0 0 0 22.8125 32 A 1.0043849 1.0043849 0 0 0 23 34 L 33 34 L 33 44 A 1.0001 1.0001 0 1 0 35 44 L 35 34 L 45 34 A 1.0001 1.0001 0 1 0 45 32 L 35 32 L 35 22 A 1.0001 1.0001 0 0 0 33.875 20.96875 z M 56.8125 27 A 1.0043849 1.0043849 0 0 0 57 29 L 75 29 A 1.0001 1.0001 0 1 0 75 27 L 57 27 A 1.0001 1.0001 0 0 0 56.8125 27 z M 56.8125 37 A 1.0043849 1.0043849 0 0 0 57 39 L 75 39 A 1.0001 1.0001 0 1 0 75 37 L 57 37 A 1.0001 1.0001 0 0 0 56.8125 37 z M 57.875 57.96875 A 1.0001 1.0001 0 0 0 57.28125 59.6875 L 64.5625 67 L 57.28125 74.28125 A 1.0054956 1.0054956 0 1 0 58.71875 75.6875 L 66 68.40625 L 73.28125 75.6875 A 1.0054956 1.0054956 0 0 0 74.71875 74.28125 L 67.4375 67 L 74.71875 59.6875 A 1.0001 1.0001 0 0 0 73.96875 57.96875 A 1.0001 1.0001 0 0 0 73.28125 58.28125 L 66 65.5625 L 58.71875 58.28125 A 1.0001 1.0001 0 0 0 57.875 57.96875 z M 24.8125 66 A 1.0043849 1.0043849 0 0 0 25 68 L 43 68 A 1.0001 1.0001 0 1 0 43 66 L 25 66 A 1.0001 1.0001 0 0 0 24.8125 66 z " transform="translate(0,952.36218)"/>
  </g>
</svg>