<svg xmlns="http://www.w3.org/2000/svg" x="0px" y="0px"
     width="28" height="28"
     viewBox="0 0 24 24"
     style="fill:#666666;">
  <g id="surface1">
    <path style=" " d="M 18 2 L 6 2 C 4.894531 2 4 2.894531 4 4 L 4 20 C 4 21.105469 4.894531 22 6 22 L 18 22 C 19.105469 22 20 21.105469 20 20 L 20 4 C 20 2.894531 19.105469 2 18 2 Z M 11 18 L 6 18 L 6 16 L 11 16 Z M 14 14 L 6 14 L 6 12 L 14 12 Z M 18 18 L 16 18 L 16 16 L 18 16 Z M 18 14 L 16 14 L 16 12 L 18 12 Z M 18 8 L 6 8 L 6 6 L 18 6 Z "></path>
  </g>
</svg>
