<?xml version="1.0" encoding="utf-8"?>
<svg style="enable-background:new 0 0 100 100;" x="0px" y="0px" viewBox="0 0 100 100" xmlns="http://www.w3.org/2000/svg">
  <path d="M 62.3 54.3 L 37.9 54.3 C 37.3 54.3 36.9 54.7 36.9 55.3 C 36.9 55.9 37.3 56.3 37.9 56.3 L 62.3 56.3 C 62.9 56.3 63.3 55.9 63.3 55.3 C 63.3 54.7 62.8 54.3 62.3 54.3 Z" style="fill: rgb(252, 104, 1);"/>
  <path d="M 62.3 59.8 L 37.9 59.8 C 37.3 59.8 36.9 60.2 36.9 60.8 C 36.9 61.4 37.3 61.8 37.9 61.8 L 62.3 61.8 C 62.9 61.8 63.3 61.4 63.3 60.8 C 63.3 60.2 62.8 59.8 62.3 59.8 Z" style="fill: rgb(252, 104, 1);"/>
  <path d="M 62.3 65.3 L 37.9 65.3 C 37.3 65.3 36.9 65.7 36.9 66.3 C 36.9 66.9 37.3 67.3 37.9 67.3 L 62.3 67.3 C 62.9 67.3 63.3 66.9 63.3 66.3 C 63.3 65.7 62.8 65.3 62.3 65.3 Z" style="fill: rgb(252, 104, 1);"/>
  <path d="M 23.9 88.4 L 76.2 88.4 C 76.8 88.4 77.2 88 77.2 87.4 L 77.2 19.5 C 77.2 18.9 76.8 18.5 76.2 18.5 L 62.3 18.5 L 62.3 17.6 C 62.3 17 61.9 16.6 61.3 16.6 L 55.7 16.6 L 55.7 16.2 C 55.7 13.1 53.2 10.5 50 10.5 C 46.8 10.5 44.3 13 44.3 16.2 L 44.3 16.6 L 38.7 16.6 C 38.1 16.6 37.7 17 37.7 17.6 L 37.7 18.5 L 23.9 18.5 C 23.3 18.5 22.9 18.9 22.9 19.5 L 22.9 87.4 C 22.9 87.9 23.4 88.4 23.9 88.4 Z M 39.9 18.6 L 45.5 18.6 C 46.1 18.6 46.5 18.2 46.5 17.6 L 46.5 16.2 C 46.5 14.2 48.1 12.5 50.2 12.5 C 52.2 12.5 53.9 14.1 53.9 16.2 L 53.9 17.6 C 53.9 18.2 54.3 18.6 54.9 18.6 L 60.5 18.6 L 60.5 23.3 L 39.9 23.3 L 39.9 18.6 Z M 31.5 20.5 L 37.9 20.5 L 37.9 24.3 C 37.9 24.9 38.3 25.3 38.9 25.3 L 61.3 25.3 C 61.9 25.3 62.3 24.9 62.3 24.3 L 62.3 20.5 L 68.7 20.5 L 68.7 79.9 L 31.5 79.9 L 31.5 20.5 Z M 24.9 20.5 L 29.4 20.5 L 29.4 80.9 C 29.4 81.5 29.8 81.9 30.4 81.9 L 69.6 81.9 C 70.2 81.9 70.6 81.5 70.6 80.9 L 70.6 20.5 L 75.1 20.5 L 75.1 86.4 L 24.9 86.4 L 24.9 20.5 Z" style="fill: rgb(252, 104, 1);"/>
  <circle cx="50.1" cy="13.9" r="1.2" transform="matrix(1, 0, 0, 0.999999, 0, 2.000011)" style="fill: rgb(252, 104, 1);"/>
  <path d="M 38.1 45.2 L 43.7 45.2 C 44.2 45.2 44.5 44.9 44.7 44.5 L 44.9 43.7 L 46.2 47.9 C 46.3 48.3 46.8 48.6 47.2 48.6 C 47.7 48.6 48 48.2 48.1 47.8 L 49.1 42.5 L 50.7 47.9 C 50.8 48.3 51.2 48.6 51.7 48.6 C 51.7 48.6 51.7 48.6 51.7 48.6 C 52.1 48.6 52.5 48.3 52.7 47.9 L 54.1 42.7 L 55.7 47.9 C 55.8 48.3 56.1 48.5 56.5 48.6 C 56.5 48.6 56.6 48.6 56.6 48.6 C 56.9 48.6 57.3 48.4 57.5 48.1 L 59.3 45.2 L 62 45.2 C 62.6 45.2 63 44.8 63 44.2 C 63 43.6 62.6 43.2 62 43.2 L 58.7 43.2 C 58.4 43.2 58 43.4 57.8 43.7 L 57 45.1 L 55 38.7 C 54.9 38.3 54.5 38 54 38 C 53.6 38 53.2 38.3 53.1 38.7 L 51.8 43.7 L 50 37.9 C 49.9 37.5 49.5 37.2 49 37.2 C 48.5 37.2 48.2 37.6 48.1 38 L 47 43.4 L 45.9 39.7 C 45.8 39.3 45.4 39 44.9 39 C 44.5 39 44.1 39.3 44 39.7 L 43 43.2 L 38.1 43.2 C 37.5 43.2 37.1 43.6 37.1 44.2 C 37.1 44.8 37.6 45.2 38.1 45.2 Z" style="fill: rgb(252, 104, 1);"/>
</svg>