<?xml version="1.0" encoding="utf-8"?>
<svg style="enable-background:new 0 0 100 100;" x="0px" y="0px" viewBox="0 0 100 100" xmlns="http://www.w3.org/2000/svg">
  <path d="M 89.5 18.5 L 83 18.5 L 83 14.8 C 83 14.2 82.6 13.8 82 13.8 L 72.5 13.8 C 71.9 13.8 71.5 14.2 71.5 14.8 L 71.5 24.5 L 29.3 24.5 L 29.3 14.8 C 29.3 14.2 28.9 13.8 28.3 13.8 L 18.8 13.8 C 18.2 13.8 17.8 14.2 17.8 14.8 L 17.8 18.5 L 11.3 18.5 C 10.7 18.5 10.3 18.9 10.3 19.5 L 10.3 40 C 10.3 40.6 10.7 41 11.3 41 L 17.8 41 L 17.8 44.7 C 17.8 45.3 18.2 45.7 18.8 45.7 L 28.3 45.7 C 28.9 45.7 29.3 45.3 29.3 44.7 L 29.3 35 L 71.4 35 L 71.4 44.7 C 71.4 45.3 71.8 45.7 72.4 45.7 L 82 45.7 C 82.6 45.7 83 45.3 83 44.7 L 83 41 L 89.5 41 C 90.1 41 90.5 40.6 90.5 40 L 90.5 19.5 C 90.5 18.9 90 18.5 89.5 18.5 Z M 17.8 39 L 12.3 39 L 12.3 20.5 L 17.8 20.5 L 17.8 39 Z M 27.3 43.7 L 19.8 43.7 L 19.8 15.7 L 27.3 15.7 L 27.3 43.7 Z M 71.5 33.1 L 29.3 33.1 L 29.3 26.4 L 71.4 26.4 L 71.4 33.1 Z M 81 43.7 L 73.5 43.7 L 73.5 15.7 L 81 15.7 L 81 43.7 Z M 88.5 39 L 83 39 L 83 20.5 L 88.5 20.5 L 88.5 39 Z" style="fill: rgb(252, 104, 1);"/>
  <path d="M 89.5 58.9 L 83 58.9 L 83 55.2 C 83 54.6 82.6 54.2 82 54.2 L 72.5 54.2 C 71.9 54.2 71.5 54.6 71.5 55.2 L 71.5 64.9 L 29.3 64.9 L 29.3 55.2 C 29.3 54.6 28.9 54.2 28.3 54.2 L 18.8 54.2 C 18.2 54.2 17.8 54.6 17.8 55.2 L 17.8 58.9 L 11.3 58.9 C 10.7 58.9 10.3 59.3 10.3 59.9 L 10.3 80.5 C 10.3 81.1 10.7 81.5 11.3 81.5 L 17.8 81.5 L 17.8 85.2 C 17.8 85.8 18.2 86.2 18.8 86.2 L 28.3 86.2 C 28.9 86.2 29.3 85.8 29.3 85.2 L 29.3 75.5 L 71.4 75.5 L 71.4 85.2 C 71.4 85.8 71.8 86.2 72.4 86.2 L 82 86.2 C 82.6 86.2 83 85.8 83 85.2 L 83 81.5 L 89.5 81.5 C 90.1 81.5 90.5 81.1 90.5 80.5 L 90.5 59.9 C 90.5 59.4 90 58.9 89.5 58.9 Z M 17.8 79.5 L 12.3 79.5 L 12.3 60.9 L 17.8 60.9 L 17.8 79.5 Z M 27.3 84.2 L 19.8 84.2 L 19.8 56.2 L 27.3 56.2 L 27.3 84.2 Z M 71.5 73.5 L 29.3 73.5 L 29.3 66.8 L 71.4 66.8 L 71.4 73.5 Z M 81 84.2 L 73.5 84.2 L 73.5 56.2 L 81 56.2 L 81 84.2 Z M 88.5 79.5 L 83 79.5 L 83 60.9 L 88.5 60.9 L 88.5 79.5 Z" style="fill: rgb(252, 104, 1);"/>
</svg>