<?xml version="1.0" encoding="utf-8"?>
<!-- Generator: Adobe Illustrator 19.2.0, SVG Export Plug-In . SVG Version: 6.00 Build 0)  -->
<svg version="1.1" id="Слой_1" xmlns="http://www.w3.org/2000/svg" xmlns:xlink="http://www.w3.org/1999/xlink" x="0px" y="0px"
	 viewBox="0 0 59.6 98" style="enable-background:new 0 0 59.6 98;" xml:space="preserve">
<style type="text/css">
	.st0{fill:#FFFFFF;stroke:#CCCCCC;stroke-miterlimit:10;}
</style>
<g>
	<path class="st0" d="M10,72.3c-0.7-3.5-1-7-1-10.6c0-2.5,0.2-5,0.5-7.4l4,0.5c-0.3,2.3-0.5,4.6-0.5,6.9c0,3.3,0.3,6.6,1,9.9
		L10,72.3z M14.4,49.6l-3.9-0.9c1.3-5.8,3.5-11.5,6.6-16.8l3.5,2C17.7,38.8,15.6,44.1,14.4,49.6z M23.3,29.4L20,27.1
		c3.4-4.9,7.5-9.4,12.1-13.3l2.6,3.1C30.4,20.5,26.5,24.7,23.3,29.4z M38.9,13.6l-2.3-3.3c4.8-3.4,10.1-6.3,15.8-8.5l1.5,3.7
		C48.5,7.7,43.5,10.4,38.9,13.6z"/>
</g>
<polygon class="st0" points="2.5,79.5 28,74 20.4,94.3 "/>
</svg>
