<svg xmlns="http://www.w3.org/2000/svg" x="0px" y="0px"

     viewBox="0 0 50 50"
     style="fill:#000000;"><defs>
      <lineargradient id="grad1" x1="0" y1="45%" x2="110%" y2="0">
        <stop offset="0%" style="stop-color:#4da0ff;stop-opacity:1"></stop>
        <stop offset="100%" style="stop-color:#39eeff;stop-opacity:1"></stop>
      </lineargradient>
    </defs><g id="surface1"><path style=" " d="M 22 2 C 20.355469 2 19 3.355469 19 5 L 19 18.546875 L 14.113281 38.210938 L 14.109375 38.234375 C 14.089844 38.304688 14.078125 38.378906 14.078125 38.453125 C 14.042969 38.625 14 38.789063 14 39 C 14 40.644531 15.355469 42 17 42 C 18.457031 42 19.683594 40.949219 19.945313 39.558594 L 19.933594 39.609375 L 22.78125 28 L 27.738281 28 L 24.148438 43.492188 C 24.128906 43.582031 24.121094 43.675781 24.125 43.765625 C 24.070313 44 24 44.226563 24 44.5 C 24 46.421875 25.578125 48 27.5 48 C 29.203125 48 30.636719 46.765625 30.9375 45.140625 L 33.859375 32.5625 L 37.097656 45.335938 C 37.152344 45.558594 37.285156 45.75 37.46875 45.890625 C 38.023438 47.082031 39.101563 48 40.5 48 C 42.421875 48 44 46.421875 44 44.5 C 44 44.269531 43.953125 44.082031 43.914063 43.890625 C 43.917969 43.796875 43.90625 43.703125 43.886719 43.613281 L 38.832031 24.324219 L 38.847656 24.402344 C 38.09375 20.195313 34.414063 17 30 17 L 25 17 L 25 5 C 25 3.355469 23.644531 2 22 2 Z M 22 4 C 22.566406 4 23 4.433594 23 5 L 23 18 C 23 18.550781 23.449219 19 24 19 L 30 19 C 33.449219 19 36.292969 21.484375 36.878906 24.753906 C 36.886719 24.78125 36.890625 24.804688 36.898438 24.828125 L 41.703125 43.175781 L 42.636719 42.910156 C 42.113281 43.058594 41.804688 43.597656 41.941406 44.125 C 41.984375 44.273438 42 44.394531 42 44.5 C 42 45.339844 41.339844 46 40.5 46 C 39.785156 46 39.207031 45.511719 39.046875 44.851563 C 39.039063 44.804688 39.023438 44.761719 39.003906 44.71875 L 34.78125 28.082031 C 34.667969 27.636719 34.265625 27.324219 33.804688 27.328125 C 33.34375 27.335938 32.945313 27.652344 32.839844 28.105469 L 28.980469 44.730469 C 28.976563 44.746094 28.972656 44.761719 28.96875 44.777344 C 28.839844 45.472656 28.246094 46 27.5 46 C 26.660156 46 26 45.339844 26 44.5 C 26 44.359375 26.027344 44.210938 26.085938 44.035156 C 26.171875 43.777344 26.148438 43.5 26.023438 43.257813 C 25.894531 43.019531 25.679688 42.839844 25.421875 42.765625 L 26.3125 43.015625 L 29.972656 27.226563 C 30.042969 26.929688 29.972656 26.617188 29.785156 26.378906 C 29.59375 26.140625 29.304688 26 29 26 L 22 26 C 21.539063 26 21.140625 26.316406 21.03125 26.761719 L 17.988281 39.132813 C 17.984375 39.152344 17.980469 39.167969 17.980469 39.1875 C 17.890625 39.652344 17.5 40 17 40 C 16.433594 40 16 39.566406 16 39 C 16 38.9375 16.011719 38.855469 16.042969 38.734375 C 16.046875 38.730469 16.046875 38.722656 16.046875 38.714844 L 20.96875 18.90625 C 20.988281 18.828125 21 18.75 21 18.667969 L 21 5 C 21 4.433594 21.433594 4 22 4 Z M 11.5 15 C 8.472656 15 6 17.472656 6 20.5 C 6 23.527344 8.472656 26 11.5 26 C 14.527344 26 17 23.527344 17 20.5 C 17 17.472656 14.527344 15 11.5 15 Z M 11.5 17 C 13.445313 17 15 18.554688 15 20.5 C 15 22.445313 13.445313 24 11.5 24 C 9.554688 24 8 22.445313 8 20.5 C 8 18.554688 9.554688 17 11.5 17 Z "></path></g></svg>