<svg xmlns="http://www.w3.org/2000/svg" x="0px" y="0px"
     width="50" height="50"
     viewBox="0 0 24 24"
     style="fill:#000000;"><g id="surface1"><path style=" " d="M 3 9 C 1.34375 9 0 10.34375 0 12 C 0 13.65625 1.34375 15 3 15 C 4.65625 15 6 13.65625 6 12 C 6 10.34375 4.65625 9 3 9 Z M 12 9 C 10.34375 9 9 10.34375 9 12 C 9 13.65625 10.34375 15 12 15 C 13.65625 15 15 13.65625 15 12 C 15 10.34375 13.65625 9 12 9 Z M 21 9 C 19.34375 9 18 10.34375 18 12 C 18 13.65625 19.34375 15 21 15 C 22.65625 15 24 13.65625 24 12 C 24 10.34375 22.65625 9 21 9 Z "></path></g></svg>