<svg id="Layer_1" data-name="Layer 1" xmlns="http://www.w3.org/2000/svg" viewBox="0 0 703 468.32"><defs><style>.cls-1{fill:#fff;}.cls-1,.cls-10,.cls-11,.cls-12,.cls-2,.cls-3,.cls-4,.cls-5,.cls-6,.cls-7,.cls-8,.cls-9{fill-rule:evenodd;}.cls-3{fill:#414042;}.cls-4{fill:#ffa1a1;}.cls-5{fill:#ed5a15;}.cls-6{fill:#c24308;}.cls-7{fill:#fff0a2;}.cls-8{fill:#fae36e;}.cls-9{fill:#e6e7e8;}.cls-10{fill:#f1f2f2;}.cls-11{fill:#512c00;}.cls-12{fill:#231f20;}</style></defs><title>Artboard 1</title><path class="cls-1" d="M360.26,439.06c-1.57-1.23-1.82-2.78-2.23-4.31a67.51,67.51,0,0,1-2.23-12,53.05,53.05,0,0,1,.61-11.81c.76-5.18,2.7-10,4.42-14.9a13.82,13.82,0,0,0,.88-2.9c.52-4.7,3-8.54,5.69-12.13a92,92,0,0,1,9.69-10.84c3.92-3.78,8.16-7.12,12.39-10.51,2.73-2.19,5.37-4.48,8.16-6.6,5.84-4.45,11.79-8.74,17.6-13.23a32.92,32.92,0,0,1,7.06-4.59,4.73,4.73,0,0,1,2.6-.33,2.51,2.51,0,0,1,2.19,1.87,8.15,8.15,0,0,1,.3,1.65c.33,3.26.66,6.51.95,9.77a41.65,41.65,0,0,1,.26,4.73c-.11,4.07-.32,8.13-.5,12.19-.09,2.14-.2,4.29-.3,6.43-.16,3.38-.24,6.77-.5,10.15a30.12,30.12,0,0,1-.89,5.33c-1.19,4.59-2.44,9.16-3.78,13.71a54.43,54.43,0,0,1-2.05,5.37c-.51,1.25-1.26,2.42-1.69,3.69-2,5.76-6.23,9.9-10.05,14.33a25.38,25.38,0,0,1-4.2,3.4c-2.81,2.09-5.65,4.14-8.48,6.19a7,7,0,0,1-4.38,1.52,12.05,12.05,0,0,0-3.61.75q-4.21,1.29-8.39,2.71A22.48,22.48,0,0,1,369.43,440c-3.15-.41-4.87.95-6.15,3.53s-2.71,4.94-3.93,7.48c-1.77,3.65-3.4,7.37-5.11,11.05a12.4,12.4,0,0,1-1.28,2.35,2.13,2.13,0,0,1-2.71.73,2.24,2.24,0,0,1-1.18-2.21,10.32,10.32,0,0,1,1.15-5.74c1.32-2.48,2.3-5.15,4-7.44a4.8,4.8,0,0,0,.49-.89A40.83,40.83,0,0,1,360.26,439.06Zm46.35-23.25c-1,.19-1.52.28-2,.41-4.27,1-8.53,2.12-12.82,3.06-4.73,1-9.49,2-14.23,2.9a3.22,3.22,0,0,0-2.57,1.4c-1.73,3.16-3.5,6.29-5.19,9.47a6.73,6.73,0,0,0-.34,1.93,11.5,11.5,0,0,0,5.53,0,122.16,122.16,0,0,0,18.38-6.74,8.34,8.34,0,0,0,1.95-1.31c2.18-1.78,4.42-3.5,6.47-5.42C403.43,420,405.6,418.75,406.61,415.81Zm-27.87,1.84,7.6-1.75c5.16-1.18,10.36-2.26,15.28-4.3a27.34,27.34,0,0,1,9.17-2.18,5.22,5.22,0,0,0,1-.33c1-2,2-4,2.95-6q.59-1.21,1.05-2.49c.5-1.37,1-2.75,1.39-4.15a6.81,6.81,0,0,0-.11-1.86c-1.59.83-2.94,1.39-4.14,2.18a81,81,0,0,1-11.71,6c-5.76,2.59-11.56,5.08-17.34,7.6-.21.09-.41.19-.63.26a3.4,3.4,0,0,0-2,1.76C380.57,413.91,379.84,415.41,378.74,417.65Zm-5.3-2.61c1.06-1.79,1.82-3,2.51-4.28,1.48-2.67,2.95-5.34,4.36-8a5.5,5.5,0,0,0,.54-4.24c-.68-2.49-1.13-5.06-1.63-7.61-.57-2.88-1.06-5.78-1.64-8.65-.2-1-.19-2.07-1.52-2.64a10.56,10.56,0,0,0-1.6,1.54c-1.51,2.25-2.95,4.55-4.4,6.84a3.6,3.6,0,0,0-.54,1.24,20.76,20.76,0,0,1-2.11,5.69,3.79,3.79,0,0,0,0,3.24c.88,2.33,1.49,4.74,2.28,7.1A77.5,77.5,0,0,0,373.44,415Zm14-12.55a18,18,0,0,0,2.36-.74c6.79-3.54,13.64-7,20.32-10.73,2.85-1.59,5.55-3.42,8.66-4.52a4.75,4.75,0,0,0,.94-.64c.58-2.83,1.5-5.68,1.32-9-.67.34-1.07.51-1.44.73a190,190,0,0,1-18.75,10.77c-2.58,1.23-5.29,2.56-7.07,5.07-.36.51-1.1.76-1.66,1.13-.37.25-.87.43-1.07.78C389.81,397.47,388.15,399.38,387.43,402.49Zm-3.35-8.14a9.17,9.17,0,0,0,.83-1.14c1.83-3.61,3.39-7.37,5.85-10.65a4.57,4.57,0,0,0,.78-3.22c-.3-3.71-.61-7.41-1-11.11a5,5,0,0,0-.46-1.25c-1.51,0-2.38,1-3.28,1.76-1.71,1.46-3.28,3.09-5,4.57a4.31,4.31,0,0,0-1.47,4.53c1.08,5.18,2,10.4,3,15.6C383.48,393.72,383.78,394,384.08,394.35Zm13-9.65a79.91,79.91,0,0,0,10-5.29c4.43-2.89,8.64-6.15,13.46-8.41a4.65,4.65,0,0,0,.82-.62c.68-1.72.5-3.55.61-5.34,0-.56,0-1.14-.63-1.27-3.93,2.16-7.75,4.31-11.62,6.37-1.8,1-3.58,1.88-4.77,3.61-2.23.6-2.78,2.81-4,4.32a51,51,0,0,0-3.39,5A7.33,7.33,0,0,0,397.09,384.7Zm-32.51,18.53a53.63,53.63,0,0,0-2.95,12.89c-.69,5.15.44,10.08,1.66,15a9.52,9.52,0,0,0,.51,1.13c1.58-2.6,2.79-4.73,4.14-6.78a25.36,25.36,0,0,0,3.23-6.43c-1.23-2.63-2.38-5.07-3.51-7.52S366,406.2,364.58,403.23Zm30.9-29.08a48.23,48.23,0,0,0,4.46-5.78,9,9,0,0,0,1.78-5.68c0-1.12,0-2.24-.05-3.37,0-.54,0-1.14-1.1-1.31-1.9,1.38-4,2.88-6.05,4.43a2.24,2.24,0,0,0-1,2.35c.46,2.42.85,4.86,1.29,7.29C395,372.6,395.16,373.1,395.48,374.15Zm16.08-10.73,10.78-6.07a21.68,21.68,0,0,0,0-10.17C420.1,348.94,413.43,358.87,411.56,363.42ZM407,358.29a14.88,14.88,0,0,0,3.14-4.07c.86-1.31,1.8-2.57,2.56-3.94s2.31-2,2.74-3.69c-.42,0-.7-.15-.82-.06-2.41,1.83-4.83,3.65-7.17,5.57a2.72,2.72,0,0,0-.84,1.75A10.47,10.47,0,0,0,407,358.29Z"/><path class="cls-1" d="M323.46,253a5.68,5.68,0,0,1,5.09,1,99.65,99.65,0,0,0,12.34,7,43.31,43.31,0,0,1,13.6,9.92c2.91,3.31,5.81,6.7,7,11.05a32.42,32.42,0,0,1,.93,14.39c-.28,1.67-.55,3.35-.92,5a24.72,24.72,0,0,1-9.28,14.91c-1.27,1-2.49,2-3.83,2.79a3.21,3.21,0,0,0-1.59,3.74c.77,3.53,1.47,7.08,2.38,10.57a66.77,66.77,0,0,1,2.11,12c.07.93.07,1.84-.89,2.36a2.82,2.82,0,0,1-2.9-.13,5.1,5.1,0,0,1-2.22-2.48c-.65-1.57-1.33-3.13-1.82-4.74-1.43-4.76-2.76-9.55-4.18-14.31-.41-1.38-1-2.72-1.55-4.2-1.48.15-2.81.27-4.13.44a17.29,17.29,0,0,1-10.16-1.88c-1.41-.71-2.87-1.32-4.33-1.93a17.79,17.79,0,0,1-9.21-8.11,47.05,47.05,0,0,1-3.55-7.28c-1.46-4.41-1-9,.17-13.37A42.1,42.1,0,0,1,311.91,277c1.42-2.17,2.45-4.58,3.7-6.85,2.13-3.85,4.26-7.7,6.45-11.52C323.65,255.85,323.69,255.87,323.46,253Zm-11.7,41.93a18.57,18.57,0,0,0,1,9,22.54,22.54,0,0,0,5.72,8.73c3.25,3,7.06,4.86,11.71,4a12.84,12.84,0,0,1,5.38-.11,6.22,6.22,0,0,0,1.45-.06c0-.57-.06-1-.09-1.41-.15-2.24-1.24-3.33-3.57-3.69a19.47,19.47,0,0,1-9.36-4.52c-4.07-3.4-8.27-6.69-11.27-11.17A6.25,6.25,0,0,0,311.76,294.94Zm1.87-9.55a22.94,22.94,0,0,0-1.07,2.29,3.59,3.59,0,0,0,.64,3.46,36.55,36.55,0,0,0,7.84,8.34q3.9,3,7.93,5.75a23,23,0,0,0,3.59,1.86,1.68,1.68,0,0,0,2-.18,80.14,80.14,0,0,0-1.79-9.47c-2.57-1.17-4.87-2.09-7.05-3.25a54,54,0,0,1-6.33-3.89C317.46,288.88,315.7,287.17,313.63,285.39Zm17.58,7.69c.19-.24.33-.34.32-.41-.6-3.32-1.21-6.64-1.81-10a3,3,0,0,0-1.32-1.85c-3-2.4-6.81-3.35-10.14-5.55-.69,1.18-1.3,2.11-1.8,3.1s-1,2.22-1.55,3.34C319.45,287.11,325.49,289.88,331.21,293.08Zm11.3,11.12c1.5-1.86,2.58-3,3.44-4.32,2.19-3.3,4.31-6.64,6.39-10a4.52,4.52,0,0,0,.77-2.19,14.5,14.5,0,0,0-3-8.32,9.14,9.14,0,0,0-1.2,1.38c-.66,1.19-1.22,2.43-1.86,3.62a35.84,35.84,0,0,1-5.89,7.85,2.82,2.82,0,0,0-.95,2.74Zm.42-33.88c-1.77,3.41-3.43,6.6-5.07,9.81a2.5,2.5,0,0,0-.31,1.3c.13,1.46.31,2.91.55,4.36a4.77,4.77,0,0,0,1.07,2.78,4.33,4.33,0,0,0,.92-.49c3.46-3.43,5.26-7.85,7.24-12.16a1.88,1.88,0,0,0-.28-1.56C345.94,273,345,271.39,342.93,270.32Zm-17.1-8.66a29.82,29.82,0,0,0-5.54,10.41c.49.53.85,1.18,1.4,1.47,2.27,1.16,4.61,2.21,7.41,3.54A86.89,86.89,0,0,0,325.83,261.66Zm27.49,34.53a12.21,12.21,0,0,0-2.41,3.46,36.65,36.65,0,0,1-4.54,6.69,34,34,0,0,0-2.26,3c-.75,1.1-.47,2.07.64,3.05.74-.65,1.43-1.21,2.06-1.82,1.05-1,2-2.12,3.1-3.09,3.33-3,4.23-6.74,3.84-11C353.74,296.39,353.58,296.35,353.32,296.19Zm-19.61-33.11c-.15.38-.33.6-.29.78q1.14,5.07,2.35,10.15c.05.22.4.37.84.74a22,22,0,0,0,1.3-4,6.76,6.76,0,0,1,1.64-3.5A22.64,22.64,0,0,0,333.71,263.08Z"/><path class="cls-2" d="M468.34,307.79c-.08-1.54-.14-2.41-.17-3.29-.12-3.38-.25-6.77-.34-10.15-.06-2.14-.06-4.29-.07-6.43,0-.59.16-1.14.82-1.31a1.35,1.35,0,0,1,1.62.89,52.06,52.06,0,0,1,.85,5.67c.29,3.83.42,7.67.65,11.5a9.18,9.18,0,0,0,.41,1.5,5.45,5.45,0,0,0,1.56-.54c2.38-1.91,4.7-3.89,7.06-5.82a35.54,35.54,0,0,1,3-2.23,2.22,2.22,0,0,1,2.89.05,3.94,3.94,0,0,1-1.54,3.17c-1.72,1.63-3.49,3.21-5.25,4.8-.92.83-1.89,1.62-2.77,2.49a6.94,6.94,0,0,0-.81,1.25c.36.9,1,.79,1.52.77,1.24-.06,2.47-.23,3.71-.31,3.16-.19,6.32-.4,9.48-.52a9.65,9.65,0,0,1,5.32,1.28,4.65,4.65,0,0,1-3.92,2.39c-1.12.13-2.26,0-3.39.06q-5.76.25-11.51.57a7.65,7.65,0,0,0-1.23.25c-.35.94.31,1.37.75,1.81,2.08,2.08,4.22,4.09,6.3,6.16a15.38,15.38,0,0,1,1.94,2.33,1.31,1.31,0,0,1,0,1.23c-.31.38-.95.81-1.34.73a8.31,8.31,0,0,1-3.12-1.15,49.74,49.74,0,0,1-4.34-3.76c-.73-.67-1.4-1.41-2-2.06-1.08.44-.87,1.18-.85,1.83.1,3.05.21,6.09.34,9.14a8.29,8.29,0,0,1-.83,4,1.66,1.66,0,0,1-3,.18,7.39,7.39,0,0,1-1.15-4.53c.05-2.93.14-5.87.16-8.8a27.87,27.87,0,0,0-.21-3c0-.19-.26-.34-.41-.53-1-.31-1.43.47-2,1-2.24,2.23-4.44,4.51-6.67,6.76a16.8,16.8,0,0,1-2.26,2,4,4,0,0,1-1.88.58,1.24,1.24,0,0,1-1.29-1.8A11,11,0,0,1,456,323c2.25-2.53,4.62-5,6.95-7.42.53-.56,1.09-1.1,1.6-1.61-.5-1.15-1.38-.89-2.11-.79-3,.4-6,.88-9.06,1.3a20.54,20.54,0,0,1-3,.26,2.66,2.66,0,0,1-2.65-1.89c2.63-1.23,5.38-1.14,8-1.58l7.65-1.31c.46-.67,0-1-.39-1.44-1.65-1.7-3.32-3.39-5-5.09a3.57,3.57,0,0,1-.85-1,1.62,1.62,0,0,1-.06-1.27,1.53,1.53,0,0,1,1.15-.48,4.9,4.9,0,0,1,3.29,1.54c1.68,1.52,3.39,3,5.1,4.47C467,306.94,467.36,307.14,468.34,307.79Z"/><path class="cls-2" d="M234.37,309.65l-1.67,1.92a3.33,3.33,0,0,1-4,.83,3.72,3.72,0,0,1-2.55-3.3c-.09-1.67.18-3.21,1.84-4.05a4.65,4.65,0,0,1,5.13.32,13.89,13.89,0,0,1,1.92,2.11,23.44,23.44,0,0,0,8.19,1c2.38-.08,4.75-.06,7.12-.17,1.94-.1,2.83-1.58,1.89-3.3-1.35-2.48-2.83-4.89-4.3-7.3-1.17-1.93-2.4-3.82-3.73-5.93a3.82,3.82,0,0,0-1.05-.3c-1.78-.1-2.56-1.24-3-2.77a3,3,0,0,1,.87-3.37,3.43,3.43,0,0,1,3.84-.18,3.23,3.23,0,0,1,1.73,3.06.88.88,0,0,1-.06.33c-1.17,2.13-.2,3.91.88,5.69l5.95,9.72c.42-.34.85-.53,1-.85,2.88-5,5.87-9.91,8.06-15.27a4,4,0,0,0,.29-2.92,4.2,4.2,0,0,1,.19-3,3,3,0,0,1,4.48-1.47c2.74,1.65,2.79,4.57.05,6.24a17.26,17.26,0,0,1-3,1.1,10.81,10.81,0,0,0-1,1.61c-2,4.93-5,9.34-7.35,14.11-.29.6-.65,1.19-.88,1.82a2.37,2.37,0,0,0,1.78,3.08,1.87,1.87,0,0,0,.34,0c6.09.23,12.19.43,18.28.69a5.41,5.41,0,0,0,4.79-1.95,2.81,2.81,0,0,1,3.6-1,4.22,4.22,0,0,1,2.63,3.29,3.34,3.34,0,0,1-2,3.56,4.06,4.06,0,0,1-4.46-.51,20.08,20.08,0,0,1-1.91-2c-1.94,0-3.86.06-5.77,0-2.82-.1-5.64-.32-8.46-.42-1.92-.07-3.84,0-5.75,0-.3,0-.58.27-1,.49.75,1.42,1.41,2.82,2.21,4.14a105.33,105.33,0,0,0,8.39,12.71,6.9,6.9,0,0,0,4.06,2.74,4.1,4.1,0,0,1,3.26,5.38,5.23,5.23,0,0,1-7.14,3.12c-1.62-.84-2.5-3.64-1.7-5.72a20.56,20.56,0,0,1,1.38-2.49,18.36,18.36,0,0,0-1.36-2.22c-2.81-3.43-4.84-7.35-7-11.18q-1.65-3-3.47-5.82c-1-1.65-2.7-1.62-3.78,0-2.57,4-4.64,8.26-6.84,12.45-.58,1.1-1.09,2.23-1.69,3.31-.89,1.6-1.7,3.1-.83,5.09a3.39,3.39,0,0,1-.83,3.77,4.33,4.33,0,0,1-5.58,0,3.65,3.65,0,0,1,.36-5.63,23.14,23.14,0,0,1,4.11-1.78c.51-1,1.23-2.37,2-3.75,2-3.69,4-7.35,5.93-11.06a9.15,9.15,0,0,0,1.42-3.35C248.16,310,238.64,309.51,234.37,309.65Z"/><path class="cls-2" d="M678.29,240.33c-.7-2.92-1.21-5.11-1.74-7.3s-1-4.16-1.5-6.25c-.83-3.52-1.64-7-2.46-10.56a2.22,2.22,0,0,0-1.35-1.81,2.6,2.6,0,0,1-.61-.28c-1.8-1.3-2.12-2.47-1.2-4.33s2.43-2.71,4.4-1.93a8.48,8.48,0,0,1,2.43,1.72,1.52,1.52,0,0,1,.31,1.88A20.74,20.74,0,0,1,675,214.1a2.65,2.65,0,0,0-.58,2.2,185.09,185.09,0,0,0,4.81,20.78,5.57,5.57,0,0,0,.6,1c2.12-.86,3.56-2.67,5.44-3.81s3.55-2.38,5.25-3.54a23,23,0,0,1,0-2.52,3,3,0,0,1,3.28-2.74c1.92,0,3.14.91,3.43,2.61a4.09,4.09,0,0,1-1.21,4,3.22,3.22,0,0,1-3.8.38,3.65,3.65,0,0,0-.79-.19,62.27,62.27,0,0,0-9.59,6.72,10.29,10.29,0,0,0-1.2,1.18,1.57,1.57,0,0,0,.14,2.15A14.22,14.22,0,0,0,683,244c3.11,1.84,6.24,3.63,9.64,5.58l1.47-.8a4.74,4.74,0,0,1,4.55.13,2.26,2.26,0,0,1,1.33,1.85,5.29,5.29,0,0,1-3,4.59,4.08,4.08,0,0,1-4.71-1.75A1.71,1.71,0,0,1,692,253c-.23-2.08-1.83-3.06-3.34-4-1.82-1.13-3.76-2.06-5.66-3.07-.38-.19-.8-.3-1.4-.53a6.08,6.08,0,0,0-.22,1.43c.69,4.92,1.44,9.84,2.1,14.76a4.43,4.43,0,0,0,2.36,3.79c2.95,1.58,1.6,5.74-.32,6.8a2.84,2.84,0,0,1-2.91.1c-2.26-1.24-3.27-4-1.76-6.07a5.77,5.77,0,0,0,.92-4.76c-.68-4.81-1.35-9.62-2.06-14.43a17.66,17.66,0,0,0-.69-3c-.46-1.42-1.43-1.74-2.58-.88-1.82,1.34-3.59,2.74-5.4,4.09s-3.49,2.49-5.22,3.76c-1.38,1-2.74,2-2.82,4a3,3,0,0,1-.55,1.22,3.23,3.23,0,0,1-5.41.43,5.25,5.25,0,0,1-1.18-3.78,1.94,1.94,0,0,1,1.57-2,15.5,15.5,0,0,1,3.34-.15,8.73,8.73,0,0,1,1.73.41c4.41-3,8.78-6.17,13.09-9.72-2.69-3-6.3-4.31-9.2-6.58s-5.83-4.26-8.87-6.47c-1.13.54-2.24,1.06-3.34,1.6a2.91,2.91,0,0,1-3.44-.54A4.86,4.86,0,0,1,649,226c-.12-2.91,2-4.6,4.83-4,2,.43,3.58,1.42,4.15,3.51a4.87,4.87,0,0,0,1.71,2.42,81.43,81.43,0,0,0,10.83,8.1c1.83,1.12,3.54,2.43,5.35,3.58A12.45,12.45,0,0,0,678.29,240.33Z"/><path class="cls-2" d="M128.09,182.18a7,7,0,0,1,1.2-1.44,38.8,38.8,0,0,1,12.31-5.52c2.05-.49,2.47-.27,3.54,1.62,1,1.67,1.85,3.37,2.63,5.12a75.13,75.13,0,0,0,6,11c.62.93,1.1,2,1.65,2.94.95,1.66,1.91,3.31,2.94,5.08.89-.18,1.63-.35,2.38-.48a27.46,27.46,0,0,1,4-.57,2.47,2.47,0,0,1,2.27,1.76,2,2,0,0,1-.73,2.42c-1.35,1.19-2.7,2.39-4.64,2.6a3.19,3.19,0,0,1-3.41-1.69q-2.79-5-5.54-10.07a7.52,7.52,0,0,0-.48-.89c-3-4-4.85-8.66-7.11-13.08-.26-.5-.5-1-.78-1.5-1.44-2.6-2-2.87-4.9-1.86a37,37,0,0,0-9.43,4.55C129.48,182.55,128.93,183,128.09,182.18Z"/><path class="cls-2" d="M160.87,182.63a6.47,6.47,0,0,0,1.18-.92,6.37,6.37,0,0,1,4.15-2.06c.81-.15,1.65-.22,2.1.62a2.49,2.49,0,0,1,.3,2.57,9.23,9.23,0,0,1-5.77,4.41,1.89,1.89,0,0,1-2.06-.86,25,25,0,0,1-4.53-8.22,80.89,80.89,0,0,0-3.83-9.78,19.78,19.78,0,0,0-2.76-4.24,4.19,4.19,0,0,0-4.25-1.53,12.09,12.09,0,0,0-2,.4,47,47,0,0,0-12.14,5.89,9.54,9.54,0,0,1-1.76.93c-.14.06-.45-.1-.56-.25a.73.73,0,0,1-.09-.62,2,2,0,0,1,.64-.74,35.16,35.16,0,0,1,4.28-2.73c3.05-1.45,6.19-2.76,9.33-4a12.61,12.61,0,0,1,3-.58,5.5,5.5,0,0,1,5.56,2.5,27.86,27.86,0,0,1,3.63,6.49c1.28,3.62,2.81,7.15,4.28,10.69A13.75,13.75,0,0,0,160.87,182.63Z"/><path class="cls-2" d="M123.71,193.66c4.22-3.7,8.8-4.95,14-5a44.55,44.55,0,0,1,2.27,4.61c1.59,4.45,3,9,4.59,13.44,1.19,3.28,2.63,6.46,4,9.83h2.78a31.69,31.69,0,0,1,3.38.05c1.59.18,2.14.64,3.43,2.35-1.62,3.42-4.53,4.1-7.91,3.66A3.48,3.48,0,0,1,147,219a11.24,11.24,0,0,0-1.12-4.2c-1.37-3.1-2.43-6.3-3.49-9.52-1.46-4.38-3.19-8.68-5-12.94-.87-2.07-1.64-2.39-3.72-1.84-2.36.61-4.9.86-6.66,3C126.35,194.25,125.28,194.39,123.71,193.66Z"/><path class="cls-2" d="M163,160.24a12,12,0,0,0,1.2-1.14c1.66-2.09,4-1.73,6.18-.78a1.73,1.73,0,0,1,.82,2.31,4.74,4.74,0,0,1-2.42,2.72c-.92.43-1.91.71-2.86,1.05a2.79,2.79,0,0,1-3.3-.91,69.53,69.53,0,0,1-7.44-10.06,40,40,0,0,0-2.86-3.76,6.64,6.64,0,0,0-1.8-1.54c-3-1.65-3.4-2-6.46.12-2.43,1.65-4.73,3.49-7,5.31-2.65,2.11-5.47,4-7.69,6.63a1.77,1.77,0,0,1-.81.58,1,1,0,0,1-.87-.16,1,1,0,0,1,0-.91,8,8,0,0,1,1.33-1.51c1.28-1.11,2.57-2.21,3.9-3.26,3.11-2.45,6.21-4.9,9.36-7.29a33.3,33.3,0,0,1,3.72-2.35,3.58,3.58,0,0,1,3.57,0,14.4,14.4,0,0,1,5.86,5c1.4,2.19,2.85,4.34,4.34,6.47A10.28,10.28,0,0,0,163,160.24Z"/><path class="cls-2" d="M54,159.17c-.73.8-1.36,1.11-1.88.35-1.14-1.69-2.14-3.46-3.25-5.16-2.55-3.87-4.81-7.94-8.1-11.27a22.38,22.38,0,0,0-2.8-2.43,7.54,7.54,0,0,0-7-1.21c-4.42,1.36-8.89,2.6-13.35,3.85a5.57,5.57,0,0,0-2.85,1.63c-1.17,1.29-2.35,1.19-3.48-.09A8.38,8.38,0,0,1,9,138.3,1.76,1.76,0,0,1,12,136.93a16.9,16.9,0,0,1,2.34,2.44c.58.68,1,1.45,1.69,2.34.71-.13,1.46-.23,2.19-.43,4.92-1.3,9.83-2.6,14.73-3.95a4.11,4.11,0,0,1,2.64.17,14.66,14.66,0,0,1,5.85,4,87,87,0,0,1,5.74,7.11C49.54,152,51.7,155.55,54,159.17Z"/><path class="cls-2" d="M6.37,165c1.57-.12,2.38-1,3.33-1.56,3.74-2.31,7.44-4.68,11.22-6.94a32.82,32.82,0,0,1,4.28-2,9.89,9.89,0,0,1,11,1.8c4.32,3.79,8.43,7.82,12.62,11.77a5.48,5.48,0,0,1,.7,1c-.55.72-1.06.66-1.53.25q-3.46-3-6.89-6c-2.28-2-4.39-4.24-6.83-6-2.8-2.05-5.85-2.29-9.25-.89-5.14,2.11-9.72,5.17-14.5,7.9a9.53,9.53,0,0,0-1.14.72A5.06,5.06,0,0,0,7,168.54c-.27,2-1.78,2.42-3.51,1.32A8.76,8.76,0,0,1,.08,165a2.72,2.72,0,0,1,0-1.33,1.5,1.5,0,0,1,2-1.27,12.57,12.57,0,0,1,2.43,1.15A19.57,19.57,0,0,1,6.37,165Z"/><path class="cls-2" d="M7.61,207.48c2.8-.92,4.29-.82,8.6.66a7.84,7.84,0,0,0,3-2.95c1.2-1.64,2.42-3.25,3.69-4.83,2.1-2.65,4.2-5.3,6.4-7.87,3.87-4.54,5.07-4.92,10.88-4.14,2.91.39,5.83.61,8.75.93.7.08,1.35.27,1.28,1.35a10.84,10.84,0,0,1-1.9.22c-2.59-.14-5.18-.3-7.76-.52-6.33-.55-6.79-.74-11.19,4.27-2.61,3-5.08,6-7.43,9.21a79.87,79.87,0,0,0-4.71,7.4A3.19,3.19,0,0,1,13.93,213c-2.55-.23-4.94-.72-6.25-3.3A2.15,2.15,0,0,1,7.61,207.48Z"/><path class="cls-2" d="M3.3,185c2.9-.44,4.5,1.54,6.49,2.84a16.73,16.73,0,0,0,2-1.33c2.6-2.33,5.13-4.74,7.74-7.07a46.49,46.49,0,0,1,9.82-6.53,6.77,6.77,0,0,1,4.58-.79c3.52.76,7,1.59,10.53,2.44a12.09,12.09,0,0,1,1.92.84c-.26.52-.43.9-.61,1.28-3.86-.79-7.62-1.47-11.32-2.38a8.16,8.16,0,0,0-5.89.67,35.4,35.4,0,0,0-8.07,5.52c-3,2.71-5.89,5.57-8.85,8.34A5.39,5.39,0,0,0,10,190.93c-.85,2.26-2.92,2.71-4.77,1.12a5.94,5.94,0,0,1-2.19-4.42A24.72,24.72,0,0,1,3.3,185Z"/><path class="cls-1" d="M132.57,168.27A31.4,31.4,0,0,0,116,154.52c-6.16-2.17-12.38-4.22-19-4.93-3.72-.4-7.4-1-11.14-.6a110.8,110.8,0,0,0-12.75,1.63,48.31,48.31,0,0,0-15.75,6.88A23.46,23.46,0,0,0,48,168.81c-3.09,7.82-3.74,15.72-1,23.84a24.86,24.86,0,0,0,6,9.29,52.82,52.82,0,0,0,13.84,10.23,23.27,23.27,0,0,0,5.94,2.37c5.86,1.17,11.73,2.53,17.64,1.92.72,0,1.29,0,1.85,0a38.42,38.42,0,0,0,13-1.59,68.46,68.46,0,0,0,9.41-3.78,41,41,0,0,0,17-15.11,28,28,0,0,0,4.31-16.48A23.22,23.22,0,0,0,132.57,168.27Z"/><path class="cls-2" d="M129.57,165.27A31.4,31.4,0,0,0,113,151.52c-6.16-2.17-12.38-4.22-19-4.93-3.72-.4-7.4-1-11.14-.6a110.8,110.8,0,0,0-12.75,1.63,48.31,48.31,0,0,0-15.75,6.88A23.46,23.46,0,0,0,45,165.81c-3.09,7.82-3.74,15.72-1,23.84a24.86,24.86,0,0,0,6,9.29,52.82,52.82,0,0,0,13.84,10.23,23.27,23.27,0,0,0,5.94,2.37c5.86,1.17,11.73,2.53,17.64,1.92.72,0,1.29,0,1.85,0a38.42,38.42,0,0,0,13-1.59,68.46,68.46,0,0,0,9.41-3.78,41,41,0,0,0,17-15.11,28,28,0,0,0,4.31-16.48A23.22,23.22,0,0,0,129.57,165.27Z"/><path class="cls-3" d="M65.75,184a9.44,9.44,0,0,1-5.17-1.43,7.63,7.63,0,0,1-3.75-5.38,11.26,11.26,0,0,1,.77-6.63c1-2.14,2.4-3.83,4.84-4.36a2,2,0,0,0,.65-.19c2.36-1.38,4.59-.58,6.75.48a7.71,7.71,0,0,1,4.37,5.31c.37,1.63,1,3.24.71,5C74.23,181.11,70.8,183.92,65.75,184Zm.39-1.56a9.32,9.32,0,0,0,1.27-.08c3.24-.54,6.85-3.1,5.68-8a15.47,15.47,0,0,0-1.45-3.78,4.72,4.72,0,0,0-3.31-2.69,27.07,27.07,0,0,0-5.4,0,3.6,3.6,0,0,0-1.79.84c-2.41,1.92-3.65,6.12-2.47,9C60.19,181.25,62.36,182.38,66.14,182.39Z"/><path class="cls-3" d="M109.64,187.58c-4.88.15-7.8-3.37-8.81-7a9.42,9.42,0,0,1,3.94-10.63c2.32-1.48,7.65-1.43,10.13,1.1s4.19,5.57,3.82,9.4a7.1,7.1,0,0,1-5.09,6.47,13.49,13.49,0,0,1-2,.52C111,187.54,110.32,187.53,109.64,187.58Zm-7.27-9c0-.38,0,0,0,.3a7.08,7.08,0,0,0,4.2,6.46,8.52,8.52,0,0,0,8.39-.83,4.15,4.15,0,0,0,1.15-1.21,6.66,6.66,0,0,0,.28-7.07,23.48,23.48,0,0,0-2.35-3.29,6.58,6.58,0,0,0-5.73-2.33,5.5,5.5,0,0,0-4.94,3A8.73,8.73,0,0,0,102.37,178.61Z"/><path class="cls-1" d="M66.14,182.39c-3.78,0-6-1.14-7.47-4.78-1.18-2.83.06-7,2.47-9a3.6,3.6,0,0,1,1.79-.84,27.07,27.07,0,0,1,5.4,0,4.72,4.72,0,0,1,3.31,2.69,15.47,15.47,0,0,1,1.45,3.78c1.17,4.92-2.44,7.48-5.68,8A9.32,9.32,0,0,1,66.14,182.39Zm-.61-7.1c1.43.08,2.72-.76,2.77-1.8a2.61,2.61,0,0,0-2.66-2.43A1.68,1.68,0,0,0,64,172.77C63.82,174.1,64.52,175.23,65.53,175.29Z"/><path class="cls-1" d="M102.37,178.61a8.73,8.73,0,0,1,1-4.93,5.5,5.5,0,0,1,4.94-3,6.58,6.58,0,0,1,5.73,2.33,23.48,23.48,0,0,1,2.35,3.29,6.66,6.66,0,0,1-.28,7.07,4.15,4.15,0,0,1-1.15,1.21,8.52,8.52,0,0,1-8.39.83,7.08,7.08,0,0,1-4.2-6.46C102.36,178.57,102.35,178.23,102.37,178.61Zm4.71-1.92c-.16,1.51.59,2.57,1.86,2.64a2.93,2.93,0,0,0,3-2.51,2.31,2.31,0,0,0-2.19-2.45A2.46,2.46,0,0,0,107.08,176.69Z"/><path class="cls-2" d="M65.53,175.29c-1-.06-1.71-1.19-1.56-2.52a1.68,1.68,0,0,1,1.67-1.71,2.61,2.61,0,0,1,2.66,2.43C68.25,174.53,67,175.37,65.53,175.29Z"/><path class="cls-2" d="M107.08,176.69a2.46,2.46,0,0,1,2.72-2.32,2.31,2.31,0,0,1,2.19,2.45,2.93,2.93,0,0,1-3,2.51C107.67,179.26,106.92,178.2,107.08,176.69Z"/><path class="cls-4" d="M115.57,201.69c-2.42.16-4.06-1.23-5.46-2.9-1.7-2-2-6.43-.58-8.67a4.86,4.86,0,0,1,1.38-1.44,8.39,8.39,0,0,1,9-.33,3.41,3.41,0,0,1,1.93,2.62,16.56,16.56,0,0,0,.57,3.33,4.88,4.88,0,0,1-.86,4.78,6.17,6.17,0,0,1-4.27,2.49C116.7,201.65,116.13,201.65,115.57,201.69Zm1.42-3.18c-.67-.6-1.35-1.16-2-1.79-1.81-1.86-1.64-3.17.54-4.58.27-.18,1,0,.73-.7-.12-.06-.22-.16-.32-.17a3.3,3.3,0,0,0-3.63,2.35,4.87,4.87,0,0,0,.54,5.09C113.91,200,115.26,199.92,117,198.51Zm2.53-4.32c-1,.44-1.86-.12-2.72-.23a.76.76,0,0,0-.64,1.2c.77,1.33,2,1.47,2.94.27A4.13,4.13,0,0,0,119.52,194.19Z"/><path class="cls-4" d="M51.38,190.29c.24-2.24.52-4.18,2.33-5.61,2.19-1.73,7.17-1.36,9,.11a6.83,6.83,0,0,1,1.76,8c-.56,1.34-1,2.94-2,3.81a5.67,5.67,0,0,1-6,1.17,7,7,0,0,1-4.61-5C51.62,191.89,51.51,191,51.38,190.29Zm4.54,1.13c.08-.33.14-.67.24-1,.84-3,.84-3,4.09-3.36,0,.9-.06,1.68-1.28,2-.78.18-1,1.28-.6,1.94a1.74,1.74,0,0,0,2.32.63A2.8,2.8,0,0,0,61.76,189c0-.93-.43-1.74-1.56-1.83-1.06-1-2.21-.69-3.29-.13a2.44,2.44,0,0,0-1.31,2.46,12.83,12.83,0,0,0,.36,1.91,21.37,21.37,0,0,0,1.2,2.72,2.31,2.31,0,0,0,2.66,1,4.88,4.88,0,0,0,3.37-3l-1.17.66c-2.18,1.28-3.2,1.2-5.12-.39C56.55,192,56.24,191.73,55.92,191.42Zm-1.55,1.69c-.19-.87-.39-1.74-.68-3C53.31,191.51,53.37,192.4,54.37,193.11Z"/><path class="cls-1" d="M78.36,69a10.93,10.93,0,0,1,2.87-4.33,7.32,7.32,0,0,1,6.18-2.12A42.7,42.7,0,0,1,93.64,64a7.4,7.4,0,0,1,4.44,4,7.39,7.39,0,0,0,3.28,3.26c1.71.94,3.24,2,3.33,4.31.11,2.54-.06,4.93-1.87,7-2.72,3.06-6.33,4.19-10.15,4.9A4.33,4.33,0,0,1,91,87.25,8.49,8.49,0,0,0,86.34,87c-5.81-.62-11.13-2.1-14-7.87a9.09,9.09,0,0,1-.56-1.23,6.13,6.13,0,0,1,3.78-8.24A24.29,24.29,0,0,1,78.36,69Zm18,.68c-1-2.65-1-2.73-2.36-3.54a13.86,13.86,0,0,0-7.47-1.88,6.59,6.59,0,0,0-4.27,1.85c-1,.88-2,1.82-1.93,3.37,1.43,1,2.86,1.94,4.15,3a5.32,5.32,0,0,1,1.95,5.45,3.58,3.58,0,0,1-2.88,3,3.54,3.54,0,0,1-3.92-2A25.46,25.46,0,0,1,78.52,75c-.31-1.16,0-2.49-.93-3.6a4.22,4.22,0,0,0-4.17,2.34c-.87,1.42-.51,2.8.21,4.18,1.39,2.71,3.25,4.89,6.28,5.82,1,.3,1.91.72,2.88,1,2.09.64,4.19,1.22,5.86-.71,3.83,1.71,4.76,1.73,8.57.21a16.73,16.73,0,0,0,2.15-1,7.68,7.68,0,0,0,3.73-5.39,5,5,0,0,0-.78-3.9,3,3,0,0,0-2.93-1.46c-.32.88-.6,1.73-.93,2.56a8.4,8.4,0,0,1-2.92,3.67,4.61,4.61,0,0,1-3.52.86,2.63,2.63,0,0,1-2.35-2.12,4.49,4.49,0,0,1,.78-3.86A9.34,9.34,0,0,1,96.39,69.66ZM80.27,72c-.47,2.67-.06,4.83,1.24,6.44A1.93,1.93,0,0,0,85,77.25a4.3,4.3,0,0,0-.3-1.64,5.5,5.5,0,0,0-1.29-1.93C82.53,72.92,81.63,72,80.27,72ZM97,72.13A5.19,5.19,0,0,0,95.42,72c-1.94.44-3,1.88-3.82,3.55A1.75,1.75,0,0,0,92,77.66a1.8,1.8,0,0,0,1.92.13C96.27,76.74,97.19,74.88,97,72.13Z"/><path class="cls-5" d="M108.75,149.26c-.27-1-.51-2-.82-2.93-2.43-7.41-4.05-15-5.94-22.58-1.41-5.69-2.89-11.38-4.66-17-1.36-4.31-3-8.51-4-12.94-.16-.76-.5-1.49-.71-2.25-.31-1.08-.57-2.16-.85-3.25a21.12,21.12,0,0,0-1.56-5.16,3.52,3.52,0,0,0-3,2.58c-2,4.93-4,9.83-5.75,14.82-1.36,3.83-2.43,7.75-3.57,11.65-2.54,8.69-6.42,16.87-9.67,25.28-.82,2.1-1.53,4.24-2.24,6.38-.28.86-.33,1.79-.66,2.62A23.83,23.83,0,0,1,64,149.14a4.93,4.93,0,0,0,.56.88,22,22,0,0,0,14.09,6.64q7.25.69,14.52,1.07a34.38,34.38,0,0,0,5.73-.28,30.36,30.36,0,0,0,5.3-1C107.92,155.36,109.89,153.31,108.75,149.26Z"/><path class="cls-6" d="M100.63,118.39q-.9-3.47-1.89-6.92c-.48.17-1,.31-1.44.49a20.42,20.42,0,0,0-3.44,1.38c-2.11,1.31-4.13,2.76-6.12,4.23-2.64,2-5.17,4-7.83,5.93s-5.3,3.47-7.86,5.33l-.4.31c-1.15,2.78-2.31,5.56-3.39,8.37-.2.5-.37,1-.55,1.5l.47.41a10.53,10.53,0,0,0,7-2.91c3.45-2.9,6.74-6,10.9-8A14.09,14.09,0,0,0,88,127.14c2-1.34,4-2.63,5.9-4C96.18,121.59,98.46,120.06,100.63,118.39Z"/><path class="cls-6" d="M105.33,137.33c-.57-2.18-1.1-4.37-1.63-6.56l-.74.43q-4.33,2.64-8.64,5.32c-4,2.51-8.07,4.95-12,7.61-3.26,2.21-6.35,4.67-9.48,7.08a5.28,5.28,0,0,0-2.08,2.61,2.25,2.25,0,0,0-.1.66,23.2,23.2,0,0,0,7.93,2.18l.55,0a13.69,13.69,0,0,0,1.28-.95A76.18,76.18,0,0,1,90.69,148c3.59-2.11,7.29-4.06,10.46-6.84A54.86,54.86,0,0,0,105.33,137.33Z"/><path class="cls-6" d="M76.41,117.46c5.61-4.56,11.27-9,16.92-13.55.8-.64,1.61-1.27,2.42-1.9-.54-1.59-1.07-3.18-1.53-4.79l-.1,0c-2.52,1.51-5.12,2.9-7.49,4.62s-4.89,3.67-7.31,5.55c-.46,1.59-.92,3.2-1.39,4.79-.53,1.82-1.13,3.62-1.76,5.4Z"/><path class="cls-6" d="M32.88,324.4c-10-.54-18.07-3.14-24.71-9.35A29.85,29.85,0,0,1,2,306.65c-.52-1-1-2.11-1.48-3.15a5.17,5.17,0,0,1-.45-3.33c.66-4.2,1-8.45,1.59-12.65a42,42,0,0,1,1.68-6.76c3-9.08,6-18.13,9.05-27.2,1.1-3.3,1.92-6.71,3.22-9.93a44,44,0,0,1,10.1-15,18.1,18.1,0,0,1,1.77-1.51c3-2.25,6.27-2,8.57.83a20,20,0,0,0,3.3,3.2A14.61,14.61,0,0,1,44,237.29a22.71,22.71,0,0,0,2,3.7c3.89,6.1,8,12,11.66,18.29a145.44,145.44,0,0,1,6.87,14.29A134,134,0,0,1,70,289.28a22.48,22.48,0,0,1,.28,13c-.72,2.4-2.33,4.57-3.72,6.73a12.11,12.11,0,0,1-4.1,4,48.74,48.74,0,0,0-5.64,4.09,16,16,0,0,1-5.07,2.76c-3.44,1.12-6.85,2.4-10.35,3.24C38.28,323.84,35,324.09,32.88,324.4Zm30-19c0-4.92.1-9.68-1-14.37a28.18,28.18,0,0,0-1.16-3.69c-1.58-4.09-3.14-8.19-4.84-12.23-1.85-4.39-4-8.65-5.76-13.09-3.64-9.31-8.66-17.87-13.94-26.29-2.47-3.93-4.75-4.2-8.11-1.07a20.41,20.41,0,0,0-5.19,8.51A106.19,106.19,0,0,0,20,254c-1.81,7.93-3.4,15.91-5.33,23.8-1.14,4.65-2.11,9.31-2.91,14-.52,3.06-1.1,6.1-1.71,9.14a5.81,5.81,0,0,1-.86,2.53c-2,2.38-1.18,4.22.87,6,.19.17.31.42.49.6,4,4.33,8.76,7.08,14.82,7.43A34.88,34.88,0,0,0,41.64,315C48.61,312,55.5,308.75,62.84,305.42Z"/><path class="cls-1" d="M62.84,305.42C55.5,308.75,48.61,312,41.64,315a34.88,34.88,0,0,1-16.31,2.48c-6.06-.35-10.81-3.1-14.82-7.43-.18-.18-.3-.43-.49-.6-2-1.73-2.85-3.57-.87-6A5.81,5.81,0,0,0,10,301c.61-3,1.19-6.08,1.71-9.14.8-4.71,1.77-9.37,2.91-14C16.56,270,18.15,262,20,254a106.19,106.19,0,0,1,2.86-10.85A20.41,20.41,0,0,1,28,234.68c3.36-3.13,5.64-2.86,8.11,1.07,5.28,8.42,10.3,17,13.94,26.29,1.74,4.44,3.91,8.7,5.76,13.09,1.7,4,3.26,8.14,4.84,12.23a28.18,28.18,0,0,1,1.16,3.69C62.94,295.74,62.86,300.5,62.84,305.42Z"/><path class="cls-7" d="M62.84,305.42c0-4.92.1-9.68-1-14.37a28.18,28.18,0,0,0-1.16-3.69c-1.58-4.09-3.14-8.19-4.84-12.23l-.25-.57a7.45,7.45,0,0,0-.32.7,19,19,0,0,1-3.66,5.9C47,286,41.76,290,35.25,291.86c-8.29,2.41-16,1.83-22.79-3.92-.25,1.31-.52,2.61-.74,3.92-.52,3.06-1.1,6.1-1.71,9.14a5.81,5.81,0,0,1-.86,2.53c-2,2.38-1.18,4.22.87,6,.19.17.31.42.49.6,4,4.33,8.76,7.08,14.82,7.43A34.88,34.88,0,0,0,41.64,315C48.61,312,55.5,308.75,62.84,305.42Z"/><path class="cls-5" d="M42.64,291.83c1.5-.75,2.94-1.61,4.46-2.33a29.77,29.77,0,0,0,10.12-8.23c.26-.31.48-.63.7-.95-.69-1.73-1.38-3.47-2.1-5.19-1.85-4.39-4-8.65-5.76-13.09a127.29,127.29,0,0,0-8.35-17c-1.11,1.2-1.36,2.75-1.79,4.2a19.71,19.71,0,0,1-11.66,13.14,68.94,68.94,0,0,1-8.8,2.85,18.69,18.69,0,0,1-2.05.43c-.89,4.08-1.79,8.16-2.78,12.21q-1.55,6.3-2.66,12.67a16.38,16.38,0,0,0,8.08,4.05A32.81,32.81,0,0,0,42.64,291.83Z"/><path class="cls-8" d="M55.42,304.49,46,305c-3.47.18-7,.15-10.42.62a87.79,87.79,0,0,0-9.42,2.14c-1.62.41-3.21,1-4.8,1.51a5.7,5.7,0,0,1-5.48-.91c-1.21-.89-1.31-1.95-.21-2.84a11.05,11.05,0,0,1,1.27-.88,58.41,58.41,0,0,1,11.9-5.58,31.63,31.63,0,0,1,12.6-1.46c2.7.26,5.41.41,8.09.77a15.5,15.5,0,0,1,4.06,1.12C56.22,300.61,56.21,300.71,55.42,304.49Z"/><path class="cls-9" d="M285.71,219.93a27.29,27.29,0,0,0,5.61,2.28,67,67,0,0,0,7.22,1.85c2.24.41,3.85,1.78,5.53,3.06a2.51,2.51,0,0,1,.33,3.4,7.54,7.54,0,0,1-3.61,3.06,26,26,0,0,1-4.57,1.42c-3.94.65-7.91,1.12-11.88,1.64-2.2.28-4.4.55-6.61.77-2,.19-3.9.33-5.85.44-2.39.14-4.78.26-7.17.34-2.66.09-5.33.12-7.92.17-.76-.59-.86-1.74-2-1.72-.61,0-.83-.57-1.12-1-.58-.88-1.2-1.73-1.69-2.43-.33-1.8-.53-3.48-.95-5.1a47.15,47.15,0,0,1-1.47-11.88,10.39,10.39,0,0,1,3.66-8,74.83,74.83,0,0,1,6.81-5.13,88.23,88.23,0,0,1,8.64-5.76,71.34,71.34,0,0,1,11.9-5.33,24.82,24.82,0,0,1,6.95-1.7,8.87,8.87,0,0,0,2.24-.73c.69.67,1.32,1.29,2,1.89,1.28,1.19,1.61,2,.84,3.48a49,49,0,0,0-2.34,4.77c-.18.44-.72.76-1.14,1.08A5.45,5.45,0,0,0,287,205.1c1.52.09,2.93.09,4.31.29s2.75.62,4,.92c1.16,3.26.95,4.53-1.45,6.52-2.12,1.76-4.39,3.33-6.63,4.93A3,3,0,0,0,285.71,219.93Zm.92-8.88a24.49,24.49,0,0,0-3.8-.3c-2,.2-1.9.24-2.78-1.44a3.47,3.47,0,0,1-.13-3.28,16.72,16.72,0,0,1,1.64-3.31,29.66,29.66,0,0,0,1.76-3,4.78,4.78,0,0,0,.24-1.07,4.64,4.64,0,0,0-1.21.07,36.84,36.84,0,0,0-4,1.63c-3.31,1.72-6.57,3.52-9.85,5.31A127.42,127.42,0,0,0,256.82,213a6.21,6.21,0,0,0-2.52,2.74,100.41,100.41,0,0,0,4.39,17.06c11.7.22,23.09-1.6,34.47-3.56.4-.07.9-.06,1.06-.81-.71-.23-1.43-.51-2.18-.69a35.84,35.84,0,0,1-8.17-3.2,11.5,11.5,0,0,1-5.05-5c.8-1,1.57-2,2.35-2.93s1.41-1.83,2.21-2.65S285.2,212.33,286.63,211.05Z"/><path class="cls-1" d="M286.63,211.05c-1.43,1.28-2.4,2-3.25,2.93s-1.49,1.76-2.21,2.65-1.55,1.92-2.35,2.93a11.5,11.5,0,0,0,5.05,5,35.84,35.84,0,0,0,8.17,3.2c.75.18,1.47.46,2.18.69-.16.75-.66.74-1.06.81-11.38,2-22.77,3.78-34.47,3.56a100.41,100.41,0,0,1-4.39-17.06,6.21,6.21,0,0,1,2.52-2.74,127.42,127.42,0,0,1,11.73-7.37c3.28-1.79,6.54-3.59,9.85-5.31a36.84,36.84,0,0,1,4-1.63,4.64,4.64,0,0,1,1.21-.07,4.78,4.78,0,0,1-.24,1.07,29.66,29.66,0,0,1-1.76,3,16.72,16.72,0,0,0-1.64,3.31,3.47,3.47,0,0,0,.13,3.28c.88,1.68.8,1.64,2.78,1.44A24.49,24.49,0,0,1,286.63,211.05Z"/><path class="cls-5" d="M272.19,203.68l-3.64,2A127.42,127.42,0,0,0,256.82,213a6.21,6.21,0,0,0-2.52,2.74,100.41,100.41,0,0,0,4.39,17.06c3.51.07,7-.06,10.45-.31a62.16,62.16,0,0,1,.44-8.29c.8-6.7,1.81-13.37,2.57-20.08C272.17,204,272.18,203.84,272.19,203.68Z"/><path class="cls-9" d="M119.53,300l-2-2.37a6.61,6.61,0,0,1,2.09-4.81c1.64-1.62,3-3.46,4.62-5.14a39.34,39.34,0,0,1,2.91-2.72,8.69,8.69,0,0,0,2-2c-.37-.84-1.05-.72-1.63-.74-1.69-.06-3.39,0-5.06-.16a9.52,9.52,0,0,1-5.81-2.37,5.92,5.92,0,0,1-1.16-1.44c-.68-1.26-.48-2,.67-3a26.73,26.73,0,0,1,9.44-5.24c.49-.15,1-.36,1.43-.54-.19-.69-.71-.71-1.09-.83-1.69-.52-3.43-.88-5.08-1.48a23.52,23.52,0,0,1-6.61-3.39,6.25,6.25,0,0,1-1.28-1.34,1.63,1.63,0,0,1,.17-2.19,5.39,5.39,0,0,1,3.8-2.12,48.85,48.85,0,0,1,9.29.24c1.24.12,2.48.22,3.72.31.44,0,1,.19,1.31,0,1.61-.9,3.07-.21,4.61.19a17.94,17.94,0,0,0,5.23.89,17.59,17.59,0,0,1,5.42.76c1.36.36,2.81.37,4.2.64,2.43.48,4.87,1,7.26,1.59,1.88.5,3.69,1.26,5.55,1.91a7.23,7.23,0,0,1,1.69,3.81c.23,1,.17,2.15,1,3a.71.71,0,0,1,.17.48c-.15,1.67-.25,3.35-.53,5a2.9,2.9,0,0,1-1,1.5,41,41,0,0,1-3.83,2.86c-3,1.92-6,3.74-9,5.63-1.65,1-3.24,2.19-4.9,3.22a32,32,0,0,1-7.84,3.27,60.07,60.07,0,0,0-12,5.18c-.7.39-1.39.8-2.11,1.15a3.36,3.36,0,0,1-3.28.3C121.37,299.81,120.57,300,119.53,300Zm16.79-29.38c-2.48.87-4.8,1.79-7.18,2.48a29.9,29.9,0,0,0-6.67,3.26c-.33.19-.79.46-.51,1a.71.71,0,0,0,.25.14c3.7.22,7.38.77,11.11.51a4.17,4.17,0,0,1,3.21,1,2.11,2.11,0,0,1,.79,2.13c-.67.53-1.58.7-1.9,1.72a13.19,13.19,0,0,1-4,5.53c-1,.91-2,1.75-2.95,2.69a19.69,19.69,0,0,0-1.69,2.06c-.07.09,0,.3,0,.57l2.19-.86a92,92,0,0,0,16-7.79,31.72,31.72,0,0,1,4.52-2.25,16,16,0,0,0,4.77-2.86,20.87,20.87,0,0,1,1.89-1.48c2.2-1.55,3.74-3.75,5.71-5.55l-1-4.5-8.75-1.5a7.09,7.09,0,0,1-1.82-.39,27.12,27.12,0,0,0-6.17-1.62,131.94,131.94,0,0,0-20.87-2.47,2.53,2.53,0,0,0-1.91.52,99.73,99.73,0,0,0,12.8,3.67c1,.19,2,.2,2.6.92A3.75,3.75,0,0,1,136.32,270.62Z"/><path class="cls-1" d="M136.32,270.62a3.75,3.75,0,0,0,.48-3.05c-.65-.72-1.64-.73-2.6-.92A99.73,99.73,0,0,1,121.4,263a2.53,2.53,0,0,1,1.91-.52,131.94,131.94,0,0,1,20.87,2.47,27.12,27.12,0,0,1,6.17,1.62,7.09,7.09,0,0,0,1.82.39l8.75,1.5,1,4.5c-2,1.8-3.51,4-5.71,5.55a20.87,20.87,0,0,0-1.89,1.48,16,16,0,0,1-4.77,2.86,31.72,31.72,0,0,0-4.52,2.25,92,92,0,0,1-16,7.79l-2.19.86c0-.27-.1-.48,0-.57a19.69,19.69,0,0,1,1.69-2.06c.94-.94,2-1.78,2.95-2.69a13.19,13.19,0,0,0,4-5.53c.32-1,1.23-1.19,1.9-1.72a2.11,2.11,0,0,0-.79-2.13,4.17,4.17,0,0,0-3.21-1c-3.73.26-7.41-.29-11.11-.51a.71.71,0,0,1-.25-.14c-.28-.55.18-.82.51-1a29.9,29.9,0,0,1,6.67-3.26C131.52,272.41,133.84,271.49,136.32,270.62Z"/><path class="cls-5" d="M143,286.33c.17-1.66.37-3.31.67-5,.36-2,.56-4.05.83-6.08l1.29-10.05-1.56-.31a131.94,131.94,0,0,0-20.87-2.47,2.53,2.53,0,0,0-1.91.52,99.73,99.73,0,0,0,12.8,3.67c1,.19,2,.2,2.6.92a3.75,3.75,0,0,1-.48,3.05c-2.48.87-4.8,1.79-7.18,2.48a29.9,29.9,0,0,0-6.67,3.26c-.33.19-.79.46-.51,1a.71.71,0,0,0,.25.14c3.7.22,7.38.77,11.11.51a4.17,4.17,0,0,1,3.21,1,2.11,2.11,0,0,1,.79,2.13c-.67.53-1.58.7-1.9,1.72a13.19,13.19,0,0,1-4,5.53c-1,.91-2,1.75-2.95,2.69a19.69,19.69,0,0,0-1.69,2.06c-.07.09,0,.3,0,.57l2.19-.86A100,100,0,0,0,143,286.33Z"/><path class="cls-9" d="M168.9,232.15c1.91-2.11,3.71-4.32,5.75-6.29,3.19-3.08,6.49-6.07,9.86-9a46.32,46.32,0,0,1,5.48-3.78c1.81-1.13,3.72-2.1,5.57-3.16a36.28,36.28,0,0,1,9.62-3.85,9,9,0,0,0,2.9-1.27,10.76,10.76,0,0,1,3.14-1.39,73,73,0,0,1,11.84-1.88c3.21-.25,6.38.36,9.55.77,2.82.37,5.53,1.28,8.35,1.67a26.45,26.45,0,0,1,6.36,1.9,13.59,13.59,0,0,1,3.15,2.42c1,.87,2,1.8,2.93,2.72a6.25,6.25,0,0,1,1.08,1.17A79.1,79.1,0,0,1,260,222a7.17,7.17,0,0,1,.42,1.26c.55,2.88,1.11,5.75,1.6,8.64a6.31,6.31,0,0,1-.08,2.12c-.47,2.62-1.05,5.22-1.48,7.85a25.78,25.78,0,0,1-4.14,9.74c-.77,1.2-1.56,2.39-2.22,3.64-1.42,2.7-3.56,4.86-5.38,7.26a9.11,9.11,0,0,0-.85,1c-1.58,2.88-4.14,4.83-6.52,7-.92.83-1.82,1.69-2.69,2.57a112.64,112.64,0,0,1-11.37,9.66c-.14.11-.29.21-.42.33-4.2,4.22-9.6,6.31-15,8.49-1.89.77-3.71,1.73-5.6,2.5a44.75,44.75,0,0,1-16.35,3.3c-1.51,0-3-.06-4.53-.17a18.55,18.55,0,0,1-6.7-1.58,13.09,13.09,0,0,0-3.33-.94,15.82,15.82,0,0,1-8.2-4.16c-2-1.88-4.21-3.6-6-5.64A23.66,23.66,0,0,1,155,271.23a14.36,14.36,0,0,1,.12-1.58,8.06,8.06,0,0,0-.06-1.84,13.85,13.85,0,0,1,0-5.29c.26-1.67.37-3.36.68-5a20.18,20.18,0,0,1,1.08-4.07,59.31,59.31,0,0,1,2.65-5.51c1-2,2.33-3.8,3.22-5.83a31.52,31.52,0,0,1,4-6.58c.82-1.06,1.67-2.08,2.5-3.12Zm70.79,27.75c1.28-2,2.62-4,3.82-6.09,1.08-1.84,2-3.76,3-5.66,2-3.92,3.45-8,3.39-12.48a12.75,12.75,0,0,1,.26-2.38c.63-3.56,0-7.1-.14-10.64a2.32,2.32,0,0,0-.21-.77,21.53,21.53,0,0,1-1.4-5.13,9.32,9.32,0,0,0-.7-2.29c-1.15-2.64-2.93-4.74-5.76-5.55q-5.9-1.68-11.88-3a20.87,20.87,0,0,0-6.61-.38c-3.29.3-6.52.91-9.75,1.5a11.35,11.35,0,0,0-2,.66c-3,1.21-5.92,2.42-8.86,3.66-1,.42-1.92.94-2.86,1.44s-2,1.09-3,1.65c-5,2.79-5.34,1.93-10.62,6.55-.47.41-1,.76-1.48,1.13a32.44,32.44,0,0,0-5.43,5.11c-2.07,2.44-4.19,4.85-6.46,7.1a22.4,22.4,0,0,0-3.88,5.37,99.43,99.43,0,0,0-6.53,16,20.08,20.08,0,0,0-1.19,8.12,36.2,36.2,0,0,0,3.39,13.35,17.43,17.43,0,0,0,9.64,8.73,62,62,0,0,0,12.34,3.31,22.7,22.7,0,0,0,9.25-.3,40.83,40.83,0,0,0,9-3.36c2.14-1.09,4.35-2,6.46-3.16,4.18-2.23,7.87-5.18,11.66-8,3.5-2.58,6.92-5.28,10.27-8.06A39.39,39.39,0,0,0,239.69,259.9Z"/><path class="cls-1" d="M239.69,259.9a39.39,39.39,0,0,1-6.39,6.45c-3.35,2.78-6.77,5.48-10.27,8.06-3.79,2.79-7.48,5.74-11.66,8-2.11,1.12-4.32,2.07-6.46,3.16a40.83,40.83,0,0,1-9,3.36,22.7,22.7,0,0,1-9.25.3,62,62,0,0,1-12.34-3.31,17.43,17.43,0,0,1-9.64-8.73,36.2,36.2,0,0,1-3.39-13.35,20.08,20.08,0,0,1,1.19-8.12,99.43,99.43,0,0,1,6.53-16,22.4,22.4,0,0,1,3.88-5.37c2.27-2.25,4.39-4.66,6.46-7.1a32.44,32.44,0,0,1,5.43-5.11c.5-.37,1-.72,1.48-1.13,5.28-4.62,5.6-3.76,10.62-6.55,1-.56,2-1.12,3-1.65s1.88-1,2.86-1.44c2.94-1.24,5.9-2.45,8.86-3.66a11.35,11.35,0,0,1,2-.66c3.23-.59,6.46-1.2,9.75-1.5a20.87,20.87,0,0,1,6.61.38q6,1.37,11.88,3c2.83.81,4.61,2.91,5.76,5.55a9.32,9.32,0,0,1,.7,2.29,21.53,21.53,0,0,0,1.4,5.13,2.32,2.32,0,0,1,.21.77c.14,3.54.77,7.08.14,10.64a12.75,12.75,0,0,0-.26,2.38c.06,4.49-1.4,8.56-3.39,12.48-1,1.9-1.91,3.82-3,5.66C242.31,255.88,241,257.88,239.69,259.9Z"/><path class="cls-5" d="M193.19,231.63q0-5.59.06-11.19c0-1.4,0-2.8,0-4.2-2.07.95-3.36,1.55-7,4.71-.47.41-1,.76-1.48,1.13a32.44,32.44,0,0,0-5.43,5.11c-2.07,2.44-4.19,4.85-6.46,7.1a22.4,22.4,0,0,0-3.88,5.37c-.54,1-1,2-1.53,3,0,1,0,2,0,2.92a63.68,63.68,0,0,0,1.17,13.78,184,184,0,0,1,3,18.66,62.32,62.32,0,0,0,1.36,7.28c.41.2.83.38,1.26.55a62,62,0,0,0,12.34,3.31,22.7,22.7,0,0,0,9.25-.3,39,39,0,0,0,4.64-1.44c-.41-1.31-.81-2.63-1.19-3.95-.54-1.87-.93-3.79-1.32-5.71-.68-3.3-1.3-6.62-2-9.92-.11-.52-.38-1-.48-1.53-.22-1.13-.39-2.27-.55-3.41-.07-.52,0-1.07-.11-1.58a105.65,105.65,0,0,1-1.74-18.27C193.2,239.27,193.18,235.45,193.19,231.63Z"/><path class="cls-5" d="M238.27,207.92c-2.72-.73-5.46-1.42-8.21-2a20.87,20.87,0,0,0-6.61-.38c-2.88.27-5.7.76-8.53,1.28a74.73,74.73,0,0,0-.42,13.13c.25,4.35.67,8.68.92,13a109.13,109.13,0,0,0,2.27,15.28,111.31,111.31,0,0,0,3,13.24,4,4,0,0,1,.09.52,68.42,68.42,0,0,0,3.07,11.8q4.8-3.58,9.41-7.42a39.39,39.39,0,0,0,6.39-6.45c1.28-2,2.62-4,3.82-6.09,1.08-1.84,2-3.76,3-5.66.31-.61.6-1.22.88-1.84l-1-2.49c-.13-.34-.3-.65-.42-1-.88-2.33-1.89-4.62-2.57-7a132.29,132.29,0,0,1-3.67-15A125.22,125.22,0,0,1,238.27,207.92Z"/><path class="cls-2" d="M280.75,133.41a6.32,6.32,0,0,0-1.65-.31c-2.26,0-4.53-.21-6.78,0a118.63,118.63,0,0,1-14.25.24,5.36,5.36,0,0,1-1.64-3.92c-.32-4.53-2.37-8.44-4.29-12.4a1.46,1.46,0,0,0-2.69,0,9.08,9.08,0,0,0-.6,1.21,57,57,0,0,1-2.77,6.16,44.22,44.22,0,0,0-3.84,9.36,8.41,8.41,0,0,1-1,1.69c-1.66.26-3.25.37-4.77.77a56.14,56.14,0,0,1-8.63,1.64c-1.8.18-3.59.49-5.36.82-1.06.2-2.23.21-3.06,1.1.18.46.21.87.43,1.06,1.55,1.31,3.1,2.61,4.71,3.85,3.58,2.75,7.2,5.45,10.79,8.19.15.12.19.4.28.6.09,2.67-.89,5.09-1.77,7.54s-1.85,4.87-2.47,7.39-2.32,4.6-2.26,7.23c1.19.42,1.64-.35,2.15-.91A125,125,0,0,1,243.6,163a48.82,48.82,0,0,1,7.46-4.9c1.33,1.6,2.6,3,3.76,4.53a40,40,0,0,0,8.86,8.8,15.42,15.42,0,0,0,1.54.8A4.93,4.93,0,0,0,266,171a28.91,28.91,0,0,0,.73-5.35c-.06-4.18-.37-8.35-.59-12.52-.05-1-.1-2-.18-3.05a4.34,4.34,0,0,1,1.85-4.09c3.57-2.76,6.64-6.13,10.56-8.47a17,17,0,0,0,2.81-2.44A1,1,0,0,0,280.75,133.41Z"/><path class="cls-2" d="M348.48,106.67c-3.15-.89-6.29-1.82-9.47-2.59a4.52,4.52,0,0,1-3.08-2.4,16.06,16.06,0,0,1-1.05-2.12c-1-2.64-2-5.28-2.88-8-.35-1-.76-1.87-1.9-2-1.7.52-2.5,1.79-3.21,3.27-1.65,3.46-3.46,6.86-5.15,10.3a3.16,3.16,0,0,1-3.17,2,9,9,0,0,0-3,.37,22.12,22.12,0,0,1-6.64,1.16,3.25,3.25,0,0,0-2.8,1.22c2.54,3.17,6.86,3.54,9.53,6.46-.31,1.79-.6,3.57-.91,5.33s-.75,3.77-1,5.67c-.2,1.73-1.5,3.36-.56,5.27a3.14,3.14,0,0,0,1-.12c1.3-.69,2.61-1.37,3.83-2.18,2.72-1.81,5.39-3.71,8.11-5.54,1.53-1,1.9-1,3.32,0,1.9,1.42,3.72,3,5.62,4.36a26.14,26.14,0,0,0,5.28,3.3c1.25-1.16,1.06-2.42.82-3.64-.4-2.1-.87-4.2-1.37-6.28-.39-1.63-.87-3.24-1.36-5.07,2-1.22,3.69-2.76,5.77-3.7S348.13,110,350,109c.37-.2.52-.84.88-1.44C349.94,107.19,349.23,106.88,348.48,106.67Z"/><path class="cls-10" d="M428.09,277.29l-2.43,2.41c-1,.95-1.93,1.91-2.91,2.84-2.78,2.65-6.2,2.72-9.55,1.85a9,9,0,0,1-4.58-3.33c-.77-1-1.5-2-2.3-2.94-.5-.57-1.1-1.05-1.76-1.67-.67.67-1.26,1.18-1.76,1.77a49.32,49.32,0,0,1-10.75,9.26,9.31,9.31,0,0,1-7.1,1.45c-1.66-.3-3.34-.49-5.27-.76a8.09,8.09,0,0,1-2.94-4.13,50.12,50.12,0,0,1-3.67-19.19,15.63,15.63,0,0,0-1.57-7.19,16.77,16.77,0,0,1-1.24-3.15,7.65,7.65,0,0,0-4.31-4.95,30.89,30.89,0,0,1-9.35-7.17c-2.9-3.16-6.12-6-9-9.19-3.35-3.67-6.51-7.51-9.72-11.31a39,39,0,0,1-8.06-17.31,64.28,64.28,0,0,1-1.3-13.79c0-6.72,1.44-13.24,2.1-19.86,1.84-5.43,2.88-11.14,6.3-16,2.6-3.68,4.8-7.65,7.18-11.49a2.71,2.71,0,0,1,2.71-1.64c.89.1,1.29-.73,1.83-1.32a65.88,65.88,0,0,1,10.84-9.17,37.37,37.37,0,0,1,13.4-5.52,69.15,69.15,0,0,0,8.1-2.42,27.22,27.22,0,0,1,9.27-1.71c2.83,0,5.65-.22,8.47-.39,7.45-.43,14.9.06,22.36,0a9.77,9.77,0,0,1,2,.15c6.54,1.3,13.12,2.36,19.56,4.09,7.19,1.93,13.6,5.48,19.81,9.44a30.35,30.35,0,0,1,7,5.37,36.17,36.17,0,0,1,4.84,6.49c1.18,2.18,2.56,4.26,3.85,6.38a11.82,11.82,0,0,1,.85,1.46c2.55,6.15,5.26,12.26,6.13,19,.56,4.26,1.38,8.49,1.63,12.77.32,5.73.72,11.51-.91,17.19a27,27,0,0,0-.7,4.68,18,18,0,0,1-2.32,7.37,36,36,0,0,0-1.84,4c-1.49,3.42-2.84,6.9-4.46,10.24a37.55,37.55,0,0,1-5.47,8.53c-1.49,1.7-3.12,3.28-4.46,5.08a88.14,88.14,0,0,0-6.46,9.53,56.92,56.92,0,0,0-3.39,8.83c-.54,1.6-.85,3.28-1.24,4.92-.44,1.86-1.07,3.66-.8,5.66a5.78,5.78,0,0,1-1.36,4.43c-.63.79-1.24,1.61-1.85,2.42-3.19,4.22-7.43,5.33-12.56,4.88a11.94,11.94,0,0,1-9.49-5.67,7.68,7.68,0,0,0-.64-.77A4.28,4.28,0,0,0,428.09,277.29Zm-12,3.67,1.86-2a12.35,12.35,0,0,1,2.07-2.19,45.51,45.51,0,0,1,6.19-3.5,6.32,6.32,0,0,1,6.15.6,20.2,20.2,0,0,1,2.23,1.5,9.67,9.67,0,0,1,1.55,1.71c.33.45.47,1,.77,1.51a1.81,1.81,0,0,0,2.61.75,18.6,18.6,0,0,0,5.21-4.26,5.71,5.71,0,0,0,1.42-3.72,21.73,21.73,0,0,1,1.55-8.61,104.5,104.5,0,0,1,5.06-11.82c2-3.79,4.34-7.45,8-9.95a7.58,7.58,0,0,0,2.67-3.43,41.6,41.6,0,0,1,4.67-7.45,26.63,26.63,0,0,0,3.15-5.19c1.39-3.45,2.51-7,3.63-10.57a33.32,33.32,0,0,0,1.34-11.74c-.1-2.14-.49-4.26-.57-6.4-.11-3.16-.1-6.32-.09-9.49a12.8,12.8,0,0,0-.48-4.34c-.79-2.35-1.39-4.76-2-7.16-1.56-5.78-3.14-11.55-4.64-17.35a34.59,34.59,0,0,0-7.36-14.33,23.16,23.16,0,0,0-7.66-6,50.7,50.7,0,0,1-7.37-4.15,36.85,36.85,0,0,0-10.73-4.91c-1.3-.4-2.61-.76-3.91-1.14A51.21,51.21,0,0,0,416,125.4a15.33,15.33,0,0,1-4.65-.57,21.31,21.31,0,0,0-8.4-.69,92.71,92.71,0,0,0-14,2.27,78,78,0,0,1-8.25,1.85c-10.32,1.56-18.91,6.56-26.65,13.24a14.54,14.54,0,0,0-2.57,3.11c-2.21,3.42-4.33,6.89-6.49,10.34a42.66,42.66,0,0,0-6.4,20.51,154.23,154.23,0,0,0,.12,23,44.43,44.43,0,0,0,3.93,15.36c1.52,3.15,2.91,6.36,4.51,9.47a28.26,28.26,0,0,0,3.7,6A94.64,94.64,0,0,0,361.74,240c1.67,1.34,3.19,2.87,4.82,4.27s3.13,3.25,5.29,4.18a2.81,2.81,0,0,1,1.23,1.52c1.22,3.15,2.54,6.28,3.49,9.51a91.45,91.45,0,0,1,3.2,18,9.84,9.84,0,0,0,2.24,5.93c2.1,2.35,4.14,2.42,6.29,1,.38-.26.73-.55,1.12-.78,4.86-2.87,8.14-7.46,12.15-11.26a1.42,1.42,0,0,0,.39-.55,4.35,4.35,0,0,1,2.81-2.56l1.43.27a4.76,4.76,0,0,1,3.88,3.32c1.08,2.86,3.29,5.06,5.06,7.51C415.26,280.47,415.5,280.55,416.11,281Z"/><path class="cls-1" d="M416.11,281c-.61-.41-.85-.49-1-.66-1.77-2.45-4-4.65-5.06-7.51a4.76,4.76,0,0,0-3.88-3.32l-1.43-.27a4.35,4.35,0,0,0-2.81,2.56,1.42,1.42,0,0,1-.39.55c-4,3.8-7.29,8.39-12.15,11.26-.39.23-.74.52-1.12.78-2.15,1.46-4.19,1.39-6.29-1a9.84,9.84,0,0,1-2.24-5.93,91.45,91.45,0,0,0-3.2-18c-.95-3.23-2.27-6.36-3.49-9.51a2.81,2.81,0,0,0-1.23-1.52c-2.16-.93-3.59-2.71-5.29-4.18s-3.15-2.93-4.82-4.27a94.64,94.64,0,0,1-10.95-10.61,28.26,28.26,0,0,1-3.7-6c-1.6-3.11-3-6.32-4.51-9.47a44.43,44.43,0,0,1-3.93-15.36,154.23,154.23,0,0,1-.12-23,42.66,42.66,0,0,1,6.4-20.51c2.16-3.45,4.28-6.92,6.49-10.34A14.54,14.54,0,0,1,354,141.5c7.74-6.68,16.33-11.68,26.65-13.24a78,78,0,0,0,8.25-1.85,92.71,92.71,0,0,1,14-2.27,21.31,21.31,0,0,1,8.4.69,15.33,15.33,0,0,0,4.65.57,51.21,51.21,0,0,1,15.41,1.92c1.3.38,2.61.74,3.91,1.14A36.85,36.85,0,0,1,446,133.37a50.7,50.7,0,0,0,7.37,4.15,23.16,23.16,0,0,1,7.66,6,34.59,34.59,0,0,1,7.36,14.33c1.5,5.8,3.08,11.57,4.64,17.35.65,2.4,1.25,4.81,2,7.16a12.8,12.8,0,0,1,.48,4.34c0,3.17,0,6.33.09,9.49.08,2.14.47,4.26.57,6.4a33.32,33.32,0,0,1-1.34,11.74c-1.12,3.55-2.24,7.12-3.63,10.57a26.63,26.63,0,0,1-3.15,5.19,41.6,41.6,0,0,0-4.67,7.45,7.58,7.58,0,0,1-2.67,3.43c-3.66,2.5-6,6.16-8,9.95a104.5,104.5,0,0,0-5.06,11.82,21.73,21.73,0,0,0-1.55,8.61,5.71,5.71,0,0,1-1.42,3.72,18.6,18.6,0,0,1-5.21,4.26,1.81,1.81,0,0,1-2.61-.75c-.3-.48-.44-1.06-.77-1.51a9.67,9.67,0,0,0-1.55-1.71,20.2,20.2,0,0,0-2.23-1.5,6.32,6.32,0,0,0-6.15-.6,45.51,45.51,0,0,0-6.19,3.5,12.35,12.35,0,0,0-2.07,2.19Z"/><path class="cls-3" d="M463.78,130.44a89.85,89.85,0,0,0,11.87,4.38,4.06,4.06,0,0,1,.78,3.73,5.46,5.46,0,0,1-2.59,3.42,3.31,3.31,0,0,1-3.53.16,2.8,2.8,0,0,1-.3-.15c-5.69-3.6-12.05-5.73-18.3-8-7.63-2.77-15.12-6-23-8.09A80.89,80.89,0,0,1,415,121c-2.06-1-2.32-1.43-1.89-3.68.23-1.22.53-2.43.82-3.64a8,8,0,0,1,.45-1c2.43-.21,4.5,1.14,6.74,1.69s3.87,2.3,6.4,2.5a47,47,0,0,0,1-4.68c.72-7.22,2.68-14.19,4.39-21.2.46-1.86,1.29-3.63,1.73-5.49.71-3,1.22-6,1.85-9,.19-.87.49-1.72.71-2.49a6,6,0,0,1,4.15,0c11.53,2.87,23,6,33.63,11.4,1.61.82,3.3,1.49,4.94,2.26a10.13,10.13,0,0,1,1.75,1,3.1,3.1,0,0,1,1.22,3.87,15.44,15.44,0,0,1-.77,1.88q-2.28,4.55-4.6,9.06c-1.75,3.42-3.49,6.84-5.25,10.26-.93,1.8-1.89,3.59-2.85,5.38-1.54,2.89-3.13,5.76-4.64,8.66A23.06,23.06,0,0,0,463.78,130.44Zm1.94-8.78a46.45,46.45,0,0,0,5.19-9c.56-1.35,1.22-2.66,1.87-4,2.3-4.65,5.08-9,7-13.87,1.62-4,1.69-4.22-2.29-6.17-8.21-4-16.5-7.88-25.49-9.94-3.62-.84-7.22-1.78-10.85-2.61-2.25-.51-2.74-.19-3.33,2.11-.72,2.84-1.35,5.71-2.09,8.54-1.28,4.91-2.66,9.79-3.91,14.71a15.41,15.41,0,0,0-.65,6.28,3.57,3.57,0,0,0,.85.71C443.18,112.83,454.31,117.19,465.72,121.66Zm-1.23,2c-1.77-.88-3.41-1.85-5.16-2.52q-12.3-4.73-24.65-9.29a10.12,10.12,0,0,0-4-.92,11.5,11.5,0,0,0-.61,7.46c10.51,3.5,20.54,8.42,31.39,11.21A15,15,0,0,0,464.49,123.7ZM415,118.07a31.54,31.54,0,0,0,10.42,4.86c9.48,2.67,18.58,6.41,27.79,9.8,5.93,2.18,12,4.05,17.42,7.47,1.29.82,2,.56,2.79-.77a12.54,12.54,0,0,0,.79-2.25,17.64,17.64,0,0,0-2.45-1.43q-8.12-3-16.24-5.91c-2.66-1-5.34-1.86-8-2.85-2.86-1.08-5.67-2.28-8.52-3.35-5.82-2.18-11.72-4.15-17.2-7.15-1.83-1-3.91-.7-5.94-.85Z"/><path class="cls-2" d="M465.72,121.66c-11.41-4.47-22.54-8.83-33.66-13.21a3.57,3.57,0,0,1-.85-.71,15.41,15.41,0,0,1,.65-6.28c1.25-4.92,2.63-9.8,3.91-14.71.74-2.83,1.37-5.7,2.09-8.54.59-2.3,1.08-2.62,3.33-2.11,3.63.83,7.23,1.77,10.85,2.61,9,2.06,17.28,5.91,25.49,9.94,4,1.95,3.91,2.17,2.29,6.17-2,4.82-4.74,9.22-7,13.87-.65,1.31-1.31,2.62-1.87,4A46.45,46.45,0,0,1,465.72,121.66Z"/><path class="cls-2" d="M464.49,123.7a15,15,0,0,1-3,5.94c-10.85-2.79-20.88-7.71-31.39-11.21a11.5,11.5,0,0,1,.61-7.46,10.12,10.12,0,0,1,4,.92q12.35,4.58,24.65,9.29C461.08,121.85,462.72,122.82,464.49,123.7Z"/><path class="cls-2" d="M415,118.07l.88-2.43c2,.15,4.11-.16,5.94.85,5.48,3,11.38,5,17.2,7.15,2.85,1.07,5.66,2.27,8.52,3.35,2.64,1,5.32,1.89,8,2.85q8.12,2.92,16.24,5.91a17.64,17.64,0,0,1,2.45,1.43,12.54,12.54,0,0,1-.79,2.25c-.77,1.33-1.5,1.59-2.79.77-5.41-3.42-11.49-5.29-17.42-7.47-9.21-3.39-18.31-7.13-27.79-9.8A31.54,31.54,0,0,1,415,118.07Z"/><path class="cls-4" d="M369.7,213.09a7.68,7.68,0,0,1-2.78,6.25,30,30,0,0,1-5,3.41,8.58,8.58,0,0,1-10.26-1.69,12.6,12.6,0,0,1-3.57-11.79c.62-3.25,3.06-4.94,5.8-6.11a10.19,10.19,0,0,1,10.81,1.54,13,13,0,0,1,3.53,3.59A9.12,9.12,0,0,1,369.7,213.09ZM360.15,210l-.45.69a3.49,3.49,0,0,1,2.38,3.09,2.82,2.82,0,0,1-1.18,2.95A2.73,2.73,0,0,1,358,217c-1.86-.78-2.62-2.4-3.11-4.17a3.25,3.25,0,0,1,2.24-4.28,8.44,8.44,0,0,1,2.65-.36c1.06,0,2.12.17,3.28.27-1.86-2.2-3.1-2.81-5.5-2.77a5.06,5.06,0,0,0-5.26,3.9c-.73,2.34,0,7,3.27,8.93a6.79,6.79,0,0,0,3.47,1.14,4.52,4.52,0,0,0,4.58-3.28,5.13,5.13,0,0,0-2-5.94A6,6,0,0,0,360.15,210Zm-3,3.45A3.07,3.07,0,0,0,359,215.5a1,1,0,0,0,.91-.18,1.57,1.57,0,0,0,.35-1.86,1.32,1.32,0,0,0-1.63-.85A7,7,0,0,0,357.19,213.41Zm8.92-4.11,1.51,4.87C368.09,211.93,367.77,210.36,366.11,209.3Zm-11.54,11c0,.06-.16.36-.12.38a5.36,5.36,0,0,0,4.66.9Zm-3.95-5.54-.66-3.7C349.75,212.3,349.27,213.53,350.62,214.81Z"/><path class="cls-4" d="M459.57,225.46A7.47,7.47,0,0,1,454,223.3c-1.2-1.18-2.53-2.25-3.62-3.53a10.17,10.17,0,0,1,2-14.88,20.89,20.89,0,0,1,5.42-2.67c4.62-1.51,8.26.2,11.24,3.45A10.4,10.4,0,0,1,471.17,217a13.49,13.49,0,0,1-8.28,7.93A16.43,16.43,0,0,1,459.57,225.46Zm-9.31-14c-.43,3.44.22,5.76,2.06,7.65a41.71,41.71,0,0,0,3.78,3.37,5.79,5.79,0,0,0,3.82,1.14c5.95,0,10.14-5.6,10.47-9.77a9.77,9.77,0,0,0-8.33-10.29c-3.3-.43-6.78,1.1-8.09,3.76-2.06,4.17-1.79,9.13,3,12.54a5.24,5.24,0,0,0,7.39-1.5,9.66,9.66,0,0,0,1.22-4.17c.47-3.57-3.62-6.32-6.41-5.65A3.3,3.3,0,0,0,458,209a4.29,4.29,0,0,0-1.64,3.88,3.94,3.94,0,0,0,2.38,3.45,2.36,2.36,0,0,0,3.44-1.63,1.29,1.29,0,0,0-1.35-1.79c-.62,0-1.23.67-1.87,0a1.83,1.83,0,0,1,1-2.23c.82-.49,1.54-.06,2.19.39,2.15,1.46,2.44,2.94,1,5.16a7,7,0,0,1-1.08,1.29,2.8,2.8,0,0,1-3.13.66c-.52-.2-1-.52-1.52-.74-3.94-1.72-3.46-7.66-1.16-9.56a6,6,0,0,1,2.33-1.28c2.91-.71,7.34,1.8,8.14,4.71a10.1,10.1,0,0,1-.4,7,7,7,0,0,1-10.24,3,10.6,10.6,0,0,1-4.91-6.61C451,213.91,450.71,213.08,450.26,211.49Z"/><path class="cls-2" d="M449.68,232.26a11.1,11.1,0,0,0-5.14-1.52,60.35,60.35,0,0,1-7.53-.33,38.88,38.88,0,0,0-1.52-3.84,3.62,3.62,0,0,0-1.5-1.2c-.2-.11-.59.12-1,.22-.49,1.61.11,3.46-1.17,4.91a25.68,25.68,0,0,1-7.82-.1,26.91,26.91,0,0,0-.77-3c-.17-.45-.71-1.05-1.08-1.05a3.62,3.62,0,0,0-1.78.73c-.21.14-.21.61-.32.93l-.88,2.64c-2.83,0-5.53,0-8.23,0a1.62,1.62,0,0,1-1.65-1.41,22.68,22.68,0,0,0-.81-2.93,1.76,1.76,0,0,0-2.29-1.15c-.25,1.73-.49,3.48-.76,5.36a17.21,17.21,0,0,1-9,.53,11.19,11.19,0,0,1-.57-1.4c-.28-1.09-.46-2.22-.76-3.3-.36-1.25-.94-1.48-2.33-1a6,6,0,0,0-1,.61c-.6,1.74-.19,3.54-1.22,5.25-1,.06-2.15.22-3.26.18-4.61-.17-4.08.3-5.11-4a4.24,4.24,0,0,0-.83-1.81,2,2,0,0,0-1.49-.49c-.3,0-.74.57-.8.93-.17,1-.14,2-.25,3-.08.75-.25,1.5-.36,2.13-1.57.68-3.39,0-4.61,1.7a11.26,11.26,0,0,0,2.25,2.47,9.87,9.87,0,0,0,3.08.69c.89,3.08.89,3.08,2.51,4.16,2.62-.84,1.64-3.43,2.49-5.22a19,19,0,0,1,7,.11c.52,1.4.93,2.69,1.47,3.93a1.37,1.37,0,0,0,2.46.22,10.14,10.14,0,0,0,.85-1.83c.33-.81.62-1.63.93-2.48,2.95-.08,5.74-.3,8.49.51.19.66.32,1.21.51,1.74a13.79,13.79,0,0,0,.93,2.16,1.41,1.41,0,0,0,2.32.09,6,6,0,0,0,1-1.76c.32-1,.49-2,.74-3,2.87-.8,5.59-.21,8.31.41.91,1.48.9,3.42,2.57,4.31,1.47-1,1.47-1,2.8-3.75a13.87,13.87,0,0,1,7.48,0c.91,1.1,1.07,2.71,2.91,3.07l2.35-3.43c.91-.07,1.7-.19,2.48-.17,2.14.05,4.28.17,6.43.26a4.31,4.31,0,0,0,3.71-1.25A1.16,1.16,0,0,0,449.68,232.26Z"/><path class="cls-2" d="M379.1,201.07a15.53,15.53,0,0,0,2.92-3.7,39,39,0,0,0,4.05-11.44,25.5,25.5,0,0,0,.07-11.1,13.71,13.71,0,0,0-2.61-5.45,3.78,3.78,0,0,0-3.21-1.6,9.24,9.24,0,0,0-3.22.84,12.7,12.7,0,0,0-5.7,5.62,31.75,31.75,0,0,0-3.54,14.36,57.28,57.28,0,0,0,.82,6.7,15.24,15.24,0,0,0,2.08,4.95C372.86,203.45,376.35,203.75,379.1,201.07Z"/><path class="cls-2" d="M438,199a3.89,3.89,0,0,0,4,1.35,7.48,7.48,0,0,0,4.14-2.16,20.06,20.06,0,0,0,4.05-6.21,40,40,0,0,0,2.55-20.29,18.22,18.22,0,0,0-1.44-4.49,4.38,4.38,0,0,0-3.72-2.56c-3.95-.65-6.87,1.43-8.76,4.53a29,29,0,0,0-4.12,16.24c.41,3.14.84,6.27,1.23,9.41A8.17,8.17,0,0,0,438,199Z"/><path class="cls-2" d="M407.83,203.6c3.25-.09,6.49-.32,9.94-.5a6.67,6.67,0,0,0,.55-1.72,6.6,6.6,0,0,0-1.14-3.84,34.18,34.18,0,0,1-3.59-6.89,2.75,2.75,0,0,0-2.23-1.78,6.35,6.35,0,0,0-3.15,3.78c-1.24,3.37-2.61,6.7-4,10.33C405.36,203.88,406.65,203.63,407.83,203.6Z"/><path class="cls-11" d="M615.25,26.52c.48.2,1.08.44,1.68.7,1.14.48,2.32.89,3.41,1.47,3.59,1.92,4.75,5.93,3.74,9.62a7.73,7.73,0,0,1-6.38,5.35c-2,.19-5.36-1.51-6.16-3.47a41.23,41.23,0,0,1-1.5-5.52c-.18-.72-.24-1.47-.4-2.56-.63.47-1,.64-1.27,1a10.76,10.76,0,0,0-1.44,10.59,23.34,23.34,0,0,0,8,10.61,1.87,1.87,0,0,1-1.24,2.24c-3.51,1.21-6.14.62-8.34-1.83a28.16,28.16,0,0,1-4.73-7.38,11.08,11.08,0,0,1-.79-6.3c.2-1.33.5-2.66.83-4,1.15-4.5,4.33-7.25,8.14-9.45a9.71,9.71,0,0,1,.94-.38,7.12,7.12,0,0,0,.74-.46c.29-.54.68-1.22,1-1.92A21.54,21.54,0,0,1,622.25,15a3.38,3.38,0,0,1,1.6-.47,2.06,2.06,0,0,1,1.31.86c.34.54-.06,1.08-.57,1.39a10,10,0,0,1-1,.3c-4.21,1.66-7.21,4.49-8.5,8.93C615.09,26.09,615.17,26.2,615.25,26.52ZM621,37.27c.11-3.39-2-6-5.57-7.33A1.24,1.24,0,0,0,613.68,31a9.76,9.76,0,0,0,2.07,6.88A4.17,4.17,0,0,0,619,39.49a1.63,1.63,0,0,0,1.93-1.4C620.94,37.76,621,37.42,621,37.27Z"/><path class="cls-1" d="M638,202.9c-8.21-.53-16.12.19-24-.43a128.28,128.28,0,0,1-22.41-3.34c-1.09-.28-2.22-.43-3.33-.62a33.38,33.38,0,0,1-10.54-3.58,3.74,3.74,0,0,0-1.19-.61c-1.86-.23-3.33-1.34-4.95-2.1a93.84,93.84,0,0,1-9.74-4.69c-4-2.46-8.25-4.72-11.47-8.27a154.08,154.08,0,0,1-12.46-15.17c-4.31-6.13-6.11-13-7.38-20.13-1-5.72-.71-11.43-.46-17.19.22-4.76,1.05-9.42,1.55-14.13.34-3.21,1.73-6.08,3.15-8.9A148.8,148.8,0,0,1,544,88a41.78,41.78,0,0,1,5.68-6.71c4.69-4.59,10.08-8.36,15.19-12.45a8.56,8.56,0,0,1,2-1.22c3.86-1.58,7.55-3.53,11.57-4.79a114.1,114.1,0,0,1,12.81-3.18c2-.38,3.92-1.06,5.91-1.48s4-.7,6-1a3.46,3.46,0,0,1,1.68-.07c1.44.59,2.9.05,4.3.19,3.46.32,6.68-.73,10-1.22a36.61,36.61,0,0,1,8.1-.4c3.72.29,7.45.41,11.16.67,4.16.29,8.32.66,12.49,1a18.32,18.32,0,0,1,9.2,3.07,7.3,7.3,0,0,0,2.79,1.16c3.1.58,5.65,2.22,8.16,4,1.95,1.36,3.81,2.84,5.79,4.14a37.85,37.85,0,0,1,11.87,12.82,40.67,40.67,0,0,1,4.21,8.86,6.52,6.52,0,0,0,.51,1.26c3.95,7.46,6.13,15.53,8.19,23.64a34.74,34.74,0,0,1,.82,7.4c.11,2.93.34,5.86.46,8.79a28.84,28.84,0,0,1,0,4.74c-.48,3.8-1.13,7.59-1.7,11.39a21.29,21.29,0,0,1-1.86,5.79,38.28,38.28,0,0,0-2.12,5.34A22.26,22.26,0,0,1,690.32,170a18.5,18.5,0,0,0-3,3.23c-1.22,1.76-2.47,3.5-3.83,5.15-1.8,2.17-3.73,4.23-5.59,6.35a35.66,35.66,0,0,1-9.81,7.72c-3.67,2-7.39,3.91-11.13,5.77a12.6,12.6,0,0,1-3.84,1.28A57.24,57.24,0,0,0,643,202.12,12.15,12.15,0,0,1,638,202.9Z"/><path class="cls-6" d="M635,199.9c-8.21-.53-16.12.19-24-.43a128.28,128.28,0,0,1-22.41-3.34c-1.09-.28-2.22-.43-3.33-.62a33.38,33.38,0,0,1-10.54-3.58,3.74,3.74,0,0,0-1.19-.61c-1.86-.23-3.33-1.34-4.95-2.1a93.84,93.84,0,0,1-9.74-4.69c-4-2.46-8.25-4.72-11.47-8.27a154.08,154.08,0,0,1-12.46-15.17c-4.31-6.13-6.11-13-7.38-20.13-1-5.72-.71-11.43-.46-17.19.22-4.76,1.05-9.42,1.55-14.13.34-3.21,1.73-6.08,3.15-8.9A148.8,148.8,0,0,1,541,85a41.78,41.78,0,0,1,5.68-6.71c4.69-4.59,10.08-8.36,15.19-12.45a8.56,8.56,0,0,1,2-1.22c3.86-1.58,7.55-3.53,11.57-4.79a114.1,114.1,0,0,1,12.81-3.18c2-.38,3.92-1.06,5.91-1.48s4-.7,6-1a3.46,3.46,0,0,1,1.68-.07c1.44.59,2.9.05,4.3.19,3.46.32,6.68-.73,10-1.22a36.61,36.61,0,0,1,8.1-.4c3.72.29,7.45.41,11.16.67,4.16.29,8.32.66,12.49,1a18.32,18.32,0,0,1,9.2,3.07,7.3,7.3,0,0,0,2.79,1.16c3.1.58,5.65,2.22,8.16,4,1.95,1.36,3.81,2.84,5.79,4.14a37.85,37.85,0,0,1,11.87,12.82,40.67,40.67,0,0,1,4.21,8.86,6.52,6.52,0,0,0,.51,1.26c3.95,7.46,6.13,15.53,8.19,23.64a34.74,34.74,0,0,1,.82,7.4c.11,2.93.34,5.86.46,8.79a28.84,28.84,0,0,1,0,4.74c-.48,3.8-1.13,7.59-1.7,11.39a21.29,21.29,0,0,1-1.86,5.79,38.28,38.28,0,0,0-2.12,5.34A22.26,22.26,0,0,1,687.32,167a18.5,18.5,0,0,0-3,3.23c-1.22,1.76-2.47,3.5-3.83,5.15-1.8,2.17-3.73,4.23-5.59,6.35a35.66,35.66,0,0,1-9.81,7.72c-3.67,2-7.39,3.91-11.13,5.77a12.6,12.6,0,0,1-3.84,1.28A57.24,57.24,0,0,0,640,199.12,12.15,12.15,0,0,1,635,199.9ZM607.76,59.36a11.19,11.19,0,0,0-3.42,5.45,129.21,129.21,0,0,0-5.16,18.93c-.58,3.33-.92,6.71-1.32,10.07-.53,4.48-1.26,9-1.47,13.45a136,136,0,0,0,.14,14.56c.39,6.42,1.3,12.8,1.62,19.22.37,7.26,2,14.3,3.29,21.4.67,3.65,1.82,7.22,2.78,10.81.67,2.51,1.35,5,2.09,7.5a63.81,63.81,0,0,0,2.13,6.39c.95,2.27,2.17,4.43,3.43,6.94,2.28.82,5,.57,7.68,1a4.76,4.76,0,0,0,1.54-.23A99,99,0,0,1,624.51,182c1.24-3.85,2.88-7.61,2.94-11.77a35.71,35.71,0,0,1,.32-3.71,68.53,68.53,0,0,1,.93-7.73,120,120,0,0,0,2.48-13.29c.83-7.32,1.29-14.61-.06-21.92a19.09,19.09,0,0,1-.3-2,153.49,153.49,0,0,0-4-22.32c-.67-2.85-1.67-5.63-2.58-8.41q-1.49-4.51-3.1-9a71.89,71.89,0,0,0-7.85-15.71C611.69,63.73,609.63,61.63,607.76,59.36ZM589.47,62a22.55,22.55,0,0,0-9.93,1.9,92.73,92.73,0,0,0-11.31,5.37,51.71,51.71,0,0,0-7.55,5.13c-2.29,2-4.56,4-6.85,6.06A36.79,36.79,0,0,0,545,91.5c-2.6,5.14-4.94,10.41-7.38,15.63a31.93,31.93,0,0,0-3,12.44c-.15,5-.09,10,0,14.92a34.58,34.58,0,0,0,.89,6.71c.93,4.07,1.76,8.18,3.5,12a8,8,0,0,1,.71,2.26c.29,2.31,1.51,4.21,2.46,6.26,1.26,2.73,3.31,4.82,5.08,7.14a44.17,44.17,0,0,0,15.19,12.19,91.51,91.51,0,0,0,11.42,5.05c.16,0,.4-.13.7-.23.09-1.21-.86-2-1.3-3-.78-1.75-1.94-3.41-2.32-5.24a32.32,32.32,0,0,0-2.58-7.32,34,34,0,0,1-1.83-4.73c-.93-3.14-1.9-6.28-2.54-9.49-.85-4.31-1.48-8.67-2-13-.25-1.9-.13-3.81-1.18-5.57a5,5,0,0,1-.38-2.31c0-1.47,0-2.94.06-4.41q.62-12.2,2.22-24.31a47,47,0,0,1,2.1-9.23,71.87,71.87,0,0,1,6.9-13.57A84.61,84.61,0,0,1,585.8,65.94C586.93,64.87,587.92,63.65,589.47,62ZM628.09,58c6.35,3.17,11.63,7.72,17.59,11.13,2.42,1.39,4.41,3.5,6.67,5.19a23.26,23.26,0,0,1,5.09,5.39,19.12,19.12,0,0,0,1.4,1.91A29.47,29.47,0,0,1,664,90a58.89,58.89,0,0,1,4.91,27.43,51.27,51.27,0,0,0,.4,8.76,65.66,65.66,0,0,1,.13,15.22c-.8,6.27-1.55,12.56-2.6,18.8a36.41,36.41,0,0,1-4.65,13c-1.52,2.51-3,5-4.59,7.52-1.44,2.3-3,4.55-4.41,6.84-.25.41-.89.81-.29,1.47a4,4,0,0,0,1-.11,19.67,19.67,0,0,0,7.43-4.58,53.59,53.59,0,0,1,4.16-4,45.2,45.2,0,0,0,9.71-9.37c.26-.37.66-.63.94-1,1-1.22,2-2.43,3-3.7a11.9,11.9,0,0,0,2.51-6.19,9.28,9.28,0,0,1,.89-2.87,84.82,84.82,0,0,0,5.13-14,125,125,0,0,0,2.9-17.71,66.17,66.17,0,0,0,0-8.45c-.06-1.69-.52-3.35-.67-5A49.22,49.22,0,0,0,687,101a5.2,5.2,0,0,0-.75-1.51,9,9,0,0,1-2.1-5.24,3.65,3.65,0,0,0-.71-1.51c-1.52-2.63-3-5.28-4.61-7.88s-3.24-4.89-4.75-7.41a18,18,0,0,0-6.46-6.32c-2.81-1.67-5.53-3.49-8.27-5.28a16,16,0,0,0-4.86-2.33,15.8,15.8,0,0,1-5.5-2.56,5.65,5.65,0,0,0-2.45-1c-4.93-.62-9.87-1.16-14.81-1.7C630.55,58.09,629.31,58.1,628.09,58Zm-9.79,3.4a48.72,48.72,0,0,0,3.14,5A67.11,67.11,0,0,1,629,80.07a114.13,114.13,0,0,1,4.31,12.12c2.42,8.7,4.94,17.39,6.26,26.35A112.21,112.21,0,0,1,641,134.39c0,3.28,0,6.56-.08,9.83a65.69,65.69,0,0,1-1.1,11.45c-.71,3.66-1.16,7.37-1.85,11-.73,3.88-1.56,7.74-2.45,11.59-.57,2.41-1.36,4.77-2,7.16a22.65,22.65,0,0,1-2.9,7.2,10.42,10.42,0,0,0-.79,2c2.94.57,5.58,0,8,.13,1.51-1.89,2.8-3.6,4.18-5.23a52.84,52.84,0,0,0,7.53-10.77c2.71-5.6,5.44-11.15,7.19-17.17,1-3.49,1.51-7.06,2.3-10.59a96.92,96.92,0,0,0,1.87-21.22A6.61,6.61,0,0,0,659.8,126a11.37,11.37,0,0,1-1.72-5.44,78.91,78.91,0,0,0-1.68-11.73q-1-4.11-1.81-8.27c-1.76-9.07-6.39-16.57-12.68-23.13a52.41,52.41,0,0,0-10-8.09c-1.62-1-3.18-2.16-4.79-3.2-1.81-1.15-3.61-2.31-5.48-3.37A26.49,26.49,0,0,0,618.3,61.44Zm-22.59,5.11a7.42,7.42,0,0,0-1.18.35,13.3,13.3,0,0,0-1.36,1A64,64,0,0,0,583,79.23c-3.84,5.36-6.56,11.35-9.2,17.34a30.43,30.43,0,0,0-2.67,9.43c-.45,4.72-.89,9.45-1.25,14.18-.67,8.74.27,17.39,1.59,26a92.88,92.88,0,0,0,2,9.63,81.06,81.06,0,0,0,4.37,12.82c1.31,2.87,2.66,5.74,4,8.59a35.28,35.28,0,0,0,2.63,5.12c1.72,2.43,3.19,4.9,3.53,7.88a6.2,6.2,0,0,0,1.37.55,41,41,0,0,1,5.23,1.35,56.56,56.56,0,0,0,7,1.34c.44.07.94-.31,1.28-.44-1.15-3-2.2-5.7-3.28-8.42-.33-.83-.76-1.63-1.14-2.46-1.88-4.11-3.81-8.2-4.74-12.66-.8-3.87-1.65-7.74-2.25-11.64a118.51,118.51,0,0,1-1.55-13.12c-.23-5.42-1.31-10.78-.95-16.23a5.72,5.72,0,0,0-.16-1.35,62.13,62.13,0,0,1-.65-11.15c0-1.59.09-3.17,0-4.75a64.44,64.44,0,0,1,1.32-13.14c.7-3.77,1.26-7.57,1.92-11.36.37-2.11.79-4.21,1.24-6.31C593.64,75.93,594.64,71.42,595.71,66.55Z"/><path class="cls-5" d="M607.76,59.36c1.87,2.27,3.93,4.37,5.54,6.78a71.89,71.89,0,0,1,7.85,15.71q1.62,4.45,3.1,9c.91,2.78,1.91,5.56,2.58,8.41a153.49,153.49,0,0,1,4,22.32,19.09,19.09,0,0,0,.3,2c1.35,7.31.89,14.6.06,21.92a120,120,0,0,1-2.48,13.29,68.53,68.53,0,0,0-.93,7.73,35.71,35.71,0,0,0-.32,3.71c-.06,4.16-1.7,7.92-2.94,11.77a99,99,0,0,0-3.42,12.89,4.76,4.76,0,0,1-1.54.23c-2.64-.45-5.4-.2-7.68-1-1.26-2.51-2.48-4.67-3.43-6.94a63.81,63.81,0,0,1-2.13-6.39c-.74-2.48-1.42-5-2.09-7.5-1-3.59-2.11-7.16-2.78-10.81-1.3-7.1-2.92-14.14-3.29-21.4-.32-6.42-1.23-12.8-1.62-19.22a136,136,0,0,1-.14-14.56c.21-4.5.94-9,1.47-13.45.4-3.36.74-6.74,1.32-10.07a129.21,129.21,0,0,1,5.16-18.93A11.19,11.19,0,0,1,607.76,59.36Z"/><path class="cls-5" d="M589.47,62c-1.55,1.68-2.54,2.9-3.67,4a84.61,84.61,0,0,0-14.07,17.75,71.87,71.87,0,0,0-6.9,13.57,47,47,0,0,0-2.1,9.23q-1.59,12.11-2.22,24.31c-.07,1.47-.1,2.94-.06,4.41a5,5,0,0,0,.38,2.31c1,1.76.93,3.67,1.18,5.57.56,4.36,1.19,8.72,2,13,.64,3.21,1.61,6.35,2.54,9.49a34,34,0,0,0,1.83,4.73,32.32,32.32,0,0,1,2.58,7.32c.38,1.83,1.54,3.49,2.32,5.24.44,1,1.39,1.78,1.3,3-.3.1-.54.28-.7.23a91.51,91.51,0,0,1-11.42-5.05,44.17,44.17,0,0,1-15.19-12.19c-1.77-2.32-3.82-4.41-5.08-7.14-1-2.05-2.17-4-2.46-6.26a8,8,0,0,0-.71-2.26c-1.74-3.84-2.57-7.95-3.5-12a34.58,34.58,0,0,1-.89-6.71c-.14-5-.2-10,0-14.92a31.93,31.93,0,0,1,3-12.44c2.44-5.22,4.78-10.49,7.38-15.63a36.79,36.79,0,0,1,8.79-11.07c2.29-2,4.56-4.05,6.85-6.06a51.71,51.71,0,0,1,7.55-5.13,92.73,92.73,0,0,1,11.31-5.37A22.55,22.55,0,0,1,589.47,62Z"/><path class="cls-5" d="M628.09,58c1.22.06,2.46.05,3.68.18,4.94.54,9.88,1.08,14.81,1.7a5.65,5.65,0,0,1,2.45,1,15.8,15.8,0,0,0,5.5,2.56,16,16,0,0,1,4.86,2.33c2.74,1.79,5.46,3.61,8.27,5.28a18,18,0,0,1,6.46,6.32c1.51,2.52,3.21,4.91,4.75,7.41s3.09,5.25,4.61,7.88a3.65,3.65,0,0,1,.71,1.51,9,9,0,0,0,2.1,5.24A5.2,5.2,0,0,1,687,101a49.22,49.22,0,0,1,2.82,11.14c.15,1.69.61,3.35.67,5a66.17,66.17,0,0,1,0,8.45,125,125,0,0,1-2.9,17.71,84.82,84.82,0,0,1-5.13,14,9.28,9.28,0,0,0-.89,2.87,11.9,11.9,0,0,1-2.51,6.19c-.93,1.27-2,2.48-3,3.7-.28.35-.68.61-.94,1a45.2,45.2,0,0,1-9.71,9.37,53.59,53.59,0,0,0-4.16,4,19.67,19.67,0,0,1-7.43,4.58,4,4,0,0,1-1,.11c-.6-.66,0-1.06.29-1.47,1.45-2.29,3-4.54,4.41-6.84,1.56-2.48,3.07-5,4.59-7.52a36.41,36.41,0,0,0,4.65-13c1.05-6.24,1.8-12.53,2.6-18.8a65.66,65.66,0,0,0-.13-15.22,51.27,51.27,0,0,1-.4-8.76A58.89,58.89,0,0,0,664,90a29.47,29.47,0,0,0-5.13-8.34,19.12,19.12,0,0,1-1.4-1.91,23.26,23.26,0,0,0-5.09-5.39c-2.26-1.69-4.25-3.8-6.67-5.19C639.72,65.76,634.44,61.21,628.09,58Z"/><path class="cls-5" d="M618.3,61.44a26.49,26.49,0,0,1,3.38,1.29c1.87,1.06,3.67,2.22,5.48,3.37,1.61,1,3.17,2.17,4.79,3.2a52.41,52.41,0,0,1,10,8.09c6.29,6.56,10.92,14.06,12.68,23.13q.81,4.16,1.81,8.27a78.91,78.91,0,0,1,1.68,11.73A11.37,11.37,0,0,0,659.8,126a6.61,6.61,0,0,1,1.11,3.82A96.92,96.92,0,0,1,659,151c-.79,3.53-1.29,7.1-2.3,10.59-1.75,6-4.48,11.57-7.19,17.17A52.84,52.84,0,0,1,642,189.53c-1.38,1.63-2.67,3.34-4.18,5.23-2.41-.12-5.05.44-8-.13a10.42,10.42,0,0,1,.79-2,22.65,22.65,0,0,0,2.9-7.2c.65-2.39,1.44-4.75,2-7.16.89-3.85,1.72-7.71,2.45-11.59.69-3.66,1.14-7.37,1.85-11a65.69,65.69,0,0,0,1.1-11.45c.07-3.27.11-6.55.08-9.83a112.21,112.21,0,0,0-1.42-15.85c-1.32-9-3.84-17.65-6.26-26.35A114.13,114.13,0,0,0,629,80.07a67.11,67.11,0,0,0-7.6-13.59A48.72,48.72,0,0,1,618.3,61.44Z"/><path class="cls-5" d="M595.71,66.55c-1.07,4.87-2.07,9.38-3.05,13.89-.45,2.1-.87,4.2-1.24,6.31-.66,3.79-1.22,7.59-1.92,11.36a64.44,64.44,0,0,0-1.32,13.14c0,1.58-.06,3.16,0,4.75a62.13,62.13,0,0,0,.65,11.15,5.72,5.72,0,0,1,.16,1.35c-.36,5.45.72,10.81.95,16.23a118.51,118.51,0,0,0,1.55,13.12c.6,3.9,1.45,7.77,2.25,11.64.93,4.46,2.86,8.55,4.74,12.66.38.83.81,1.63,1.14,2.46,1.08,2.72,2.13,5.46,3.28,8.42-.34.13-.84.51-1.28.44a56.56,56.56,0,0,1-7-1.34,41,41,0,0,0-5.23-1.35,6.2,6.2,0,0,1-1.37-.55c-.34-3-1.81-5.45-3.53-7.88a35.28,35.28,0,0,1-2.63-5.12c-1.36-2.85-2.71-5.72-4-8.59a81.06,81.06,0,0,1-4.37-12.82,92.88,92.88,0,0,1-2-9.63c-1.32-8.62-2.26-17.27-1.59-26,.36-4.73.8-9.46,1.25-14.18a30.43,30.43,0,0,1,2.67-9.43c2.64-6,5.36-12,9.2-17.34a64,64,0,0,1,10.18-11.32,13.3,13.3,0,0,1,1.36-1A7.42,7.42,0,0,1,595.71,66.55Z"/><path class="cls-2" d="M570.16,157.5a2.8,2.8,0,0,0-3,2.88c.16,2.16,1.45,3.5,3.31,3.44a3.41,3.41,0,0,0,3.47-3.33C573.94,158.87,572.22,157.52,570.16,157.5Z"/><path class="cls-2" d="M580.68,173a14.37,14.37,0,0,0-3.86-.83c-.35,0-1,.57-1.14,1a2.65,2.65,0,0,0,1.1,3.2c1.39,1,3,1.3,4,.43a10.06,10.06,0,0,0,1.36-2C581.6,174.14,581.27,173.26,580.68,173Z"/><path class="cls-2" d="M556.61,164.94a2.34,2.34,0,0,0-2.59,2.45,2.59,2.59,0,0,0,2.55,2.92,3.28,3.28,0,0,0,3.11-3.34C559.66,165.86,558.31,165,556.61,164.94Z"/><path class="cls-2" d="M591.76,181.34a2.07,2.07,0,0,0-2.25,2.29,2.78,2.78,0,0,0,2.79,3.07,2.87,2.87,0,0,0,2.82-2.73C595.08,182.58,593.54,181.38,591.76,181.34Z"/><path class="cls-12" d="M651.92,38.87a89.72,89.72,0,0,0,6.73-9.2c1.34-2,2.77-3.84,4.17-5.75s2.64-3.66,4-5.47c3.08-4.18,6.39-8.18,9-12.67a30.25,30.25,0,0,1,3.63-4.46A10.23,10.23,0,0,1,681.17,0a1.42,1.42,0,0,1,1.37,1.46c.11,1.35.17,2.71.16,4.06,0,4.64.18,9.29-.23,13.89-.7,7.87-.7,15.8-1.92,23.62a8.8,8.8,0,0,0-.1,1c-.32,4-.32,4,2.24,6.94a13.18,13.18,0,0,1,1.82,15.41c-.31.61-.68,1.17-1,1.78-2.74,5.67-7.56,8.6-13.48,9.74a30.94,30.94,0,0,1-18.54-2c-.42-.18-.86-.29-1.29-.44-4.7-1.56-8.1-4.73-11-8.63a17.61,17.61,0,0,1-4-9.9c-.2-4.82.25-9.54,4-13.18,3.18-3.09,6.88-5.11,11.5-4.88C651.06,38.88,651.4,38.87,651.92,38.87Zm28.37-34c-1,1.13-1.62,1.66-2.09,2.27-1.26,1.6-2.48,3.22-3.69,4.85-3.72,5-8.08,9.45-11.22,14.86-.22.39-.55.72-.8,1.09q-4.75,7-9.48,14c-.62.93-1.06,2-1.72,2.9a4.67,4.67,0,0,0-.8,3.2,10.72,10.72,0,0,0,5.15,8.7c4.93,3.16,10.24,3.22,15.63,1.51a9.64,9.64,0,0,0,3.33-2.24,10.27,10.27,0,0,0,3.19-7.93,83.16,83.16,0,0,1,.81-11.48c.29-2.13.45-4.27.6-6.41.18-2.48.29-5,.45-7.44.3-5,.63-9.91.92-14.87A25.72,25.72,0,0,0,680.29,4.91Zm-.35,47.17A13.3,13.3,0,0,0,678.73,54a8.58,8.58,0,0,1-2.66,3.46c-5.11,4.34-11,5-17.2,3.22-1.69-.48-3.17-1.7-4.73-2.61-3.34-2-5.06-5.1-6-8.67a6.84,6.84,0,0,1,.93-6.14,9.85,9.85,0,0,0,.85-1.84,5.18,5.18,0,0,0-4.68.76c-1.14.74-2.24,1.53-3.33,2.34a8.27,8.27,0,0,0-3,4c-1.48,4.33-1.75,8.61.55,12.79a12.71,12.71,0,0,1,.8,1.86,14,14,0,0,0,7.87,8.41,28,28,0,0,0,8.79,2.41c1.12.12,2.25.21,3.36.42a30.14,30.14,0,0,0,14.37-.56,10.44,10.44,0,0,0,6.58-5.44,20.69,20.69,0,0,0,1.93-8.18A9.33,9.33,0,0,0,679.94,52.08Z"/><path class="cls-2" d="M680.29,4.91A25.72,25.72,0,0,1,680.57,8c-.29,5-.62,9.91-.92,14.87-.16,2.48-.27,5-.45,7.44-.15,2.14-.31,4.28-.6,6.41a83.16,83.16,0,0,0-.81,11.48,10.27,10.27,0,0,1-3.19,7.93,9.64,9.64,0,0,1-3.33,2.24c-5.39,1.71-10.7,1.65-15.63-1.51a10.72,10.72,0,0,1-5.15-8.7,4.67,4.67,0,0,1,.8-3.2c.66-.91,1.1-2,1.72-2.9q4.71-7,9.48-14c.25-.37.58-.7.8-1.09,3.14-5.41,7.5-9.89,11.22-14.86,1.21-1.63,2.43-3.25,3.69-4.85C678.67,6.57,679.24,6,680.29,4.91Z"/><path class="cls-2" d="M679.94,52.08a9.33,9.33,0,0,1,3.22,8.21,20.69,20.69,0,0,1-1.93,8.18,10.44,10.44,0,0,1-6.58,5.44,30.14,30.14,0,0,1-14.37.56c-1.11-.21-2.24-.3-3.36-.42a28,28,0,0,1-8.79-2.41,14,14,0,0,1-7.87-8.41,12.71,12.71,0,0,0-.8-1.86c-2.3-4.18-2-8.46-.55-12.79a8.27,8.27,0,0,1,3-4c1.09-.81,2.19-1.6,3.33-2.34a5.18,5.18,0,0,1,4.68-.76,9.85,9.85,0,0,1-.85,1.84,6.84,6.84,0,0,0-.93,6.14c1,3.57,2.7,6.72,6,8.67,1.56.91,3,2.13,4.73,2.61,6.21,1.76,12.09,1.12,17.2-3.22A8.58,8.58,0,0,0,678.73,54,13.3,13.3,0,0,1,679.94,52.08Z"/><path class="cls-2" d="M665.09,90.86a2.68,2.68,0,0,0-.62-.29c-.4-.07-.81-.09-1.12-.12-.18.27-.31.38-.29.46a5.06,5.06,0,0,0,.35,1.59,4.49,4.49,0,0,1,.21,3.62,10,10,0,0,1-12.38,6.53,8.39,8.39,0,0,1-2.14-1c-1.76-1.23-2.91-2.79-2.43-5.13a9.11,9.11,0,0,0,0-1.88c-.28-.08-.4-.16-.48-.13a2.34,2.34,0,0,0-.9.37c-2.16,2-3.73,4.24-3.28,7.39.24,1.68.42,3.36.69,5a6.59,6.59,0,0,0,2.66,4.2,17.68,17.68,0,0,0,6.93,3.39,15,15,0,0,0,18.43-13.18C671.28,96.74,669.64,93.08,665.09,90.86Z"/><path class="cls-2" d="M580,97.57a1.08,1.08,0,0,0-1.51-.29c-.38.32-.81,1-.71,1.37a4.53,4.53,0,0,1,.11,2.65c-1.84,5.24-5.8,6.22-9.56,5.34a5.3,5.3,0,0,1-3.49-3c-.68-1.26-1-2.52,0-3.81a1.51,1.51,0,0,0,.3-1,1.84,1.84,0,0,0-.41-1.19,1.37,1.37,0,0,0-1.2-.13c-.82.38-1.53,1-2.32,1.39a6.88,6.88,0,0,0-3.24,4.17c-1.27,3.75-.33,7.12,1.77,10.28a8.24,8.24,0,0,0,4.77,3.61c1.84.5,3.74.75,5.62,1.11,3.85-.14,6.12-.9,9-3.59,4.47-4.25,5.13-9.43,2.62-14.88A8.4,8.4,0,0,0,580,97.57Z"/><path class="cls-2" d="M591.12,134.86c-.1,0-.2.08-.3.12-3.14,7.51.71,17.14,7.55,20.21,7.33,3.28,17.2.73,20.42-5.13-8.83-5.14-18.14-9.46-26.7-15.08A2.16,2.16,0,0,0,591.12,134.86Z"/><path class="cls-2" d="M617,110.5a2.07,2.07,0,0,0-3.22,1.14c-.17.65-.21,1.34-.34,2-.64,3.32-1.06,6.7-2.29,9.89a6.93,6.93,0,0,0-.19,1.56,3.72,3.72,0,0,0,3.05.49c3.23-.46,6.47-1,9.69-1.52.46-.08.84-.6,1.39-1a102.81,102.81,0,0,0-6.66-11.12A6.87,6.87,0,0,0,617,110.5Z"/><path class="cls-9" d="M500.36,254.58c.14-2.75.27-6.12.49-9.49.2-3,1.6-5.62,2.71-8.33,2.39-2.7,3.63-6.32,6.79-8.39,2.55-3,5.79-5.23,9.06-7.38a35.77,35.77,0,0,1,7.47-3.49c1.67-.61,3.42-1,5.08-1.61,5-1.93,10.23-2.09,15.51-1.46a10.29,10.29,0,0,0,3.71.19,1.18,1.18,0,0,1,.52.06c4,.77,8,1.59,11.6,3.72,3.06,1.82,6.21,3.51,9.08,5.6A53.62,53.62,0,0,1,584,235.33a14.11,14.11,0,0,1,2,4c.88,2.61,1.81,5.2,2.7,7.8.66,1.94,1.31,3.88,1.93,5.83a9.29,9.29,0,0,1,.44,2.08,46.54,46.54,0,0,1-.35,11.43,25.45,25.45,0,0,1-1.48,6.21c-1.06,2.25-2.17,4.48-3.34,6.66s-2.55,4.48-3.83,6.72a10.51,10.51,0,0,1-2.82,3.16,26.44,26.44,0,0,1-7.13,4.09,41.2,41.2,0,0,0-6,2.92,16.48,16.48,0,0,1-4.21,1.63c-3.53.86-7,2-10.6,2.59-2.88.49-5.77,1-8.67,1.29a25.5,25.5,0,0,1-4.54,0,18.11,18.11,0,0,1-5.42-1.26c-3-1.17-6-2.26-8.85-3.68a39.13,39.13,0,0,1-12.38-9.11,3.24,3.24,0,0,0-.79-.69c-3.1-1.64-4.7-4.55-6.07-7.52a35.74,35.74,0,0,1-3.23-12.59C501.07,263,500.73,259.11,500.36,254.58ZM546.65,219c-4.44-.46-8.68.65-12.89,1.76a38.24,38.24,0,0,0-11.71,5.7,28.44,28.44,0,0,0-7.27,7c-.78,1.08-1.73,2-2.5,3.12a23.26,23.26,0,0,0-4.6,10.38,66.39,66.39,0,0,0-.26,17.81,38.63,38.63,0,0,0,3.19,11.25c1.3,2.83,2.87,5.53,4.35,8.27a8.8,8.8,0,0,0,1.13,1.8,25.64,25.64,0,0,0,10.3,7.35c1.93.68,3.94,1.18,5.79,2,3.44,1.55,7.09,1.78,10.71,1.8A34.43,34.43,0,0,0,555.17,295a59,59,0,0,0,14.1-7.51,25.26,25.26,0,0,0,4.69-4.31,16.76,16.76,0,0,0,2.66-4.88c.53-1.48.71-3.08,1.92-4.24,1.06-2.83,2.24-5.64,2.4-8.7.2-3.73.43-7.46-.46-11.14a7.47,7.47,0,0,1-.11-1.06,36.06,36.06,0,0,0-5-15.09,49.46,49.46,0,0,0-6.71-9c-2.7-2.85-5.6-5.46-9.35-6.95a46.43,46.43,0,0,1-4.6-2.1,9.1,9.1,0,0,0-4.35-1.05Z"/><path class="cls-1" d="M546.65,219h3.74a9.1,9.1,0,0,1,4.35,1.05,46.43,46.43,0,0,0,4.6,2.1c3.75,1.49,6.65,4.1,9.35,6.95a49.46,49.46,0,0,1,6.71,9,36.06,36.06,0,0,1,5,15.09,7.47,7.47,0,0,0,.11,1.06c.89,3.68.66,7.41.46,11.14-.16,3.06-1.34,5.87-2.4,8.7-1.21,1.16-1.39,2.76-1.92,4.24a16.76,16.76,0,0,1-2.66,4.88,25.26,25.26,0,0,1-4.69,4.31,59,59,0,0,1-14.1,7.51,34.43,34.43,0,0,1-12.28,2.27c-3.62,0-7.27-.25-10.71-1.8-1.85-.83-3.86-1.33-5.79-2a25.64,25.64,0,0,1-10.3-7.35,8.8,8.8,0,0,1-1.13-1.8c-1.48-2.74-3.05-5.44-4.35-8.27a38.63,38.63,0,0,1-3.19-11.25,66.39,66.39,0,0,1,.26-17.81,23.26,23.26,0,0,1,4.6-10.38c.77-1.08,1.72-2,2.5-3.12a28.44,28.44,0,0,1,7.27-7,38.24,38.24,0,0,1,11.71-5.7C538,219.68,542.21,218.57,546.65,219Z"/><path class="cls-2" d="M573.37,252.79a23.31,23.31,0,0,0-8.28-11.52,5.93,5.93,0,0,0-1.62-.88c-1.25-.45-2.52-.85-3.8-1.24a32.06,32.06,0,0,0-7.55-1.6c-6.83-.39-13.41,4.65-13.78,11.34a9.88,9.88,0,0,1-.13,1.06c-.59,4.75,1.33,8.35,5.27,10.83a6.89,6.89,0,0,0,5.87,1,13.19,13.19,0,0,0,4.79-2.84,4,4,0,0,0,1.25-4.12,8.76,8.76,0,0,0-4.27-5.85,4.39,4.39,0,0,0-3.07-.62c-.46.09-.92.21-1,.73s.3.81.78.91,1.24.17,1.84.33a2.26,2.26,0,0,1,1.19.54c1.25,1.64,2.32,3.39,2,5.61a2.21,2.21,0,0,1-.3.73c-1.69,2.74-6.06,3.8-8.72,1.89a9.42,9.42,0,0,1-4.27-7.35,10.73,10.73,0,0,1,9.37-11.15,19.39,19.39,0,0,1,7.11.61,10.2,10.2,0,0,1,6,4.13,21.37,21.37,0,0,1,1.51,2.79,19.61,19.61,0,0,1,2.16,8.45,25.18,25.18,0,0,1-.66,5.28,12.57,12.57,0,0,1-4.79,8.34c-.86.64-1.67,1.33-2.55,1.94a18.11,18.11,0,0,1-7.08,3,23.06,23.06,0,0,1-13.54-1.73,11.17,11.17,0,0,1-4-2.59c-1.13-1.25-2.31-2.46-3.52-3.63a17.08,17.08,0,0,1-3.62-4.58,7,7,0,0,0-.86-1.34,22.51,22.51,0,0,1-5.23-15.29,36.16,36.16,0,0,1,.41-4.51,26.29,26.29,0,0,1,3.26-10.36c1.23-2,2.59-4,4-6a13.88,13.88,0,0,1,3.47-3.41,42.85,42.85,0,0,0-8.94,4.81,28.44,28.44,0,0,0-7.27,7c-.78,1.08-1.73,2-2.5,3.12a23.26,23.26,0,0,0-4.6,10.38,67.41,67.41,0,0,0-.38,16.73,53.2,53.2,0,0,0,3.78,5.55,19.78,19.78,0,0,0,2.49,2.76c7.11,6.36,5.76,5.48,13.67,9.61.47.25.94.52,1.42.74a22.24,22.24,0,0,0,7.58,2.4l8.77.66a5.34,5.34,0,0,0,.8,0,22.85,22.85,0,0,0,8.8-1.94,14.71,14.71,0,0,1,2.25-.81,26.08,26.08,0,0,0,7.87-3.85,18.08,18.08,0,0,0,3.3-3.06A56,56,0,0,0,571.4,271C575.17,265.26,575.29,259.07,573.37,252.79Z"/><path class="cls-1" d="M637.12,394.29a2.33,2.33,0,0,0-1.33-2.19c-.24.27-.47.49-.66.74-.34.42-.59,1.15-1,1.22a3.91,3.91,0,0,1-2.27-.2,3.36,3.36,0,0,1-1.29-1.48c-.5-.88-.75-1.9-1.3-2.74-.9-1.37-1.8-1.52-3.5-1.17a5.84,5.84,0,0,0-4.64,3.53,3.65,3.65,0,0,1-.52.87,2.68,2.68,0,0,1-2.63,1.19c-1-.16-1.48-1-1.8-1.84a27.82,27.82,0,0,0-1-2.88,3.06,3.06,0,0,0-5.47-.33,16.09,16.09,0,0,0-1.19,2.43,16,16,0,0,1-1,2.15,2.89,2.89,0,0,1-3,1.18A2.06,2.06,0,0,1,602.8,393a12.5,12.5,0,0,0-.56-1.95,24.89,24.89,0,0,0-1.9-3.57,3,3,0,0,0-5.1-.19,14.47,14.47,0,0,0-1.31,2.35c-.59,1.09-1.12,2.22-1.78,3.27a2.68,2.68,0,0,1-2.62,1.22,3.55,3.55,0,0,1-3.3-2c-.59-1.21-1.05-2.49-1.67-3.7a4.09,4.09,0,0,0-6.94-1c-1.26,1.3-2.45,2.64-3.65,4h0l-.16.16h0A4.42,4.42,0,0,1,570,393a16.33,16.33,0,0,1-2.65-4.6,8.21,8.21,0,0,0-1.18-2.05,7.06,7.06,0,0,0-1.7-1.62c-2.21-1.4-4.22-.8-5.26,1.58-.49,1.13-.74,2.36-1.14,3.54s-.88,2.09-2.37,2c-.79-.77-1.55-1.61-2.42-2.32a2.19,2.19,0,0,0-3.49.54,21.91,21.91,0,0,0-1.11,2.09c-.3.56-.64,1.1-.94,1.6-1.58-.17-2.31-1.24-3.22-2.06a57,57,0,0,0-4.33-3.77c-2.17-1.6-4.09-1.41-6.15.4-.5.45-.88,1.05-1.42,1.45a15,15,0,0,1-2.82,1.8c-1.46.66-2.1.34-3-1.19-.45-.78-.89-1.57-1.35-2.35a12.08,12.08,0,0,0-1.07-1.72c-1.83-2.13-4.45-2-5.92.41a26.6,26.6,0,0,0-1.25,2.77,12.05,12.05,0,0,1-1.06,2.09,1.46,1.46,0,0,1-2.54-.1c-.62-1.19-1-2.51-1.6-3.72a12.06,12.06,0,0,0-1.77-2.83,2.69,2.69,0,0,0-4.18,0,15,15,0,0,0-1.68,2.11c-.78,1.11-1.46,2.3-2.29,3.37-1.55,2-2.93,1.91-4.24-.14-.3-.48-.54-1-.88-1.45a7,7,0,0,0-3.79-2.7l-2.49-.67c-.27.19-.53.27-.62.45a19.12,19.12,0,0,0-2.49,7,30.26,30.26,0,0,1-.67,4.35,37.43,37.43,0,0,0-.75,12.09,90.73,90.73,0,0,0,6,25.29c.68,1.79,1.77,3.42,2.46,5.2a43,43,0,0,0,5.59,9.66,19.1,19.1,0,0,0,5,5.05c2.18,1.41,4.34,2.88,6.64,4.09a38,38,0,0,0,6.81,3c4.76,1.43,9.52,2.84,14.12,4.74.73.3,1.51.44,2.26.68,2.75.88,5.61.5,8.41.75a146.77,146.77,0,0,0,20.33.42,6.8,6.8,0,0,1,1,0c5.12.46,10.18-.3,15.21-.9,6.83-.81,13.61-2.16,20.39-3.39a38.72,38.72,0,0,0,14.15-5.43c1.81-1.16,3.64-2.29,5.42-3.49,5.6-3.81,9.7-8.73,11.35-15.46.59-2.41,1.42-4.76,1.88-7.2.9-4.77,1.73-9.56,2.4-14.37.57-4.13.9-8.31,1.29-12.47A58.61,58.61,0,0,0,637.12,394.29Z"/><path class="cls-7" d="M634.12,391.29a2.33,2.33,0,0,0-1.33-2.19c-.24.27-.47.49-.66.74-.34.42-.59,1.15-1,1.22a3.91,3.91,0,0,1-2.27-.2,3.36,3.36,0,0,1-1.29-1.48c-.5-.88-.75-1.9-1.3-2.74-.9-1.37-1.8-1.52-3.5-1.17a5.84,5.84,0,0,0-4.64,3.53,3.65,3.65,0,0,1-.52.87,2.68,2.68,0,0,1-2.63,1.19c-1-.16-1.48-1-1.8-1.84a27.82,27.82,0,0,0-1-2.88,3.06,3.06,0,0,0-5.47-.33,16.09,16.09,0,0,0-1.19,2.43,16,16,0,0,1-1,2.15,2.89,2.89,0,0,1-3,1.18A2.06,2.06,0,0,1,599.8,390a12.5,12.5,0,0,0-.56-1.95,24.89,24.89,0,0,0-1.9-3.57,3,3,0,0,0-5.1-.19,14.47,14.47,0,0,0-1.31,2.35c-.59,1.09-1.12,2.22-1.78,3.27a2.68,2.68,0,0,1-2.62,1.22,3.55,3.55,0,0,1-3.3-2c-.59-1.21-1.05-2.49-1.67-3.7a4.09,4.09,0,0,0-6.94-1c-1.26,1.3-2.45,2.64-3.65,4h0l-.16.16h0A4.42,4.42,0,0,1,567,390a16.33,16.33,0,0,1-2.65-4.6,8.21,8.21,0,0,0-1.18-2.05,7.06,7.06,0,0,0-1.7-1.62c-2.21-1.4-4.22-.8-5.26,1.58-.49,1.13-.74,2.36-1.14,3.54s-.88,2.09-2.37,2c-.79-.77-1.55-1.61-2.42-2.32a2.19,2.19,0,0,0-3.49.54,21.91,21.91,0,0,0-1.11,2.09c-.3.56-.64,1.1-.94,1.6-1.58-.17-2.31-1.24-3.22-2.06a57,57,0,0,0-4.33-3.77c-2.17-1.6-4.09-1.41-6.15.4-.5.45-.88,1.05-1.42,1.45a15,15,0,0,1-2.82,1.8c-1.46.66-2.1.34-3-1.19-.45-.78-.89-1.57-1.35-2.35a12.08,12.08,0,0,0-1.07-1.72c-1.83-2.13-4.45-2-5.92.41a26.6,26.6,0,0,0-1.25,2.77,12.05,12.05,0,0,1-1.06,2.09,1.46,1.46,0,0,1-2.54-.1c-.62-1.19-1-2.51-1.6-3.72a12.06,12.06,0,0,0-1.77-2.83,2.69,2.69,0,0,0-4.18,0,15,15,0,0,0-1.68,2.11c-.78,1.11-1.46,2.3-2.29,3.37-1.55,2-2.93,1.91-4.24-.14-.3-.48-.54-1-.88-1.45a7,7,0,0,0-3.79-2.7l-2.49-.67c-.27.19-.53.27-.62.45a19.12,19.12,0,0,0-2.49,7,30.26,30.26,0,0,1-.67,4.35,37.43,37.43,0,0,0-.75,12.09,90.73,90.73,0,0,0,6,25.29c.68,1.79,1.77,3.42,2.46,5.2a43,43,0,0,0,5.59,9.66,19.1,19.1,0,0,0,5,5.05c2.18,1.41,4.34,2.88,6.64,4.09a38,38,0,0,0,6.81,3c4.76,1.43,9.52,2.84,14.12,4.74.73.3,1.51.44,2.26.68,2.75.88,5.61.5,8.41.75a146.77,146.77,0,0,0,20.33.42,6.8,6.8,0,0,1,1,0c5.12.46,10.18-.3,15.21-.9,6.83-.81,13.61-2.16,20.39-3.39a38.72,38.72,0,0,0,14.15-5.43c1.81-1.16,3.64-2.29,5.42-3.49,5.6-3.81,9.7-8.73,11.35-15.46.59-2.41,1.42-4.76,1.88-7.2.9-4.77,1.73-9.56,2.4-14.37.57-4.13.9-8.31,1.29-12.47A58.61,58.61,0,0,0,634.12,391.29Z"/><path class="cls-2" d="M531.83,414.76a28.47,28.47,0,0,1-1.59,10.05,9.91,9.91,0,0,1-7.49,6.63,4.47,4.47,0,0,1-5.44-2.35c-2.46-5.1-3.57-10.48-1.88-16a12.15,12.15,0,0,1,7.82-8.27c3.79-1.34,6.66.22,7.79,4.08a12.57,12.57,0,0,1,.48,2C531.66,412.06,531.72,413.3,531.83,414.76Zm-9.57,14.65c0-.11.16-.22.14-.3-1-4.06-.51-8.06.47-12,.77-3.07,2.1-5.73,5.21-7.08a4.69,4.69,0,0,0,.66-.4c0-.56.08-.81,0-1-1.06-2.28-2.87-3-5.27-2a10.6,10.6,0,0,0-6.35,7.45c-1.19,4.55-.3,9,1.39,13.22a4,4,0,0,0,1.93,2.27C521.07,429.83,521.69,430,522.26,429.41Z"/><path class="cls-2" d="M606.17,411.08a49.11,49.11,0,0,1-1.85,12,14.43,14.43,0,0,1-5.19,7.35c-3.24,2.5-5.82,1.35-7.19-2.1a19.22,19.22,0,0,1-1.17-4.91,26.25,26.25,0,0,1,2.74-15.4,8.29,8.29,0,0,1,8.91-3.92,4.79,4.79,0,0,1,3.73,4.29A20.26,20.26,0,0,1,606.17,411.08ZM598,429c-1.64-3.23-1.22-6.31-.38-9.39.24-.87.46-1.74.67-2.62.67-2.75,2.14-4.68,5.16-5,.19,0,.35-.25.65-.47a13.32,13.32,0,0,0,.11-2.22,3.93,3.93,0,0,0-5.36-3.45,6.89,6.89,0,0,0-4.05,3.83A25.07,25.07,0,0,0,593,424.49a13,13,0,0,0,1.34,3.78C595.07,429.8,595.55,429.86,598,429Z"/><path class="cls-4" d="M615,440.89c-2.42.17-4-1.23-5.45-2.89-1.7-2-2-6.44-.58-8.67a4.74,4.74,0,0,1,1.37-1.45,8.4,8.4,0,0,1,9-.33,3.47,3.47,0,0,1,1.93,2.63,16,16,0,0,0,.57,3.33,4.86,4.86,0,0,1-.87,4.77,6.15,6.15,0,0,1-4.26,2.49C616.14,440.86,615.57,440.85,615,440.89Zm1.43-3.17c-.67-.61-1.35-1.16-2-1.79-1.81-1.87-1.64-3.17.53-4.58.28-.18,1,0,.73-.7a1.29,1.29,0,0,0-.31-.18,3.3,3.3,0,0,0-3.63,2.36,4.85,4.85,0,0,0,.54,5.08C613.36,439.18,614.7,439.12,616.44,437.72ZM619,433.4c-1,.43-1.87-.12-2.72-.23a.76.76,0,0,0-.65,1.19c.78,1.34,2,1.48,2.95.27A4.69,4.69,0,0,0,619,433.4Z"/><path class="cls-4" d="M496.94,430.38c.24-2.24.52-4.18,2.33-5.62,2.18-1.73,7.16-1.35,9,.11a6.84,6.84,0,0,1,1.75,8c-.55,1.33-1,2.93-2,3.8a5.71,5.71,0,0,1-6,1.18,7,7,0,0,1-4.6-5C497.18,432,497.06,431.08,496.94,430.38Zm4.53,1.12c.08-.33.15-.66.24-1,.84-3,.85-3,4.09-3.35,0,.9-.05,1.68-1.28,2-.77.19-.95,1.28-.59,1.94a1.73,1.73,0,0,0,2.31.64,2.8,2.8,0,0,0,1.07-2.66c-.05-.93-.42-1.74-1.55-1.82-1.06-1-2.21-.7-3.3-.14a2.46,2.46,0,0,0-1.31,2.46,12.63,12.63,0,0,0,.37,1.91,21.37,21.37,0,0,0,1.2,2.72,2.28,2.28,0,0,0,2.66,1,4.85,4.85,0,0,0,3.36-3c-.64.36-.91.5-1.17.66-2.17,1.27-3.19,1.2-5.12-.4C502.11,432.13,501.79,431.81,501.47,431.5Zm-1.54,1.7c-.2-.87-.39-1.74-.68-3C498.86,431.59,498.93,432.49,499.93,433.2Z"/><path class="cls-2" d="M574.67,441a1.83,1.83,0,0,1-.42,2.55c-4,3.54-8.61,5.4-14,4.8A19.57,19.57,0,0,1,550,444.53a21.41,21.41,0,0,1-2.37-2.39,1.07,1.07,0,0,1-.09-1.52c.5-.55,1-.28,1.49.07a9.57,9.57,0,0,1,1,1,17.18,17.18,0,0,0,10.81,5.06c5.2.52,9.84-.85,13.1-5.35C574,441.21,574.25,441.19,574.67,441Z"/><path class="cls-2" d="M611.5,402.22a4.91,4.91,0,0,1-1.52-.36,15,15,0,0,0-11.26-2.06,1.14,1.14,0,0,1-.66-.07.82.82,0,0,1-.41-.45,1,1,0,0,1,.1-.61.41.41,0,0,1,.23-.22,13.49,13.49,0,0,1,7.24-.72A15.06,15.06,0,0,1,611,400.4a5,5,0,0,1,.93,1.29Z"/><path class="cls-2" d="M527.52,397.86c-.08.3-.08.55-.2.68a.83.83,0,0,1-.58.27c-4.35-.19-8.19,1.36-11.9,3.38a4.31,4.31,0,0,1-1.24.52,1,1,0,0,1-.86-.35,1,1,0,0,1,.06-.91c4.26-2.72,8.72-4.8,14-4.08C527.05,397.41,527.29,397.71,527.52,397.86Z"/><path class="cls-2" d="M558.47,424.62a6.45,6.45,0,0,1,.93,0c1.85.36,3.71.72,5.56,1.14.26.06.65.44.62.64a2.52,2.52,0,0,1-.53,1.12c-.11.14-.41.16-.62.18-1.78.21-3.54.43-5.32.58a1.61,1.61,0,0,1-1.68-.87,2,2,0,0,1,.16-2.22A2.69,2.69,0,0,1,558.47,424.62Z"/><path class="cls-1" d="M522.26,429.41c-.57.58-1.19.42-1.83.1a4,4,0,0,1-1.93-2.27c-1.69-4.27-2.58-8.67-1.39-13.22a10.6,10.6,0,0,1,6.35-7.45c2.4-1,4.21-.24,5.27,2,.09.18,0,.43,0,1a4.69,4.69,0,0,1-.66.4c-3.11,1.35-4.44,4-5.21,7.08-1,4-1.5,8-.47,12C522.42,429.19,522.31,429.3,522.26,429.41Z"/><path class="cls-1" d="M598,429c-2.45.86-2.93.8-3.69-.73a13,13,0,0,1-1.34-3.78,25.07,25.07,0,0,1,1.83-14.84,6.89,6.89,0,0,1,4.05-3.83,3.93,3.93,0,0,1,5.36,3.45,13.32,13.32,0,0,1-.11,2.22c-.3.22-.46.45-.65.47-3,.35-4.49,2.28-5.16,5-.21.88-.43,1.75-.67,2.62C596.78,422.69,596.36,425.77,598,429Z"/><path class="cls-6" d="M631.56,395.08a10.08,10.08,0,0,1-4.91-3.26A7.27,7.27,0,0,0,623,389.2c-.72.51-1.51,1.13-2.34,1.68s-1.88,1.26-2.88,1.8c-2.42,1.3-3.74,1.11-5.76-.87-.87-.85-1.64-1.82-2.47-2.76-1.88.58-2.87,2-3.91,3.28a8.63,8.63,0,0,1-2.78,2.43,3.71,3.71,0,0,1-4.14-.27,10.46,10.46,0,0,1-3.3-4.22c-.43-.9-.8-1.83-1.24-2.86a8.54,8.54,0,0,0-4.62,2.15,38.67,38.67,0,0,0-3.24,4l-3.37-.48c-1-1.35-2.11-2.66-3.1-4a1.65,1.65,0,0,0-2.08-.64,10.74,10.74,0,0,0-2.31,1.35c-.92.65-1.74,1.45-2.67,2.08a7,7,0,0,1-8.76-.57,26.22,26.22,0,0,1-2.47-2.78c-.43-.52-.77-1.12-1.22-1.63a1.65,1.65,0,0,0-2.39-.34,18.56,18.56,0,0,0-5.66,5.16l-4.69,1a6.7,6.7,0,0,1-5.5-.92c-1.11-.78-2.37-1.35-3.47-2.13a3.5,3.5,0,0,0-4.4,0c-1.39,1-2.71,2-4,3.09a7.11,7.11,0,0,1-3.94,1.79,5,5,0,0,1-4-1.3,10.27,10.27,0,0,1-3.5-5.51,33.4,33.4,0,0,0-2.9,3.26c-.63.64-1.15,1.4-1.83,2a2.36,2.36,0,0,1-3.37-.05,32.4,32.4,0,0,1-2.67-3.48c-.64-.89-.89-2.1-2.21-2.55-1.08.49-1.5,1.56-2.11,2.48a17.92,17.92,0,0,1-2,2.7,3.59,3.59,0,0,1-4.37.72,7.7,7.7,0,0,1-3.39-2.74c-.42-.65-.84-1.31-1.3-2a4,4,0,0,0-2.05,2.68A43.5,43.5,0,0,0,487.33,410a51.86,51.86,0,0,0,3.09,14.89,55.15,55.15,0,0,0,3.07,6.78,26.16,26.16,0,0,1,3.07,10.68,20.8,20.8,0,0,1-7.95,7.24c-6.52,3.25-13.33,5.79-20.6,6.46a82.39,82.39,0,0,1-14.22-.15,16.5,16.5,0,0,1-7.86-3,12.54,12.54,0,0,0-2.65-1.48C434,448,428.9,440.87,426.12,431.78a18.44,18.44,0,0,1-.59-9.72c1.11-4.68,2.89-9,6.25-12.6a8.47,8.47,0,0,1,4.22-2.62c2.27-.58,4.38-1.71,6.71-2.28a6.47,6.47,0,0,1,4.87.67,16.91,16.91,0,0,1,5.64,5.3c1.13,1.64.63,3.08-1.3,3.69a8.36,8.36,0,0,1-5,.18c-.76-.22-1.5-.47-2.27-.71-2.9.78-4.56,2.83-5.64,5.44a3.42,3.42,0,0,0,1.31,4.45c2.44,1.63,5,2.14,7.61.42,2.17-1.41,4.7-2.28,6.53-4.22q1.5-1.59,3-3.23c.37-.42.67-.91,1.05-1.33,4.53-5,7.41-11,10.38-17,1.82-3.65,2.5-7.72,3.59-11.64.36-1.3.66-2.63.89-4s.64-2.56.31-3.66a6.35,6.35,0,0,1,.46-4.57,4.22,4.22,0,0,0,.31-1c1.2-7.13,4.7-13.4,7.72-19.82a34.69,34.69,0,0,1,5.06-7.18,57.37,57.37,0,0,1,18.34-14.26c2.12-1.07,4.18-2.26,6.35-3.22,7-3.1,14.24-5,22-4.37a67,67,0,0,1,13.35,2.24c.32.09.66.33,1,.29,2.73-.35,4.71,1.3,6.83,2.53a32.33,32.33,0,0,1,3.69,2.39,4.48,4.48,0,0,0,4.15.74l.65-.2,11.5-4a31.23,31.23,0,0,1,10-1.42,25.5,25.5,0,0,0,3.39-.1,52.2,52.2,0,0,1,10.15-.23,21.08,21.08,0,0,1,4.68.69,110.92,110.92,0,0,1,18.72,7c3.81,1.83,7.11,4.38,10.53,6.78a11.57,11.57,0,0,1,1.75,1.61c5.14,5.54,10.45,10.94,14.8,17.17,1.43,2,2.75,4.15,4,6.3a12.38,12.38,0,0,1,1.18,3.16,53.69,53.69,0,0,1,1.44,16.14c-.43,8.48-.33,17,2,25.24a16,16,0,0,1,.71,3.31c.17,3.53,1.79,6.51,3.38,9.51,2.13,4,5.69,6.34,9.75,8a9,9,0,0,0,5,.1,1.92,1.92,0,0,0,.9-.42c1.71-1.55,3.17-3.25,3.39-5.67a4.59,4.59,0,0,0-4-5.35c-3.4-.62-5.14-3.09-6.75-5.7a3.91,3.91,0,0,1,.06-3.61,8,8,0,0,1,5.4-4.76,4.16,4.16,0,0,1,2.32,0c3.08,1.08,6.13,2.25,9.17,3.45a11.38,11.38,0,0,1,5,3.87c1.34,1.81,2.82,3.54,4.16,5.35a20.18,20.18,0,0,1,3.52,10.48c.09,1,0,2,.11,3.05.42,5.05-1.08,9.6-3.56,13.9-.57,1-1.13,2-1.62,3a15.7,15.7,0,0,1-6.11,6.65,22.81,22.81,0,0,1-6.46,2.91c-1.09.26-2.12.76-3.19,1.13-2.12.75-4.25,1.5-6.39,2.2-4.82,1.58-9.75,1.64-14.76,1.27A89.63,89.63,0,0,1,643.17,461a28.64,28.64,0,0,1-11.8-6.45,17.83,17.83,0,0,1-4.12-5.33c-.86-1.59-1.68-3.2-2.6-4.75a9.71,9.71,0,0,1-1-8.14,13.22,13.22,0,0,1,.44-1.64c2.82-6.46,4-13.41,5.52-20.21,1.27-5.71,1.54-11.64,2.21-17.47A9.32,9.32,0,0,0,631.56,395.08Zm55.19,26.34c-.41,1.42-.74,2.36-1,3.32a24.21,24.21,0,0,1-4.16,8.84,12.53,12.53,0,0,1-14.49,4.59,22.21,22.21,0,0,1-12-9.46,42.45,42.45,0,0,1-5.23-12.8c-1.87-7.42-2.2-15-2.12-22.55a103.77,103.77,0,0,0-3-24.84,8.07,8.07,0,0,0-1.2-2.77q-5.18-7.35-10.49-14.58a12.25,12.25,0,0,0-2.37-2.4c-5.48-4.18-10.94-8.39-17.07-11.62a16.2,16.2,0,0,0-1.81-.92c-3-1-5.83-2.45-9-3s-6.14-1.38-9.25-1.81c-2.89-.4-5.84-.45-8.76-.61a4.31,4.31,0,0,0-1.67.23c-3.06,1.15-6.11,2.34-9.16,3.53-1.65.64-3.07,1.9-5.1,1.45a3.38,3.38,0,0,0-2.21.72,4.1,4.1,0,0,1-3.57.34,25.64,25.64,0,0,1-8-3.56,11,11,0,0,0-4.31-1.87c-4.21-.82-8.41-1.71-12.65-2.39a54.28,54.28,0,0,0-6.75-.46,13.73,13.73,0,0,0-7.17,1.76,78.61,78.61,0,0,1-9.67,4.08A44.3,44.3,0,0,0,503,341.39a66.93,66.93,0,0,0-9.79,9.34,43.1,43.1,0,0,0-6.47,9.87c-1.61,3.61-2.92,7.34-4.36,11a23.79,23.79,0,0,0-1.88,7.88,3,3,0,0,1-1.48,2.86,2.79,2.79,0,0,0-1.38,2.56,12.51,12.51,0,0,0,0,2,24,24,0,0,1-.92,8.38c-.57,2.07-.9,4.22-1.58,6.25-1,3.1-1.89,6.37-3.55,9.13-1.52,2.54-2.6,5.26-4.13,7.76a17,17,0,0,1-3,4c-2.36,2.09-5,3.89-7.46,5.85-2.1,1.67-4.61,2.36-7.07,3.18a5.44,5.44,0,0,1-4-.23c-3.72-1.67-7.39-3.45-9.65-7.14a8.4,8.4,0,0,0-1.48-1.4,5.5,5.5,0,0,0-1.41,4.54,25.62,25.62,0,0,0,3.46,10.9,12,12,0,0,0,2.39,2.83,54.11,54.11,0,0,0,8.36,6.32,13.8,13.8,0,0,0,5.28,2c2.24.3,4.47.68,6.71,1a44.92,44.92,0,0,0,6.72.63,61.13,61.13,0,0,0,7.72-.93,26.26,26.26,0,0,0,10.62-4.26,42.39,42.39,0,0,0,4.18-3.44,10.13,10.13,0,0,0,1.05-1.22c-5.78-9.61-9.5-19.51-10.09-30.5-.61-11.18,3.18-21,8.56-30.23l4.12-1.19a4.11,4.11,0,0,1,2.26,2.31,10.21,10.21,0,0,0,3,3.68,15,15,0,0,1,1.3-1.2,52.2,52.2,0,0,1,4.74-3.24c2.23-1.26,3.39-.84,4.72,1.39.35.59.52,1.27.91,1.82.5.72.91,1.59,2.24,1.73.82-.84,1.8-1.76,2.65-2.79a4.75,4.75,0,0,1,3.81-1.88c1,0,2,.08,2.79.11.87,1,1.52,1.78,2.22,2.51s1.44,1.39,2.23,2.15c1-.43,1.92-.85,2.86-1.22,1.36-.55,2.74-1,4.1-1.59a5.34,5.34,0,0,1,4.88.34c1.14.64,2.14,1.71,3.71,1.4.31-.06.78.4,1.1.71.55.55,1,1.16,1.49,1.66a4.11,4.11,0,0,0,3.33-.82c1.27-.94,2.51-1.92,3.74-2.9s2.16-2.26,3.46-2.66a38.57,38.57,0,0,0,4.82-2.39l1.64,1.32c2.08,1.63,3.46,3.86,5.06,5.89.86,1.09,1.39,1.3,2.63.74,1.53-.7,3-1.57,4.47-2.37,4.91-2.63,7.45-1.78,9.63,1.69a17.24,17.24,0,0,0,1.47,1.77c2.34-1.26,4.54-2.39,6.69-3.62a4.46,4.46,0,0,1,4.21-.13A11.41,11.41,0,0,1,598.7,387c.57.66,1.1,1.37,1.73,2.17a38.83,38.83,0,0,1,4.67-3.56,40.64,40.64,0,0,1,5.6-2.11l2.8,3.76a8.83,8.83,0,0,0,2.86-.26c2.15-.92,4.19-2.09,6.3-3.18a10.91,10.91,0,0,1,4.32,2.63,4.45,4.45,0,0,0,3.66,1.36c2.25-.27,3.62,1,4.58,2.82a10.56,10.56,0,0,1,1,2.86,54.68,54.68,0,0,1,1.24,14.82c-.09,1.36-.13,2.71-.19,4.07-.41,9.32-1.85,18.42-5.94,26.92a6,6,0,0,0-.56,3.95,17.21,17.21,0,0,0,3.57,7.95A13.44,13.44,0,0,0,639.9,455a34.91,34.91,0,0,0,15.37,1.82c2.14-.16,4.28-.27,6.41-.49,3.94-.4,7.9-.74,11.51-2.58,2.72-1.38,5.45-2.76,8.11-4.24a17.06,17.06,0,0,0,7-6.26,26.55,26.55,0,0,0,3.36-14,19.28,19.28,0,0,0-.5-2.65c-.22-1.33-2.11-1.67-1.92-3.27,0-.24-.35-.58-.61-.77C688.17,422.2,687.68,422,686.75,421.42Z"/><path class="cls-5" d="M532.25,382.92c-1.36.55-2.74,1-4.1,1.59-.94.37-1.85.79-2.86,1.22-.79-.76-1.54-1.43-2.23-2.15s-1.35-1.52-2.22-2.51c-.79,0-1.79-.11-2.79-.11a4.75,4.75,0,0,0-3.81,1.88c-.85,1-1.83,2-2.65,2.79-1.33-.14-1.74-1-2.24-1.73-.39-.55-.56-1.23-.91-1.82-1.33-2.23-2.49-2.65-4.72-1.39a52.2,52.2,0,0,0-4.74,3.24,15,15,0,0,0-1.3,1.2,10.21,10.21,0,0,1-3-3.68,4.11,4.11,0,0,0-2.26-2.31l-4.12,1.19c-5.38,9.2-9.17,19.05-8.56,30.23.59,11,4.31,20.89,10.09,30.5a10.13,10.13,0,0,1-1.05,1.22,42.39,42.39,0,0,1-4.18,3.44A26.26,26.26,0,0,1,473.94,450a61.13,61.13,0,0,1-7.72.93,44.92,44.92,0,0,1-6.72-.63c-2.24-.28-4.47-.66-6.71-1a13.8,13.8,0,0,1-5.28-2,54.11,54.11,0,0,1-8.36-6.32,12,12,0,0,1-2.39-2.83,25.62,25.62,0,0,1-3.46-10.9,5.5,5.5,0,0,1,1.41-4.54,8.4,8.4,0,0,1,1.48,1.4c2.26,3.69,5.93,5.47,9.65,7.14a5.44,5.44,0,0,0,4,.23c2.46-.82,5-1.51,7.07-3.18,2.47-2,5.1-3.76,7.46-5.85a17,17,0,0,0,3-4c1.53-2.5,2.61-5.22,4.13-7.76,1.66-2.76,2.52-6,3.55-9.13.68-2,1-4.18,1.58-6.25a24,24,0,0,0,.92-8.38,12.51,12.51,0,0,1,0-2,2.79,2.79,0,0,1,1.38-2.56,3,3,0,0,0,1.48-2.86,23.79,23.79,0,0,1,1.88-7.88c1.44-3.68,2.75-7.41,4.36-11a43.1,43.1,0,0,1,6.47-9.87,66.93,66.93,0,0,1,9.79-9.34,44.3,44.3,0,0,1,11.67-6.79,78.61,78.61,0,0,0,9.67-4.08,13.73,13.73,0,0,1,7.17-1.76,54.28,54.28,0,0,1,6.75.46c4.24.68,8.44,1.57,12.65,2.39a11,11,0,0,1,4.31,1.87,25.64,25.64,0,0,0,8,3.56,4.1,4.1,0,0,0,3.57-.34A3.38,3.38,0,0,1,569,336c2,.45,3.45-.81,5.1-1.45,3.05-1.19,6.1-2.38,9.16-3.53a4.31,4.31,0,0,1,1.67-.23c2.92.16,5.87.21,8.76.61,3.11.43,6.16,1.24,9.25,1.81s6,2,9,3a16.2,16.2,0,0,1,1.81.92c6.13,3.23,11.59,7.44,17.07,11.62a12.25,12.25,0,0,1,2.37,2.4q5.31,7.24,10.49,14.58a8.07,8.07,0,0,1,1.2,2.77,103.77,103.77,0,0,1,3,24.84c-.08,7.56.25,15.13,2.12,22.55a42.45,42.45,0,0,0,5.23,12.8,22.21,22.21,0,0,0,12,9.46,12.53,12.53,0,0,0,14.49-4.59,24.21,24.21,0,0,0,4.16-8.84c.21-1,.54-1.9,1-3.32.93.54,1.42.78,1.86,1.1.26.19.64.53.61.77-.19,1.6,1.7,1.94,1.92,3.27a19.28,19.28,0,0,1,.5,2.65,26.55,26.55,0,0,1-3.36,14,17.06,17.06,0,0,1-7,6.26c-2.66,1.48-5.39,2.86-8.11,4.24-3.61,1.84-7.57,2.18-11.51,2.58-2.13.22-4.27.33-6.41.49A34.91,34.91,0,0,1,639.9,455a13.44,13.44,0,0,1-5.56-3.74,17.21,17.21,0,0,1-3.57-7.95,6,6,0,0,1,.56-3.95c4.09-8.5,5.53-17.6,5.94-26.92.06-1.36.1-2.71.19-4.07a54.68,54.68,0,0,0-1.24-14.82,10.56,10.56,0,0,0-1-2.86c-1-1.79-2.33-3.09-4.58-2.82a4.45,4.45,0,0,1-3.66-1.36,10.91,10.91,0,0,0-4.32-2.63c-2.11,1.09-4.15,2.26-6.3,3.18a8.83,8.83,0,0,1-2.86.26l-2.8-3.76a40.64,40.64,0,0,0-5.6,2.11,38.83,38.83,0,0,0-4.67,3.56c-.63-.8-1.16-1.51-1.73-2.17a11.41,11.41,0,0,0-4.12-3.46,4.46,4.46,0,0,0-4.21.13c-2.15,1.23-4.35,2.36-6.69,3.62a17.24,17.24,0,0,1-1.47-1.77c-2.18-3.47-4.72-4.32-9.63-1.69-1.49.8-2.94,1.67-4.47,2.37-1.24.56-1.77.35-2.63-.74-1.6-2-3-4.26-5.06-5.89l-1.64-1.32a38.57,38.57,0,0,1-4.82,2.39c-1.3.4-2.31,1.75-3.46,2.66s-2.47,2-3.74,2.9a4.11,4.11,0,0,1-3.33.82c-.45-.5-.94-1.11-1.49-1.66-.32-.31-.79-.77-1.1-.71m.47-49.55a3.18,3.18,0,0,0-2.81,0c-1.94.59-3.91,1.1-5.84,1.74-2.78.93-5.58,1.82-8.28,3-4.94,2-9.2,5.23-13.4,8.48a14.43,14.43,0,0,0-3,3.17,65.21,65.21,0,0,0-7.09,13.06,5.82,5.82,0,0,0,1,6c1.28,1.66,2.65,1.93,4.5,0a4.53,4.53,0,0,0,.77-1.48c.56-1.35,1.09-2.72,1.63-4.09,1.13-2.84,2.38-5.69,4.59-7.82a82.64,82.64,0,0,1,9.2-7.94,45.59,45.59,0,0,1,10.78-5.59c3-1.13,6-2.47,9-3.73C542.7,337.93,541.86,336.48,541.31,335.11Zm9,4c-2.47,1.67-4.62,3.1-6.74,4.59a29.7,29.7,0,0,0-3.2,2.48c-3.15,2.9-6.25,5.86-9.36,8.8-.41.39-.73.86-1.12,1.27-3.21,3.28-5.22,7.32-7.24,11.35-1.89,3.76-1.77,4.38,1.17,7.39a1.61,1.61,0,0,0,.61.26,3,3,0,0,0,2.13-2c.74-1.52,1.55-3,2.15-4.59a20.57,20.57,0,0,1,5.81-7.78c1.75-1.59,3.36-3.33,5.09-4.95s3.77-3.55,5.75-5.21c1.65-1.37,3.45-2.54,5.15-3.85a5.1,5.1,0,0,0,2.33-2.72C552.05,342.66,551.2,341,550.27,339.12Zm58.6,34c.78-.1,1.55-.22,2.32-.29a3.21,3.21,0,0,0,3-2.75,14.59,14.59,0,0,0,.35-5.7,25,25,0,0,0-3.64-9.4,106,106,0,0,0-14.58-18.18,10.77,10.77,0,0,0-1.54-1c-.28.69-.68,1.19-.65,1.66a13,13,0,0,0,2.18,7c.92,1.29,1.86,2.55,2.79,3.83,1.79,2.47,3.64,4.89,5.33,7.42a12.88,12.88,0,0,1,2.43,8.29,9.85,9.85,0,0,0,0,2C607.21,368.41,607.15,371,608.87,373.1Zm16.22,4.06c1.07-.93,2.17-1.82,3.21-2.78a6.54,6.54,0,0,0,2.27-6.08,40.85,40.85,0,0,0-1-4.61c-1.24-4.36-4.07-7.74-6.89-11.14s-6.26-6.53-8.11-10.76a1.33,1.33,0,0,0-1.74-.63,1.54,1.54,0,0,0-.88,1.67c.16,1.33.3,2.68.48,4a3,3,0,0,0,.4,1.26c2.28,3.36,4.54,6.73,6.93,10a12.67,12.67,0,0,1,2.51,4.75c1,4.51,2.38,8.95,2.38,13.64C624.62,376.65,624.84,376.82,625.09,377.16ZM561,340.28c-1.19,1.63-2.18,3.12-3.31,4.49a64.2,64.2,0,0,0-8.23,11.92c-1.73,3.41-3.49,6.81-5.2,10.23a16.14,16.14,0,0,0-1.45,5.87,1.65,1.65,0,0,0,2.55,1.51,6.86,6.86,0,0,0,3-2.61c.9-1.69,1.83-3.36,2.69-5.06,1.27-2.51,2.38-5.11,3.75-7.56a83.41,83.41,0,0,1,7.48-11.63,3.92,3.92,0,0,0,.16-5.24C562,341.59,561.53,341,561,340.28Zm30.68,33.15c3.16-2.08,3.61-2.84,3.53-6.28a32.83,32.83,0,0,0-6.47-18.88,74.29,74.29,0,0,1-6.53-9.84c-.09-.17-.35-.24-.74-.5-.38.42-1.1.85-1.14,1.34a11,11,0,0,0,.87,5.94A45.19,45.19,0,0,0,583.7,350a22,22,0,0,1,3.52,10.79,33.8,33.8,0,0,0,1.83,8.9C589.57,371.15,590.08,372.67,591.65,373.43Zm-19-.25c2.13-.59,2.66-2.26,2.64-4.17a34.51,34.51,0,0,0-1.13-10q-2-6.45-4.25-12.81a23.92,23.92,0,0,0-2.21-4.14c-.15-.25-.67-.28-1.39-.56.72,4.6,1.42,8.79,2,13,.34,2.44.55,4.91.76,7.37.13,1.57,0,3.16.23,4.71a22.18,22.18,0,0,0,1,3.92A4,4,0,0,0,572.63,373.18Zm72.16,58.59c-1,1.45-.88,3.11-.56,4.77a16.64,16.64,0,0,0,3.66,7.53c1.93,2.33,4.19,4.1,7.31,4.51,1.57.2,3.12.58,4.69.71a15.76,15.76,0,0,0,6.37-.52,8.41,8.41,0,0,0,1.43-.92c-1.19-.37-1.88-.62-2.59-.8-3.38-.89-6.8-1.67-10.14-2.68a9.09,9.09,0,0,1-3.83-2,13.11,13.11,0,0,1-3.86-7,10.86,10.86,0,0,0-.35-2A2,2,0,0,0,644.79,431.77ZM473,431.14c-2.95,1.65-5.62,3.1-8.25,4.62a16,16,0,0,1-9.78,2,21.51,21.51,0,0,1-4-.81,5,5,0,0,0-4,.66c.05,1,.74,1.28,1.32,1.56a20.51,20.51,0,0,0,9.17,2A14.94,14.94,0,0,0,468.25,437c1.14-1.09,2.35-2.11,3.47-3.22A3,3,0,0,0,473,431.14Zm-6.59,13.21c2.07,2.56,2.34,2.64,4.66,1.67a18.5,18.5,0,0,0,5.83-3.93,36.43,36.43,0,0,0,2.69-3,1.33,1.33,0,0,0-.23-2C475.77,440.53,471.36,442.65,466.42,444.35Zm170.66-2.57c-.18.3-.29.41-.28.49.54,3.7,2.69,6.35,5.59,8.49a1.25,1.25,0,0,0,1.81-.15c0-.23,0-.51-.13-.65a18.94,18.94,0,0,1-4.18-6.5A2.59,2.59,0,0,0,637.08,441.78Z"/><path class="cls-6" d="M541.31,335.11c.55,1.37,1.39,2.82,1.12,4.74-3,1.26-6,2.6-9,3.73a45.59,45.59,0,0,0-10.78,5.59,82.64,82.64,0,0,0-9.2,7.94c-2.21,2.13-3.46,5-4.59,7.82-.54,1.37-1.07,2.74-1.63,4.09a4.53,4.53,0,0,1-.77,1.48c-1.85,1.95-3.22,1.68-4.5,0a5.82,5.82,0,0,1-1-6A65.21,65.21,0,0,1,508,351.44a14.43,14.43,0,0,1,3-3.17c4.2-3.25,8.46-6.44,13.4-8.48,2.7-1.13,5.5-2,8.28-3,1.93-.64,3.9-1.15,5.84-1.74A3.18,3.18,0,0,1,541.31,335.11Z"/><path class="cls-6" d="M550.27,339.12c.93,1.85,1.78,3.54,2.53,5.05a5.1,5.1,0,0,1-2.33,2.72c-1.7,1.31-3.5,2.48-5.15,3.85-2,1.66-3.87,3.44-5.75,5.21s-3.34,3.36-5.09,4.95a20.57,20.57,0,0,0-5.81,7.78c-.6,1.57-1.41,3.07-2.15,4.59a3,3,0,0,1-2.13,2,1.61,1.61,0,0,1-.61-.26c-2.94-3-3.06-3.63-1.17-7.39,2-4,4-8.07,7.24-11.35.39-.41.71-.88,1.12-1.27,3.11-2.94,6.21-5.9,9.36-8.8a29.7,29.7,0,0,1,3.2-2.48C545.65,342.22,547.8,340.79,550.27,339.12Z"/><path class="cls-6" d="M608.87,373.1c-1.72-2.14-1.66-4.69-2-7.11a9.85,9.85,0,0,1,0-2,12.88,12.88,0,0,0-2.43-8.29c-1.69-2.53-3.54-4.95-5.33-7.42-.93-1.28-1.87-2.54-2.79-3.83a13,13,0,0,1-2.18-7c0-.47.37-1,.65-1.66a10.77,10.77,0,0,1,1.54,1A106,106,0,0,1,610.9,355a25,25,0,0,1,3.64,9.4,14.59,14.59,0,0,1-.35,5.7,3.21,3.21,0,0,1-3,2.75C610.42,372.88,609.65,373,608.87,373.1Z"/><path class="cls-6" d="M625.09,377.16c-.25-.34-.47-.51-.47-.67,0-4.69-1.43-9.13-2.38-13.64a12.67,12.67,0,0,0-2.51-4.75c-2.39-3.27-4.65-6.64-6.93-10a3,3,0,0,1-.4-1.26c-.18-1.33-.32-2.68-.48-4a1.54,1.54,0,0,1,.88-1.67,1.33,1.33,0,0,1,1.74.63c1.85,4.23,5.23,7.31,8.11,10.76s5.65,6.78,6.89,11.14a40.85,40.85,0,0,1,1,4.61,6.54,6.54,0,0,1-2.27,6.08C627.26,375.34,626.16,376.23,625.09,377.16Z"/><path class="cls-6" d="M561,340.28c.56.73,1,1.31,1.47,1.92a3.92,3.92,0,0,1-.16,5.24,83.41,83.41,0,0,0-7.48,11.63c-1.37,2.45-2.48,5.05-3.75,7.56-.86,1.7-1.79,3.37-2.69,5.06a6.86,6.86,0,0,1-3,2.61,1.65,1.65,0,0,1-2.55-1.51,16.14,16.14,0,0,1,1.45-5.87c1.71-3.42,3.47-6.82,5.2-10.23a64.2,64.2,0,0,1,8.23-11.92C558.79,343.4,559.78,341.91,561,340.28Z"/><path class="cls-6" d="M591.65,373.43c-1.57-.76-2.08-2.28-2.6-3.76a33.8,33.8,0,0,1-1.83-8.9A22,22,0,0,0,583.7,350a45.19,45.19,0,0,1-2.53-4.77,11,11,0,0,1-.87-5.94c0-.49.76-.92,1.14-1.34.39.26.65.33.74.5a74.29,74.29,0,0,0,6.53,9.84,32.83,32.83,0,0,1,6.47,18.88C595.26,370.59,594.81,371.35,591.65,373.43Z"/><path class="cls-6" d="M572.63,373.18a4,4,0,0,1-2.38-2.7,22.18,22.18,0,0,1-1-3.92c-.19-1.55-.1-3.14-.23-4.71-.21-2.46-.42-4.93-.76-7.37-.6-4.21-1.3-8.4-2-13,.72.28,1.24.31,1.39.56a23.92,23.92,0,0,1,2.21,4.14q2.26,6.36,4.25,12.81a34.51,34.51,0,0,1,1.13,10C575.29,370.92,574.76,372.59,572.63,373.18Z"/><path class="cls-6" d="M644.79,431.77a2,2,0,0,1,2.13,1.54,10.86,10.86,0,0,1,.35,2,13.11,13.11,0,0,0,3.86,7,9.09,9.09,0,0,0,3.83,2c3.34,1,6.76,1.79,10.14,2.68.71.18,1.4.43,2.59.8a8.41,8.41,0,0,1-1.43.92,15.76,15.76,0,0,1-6.37.52c-1.57-.13-3.12-.51-4.69-.71-3.12-.41-5.38-2.18-7.31-4.51a16.64,16.64,0,0,1-3.66-7.53C643.91,434.88,643.79,433.22,644.79,431.77Z"/><path class="cls-6" d="M473,431.14a3,3,0,0,1-1.29,2.65c-1.12,1.11-2.33,2.13-3.47,3.22a14.94,14.94,0,0,1-10.77,4.15,20.51,20.51,0,0,1-9.17-2c-.58-.28-1.27-.53-1.32-1.56a5,5,0,0,1,4-.66,21.51,21.51,0,0,0,4,.81,16,16,0,0,0,9.78-2C467.39,434.24,470.06,432.79,473,431.14Z"/><path class="cls-6" d="M466.42,444.35c4.94-1.7,9.35-3.82,12.95-7.26a1.33,1.33,0,0,1,.23,2,36.43,36.43,0,0,1-2.69,3,18.5,18.5,0,0,1-5.83,3.93C468.76,447,468.49,446.91,466.42,444.35Z"/><path class="cls-6" d="M637.08,441.78a2.59,2.59,0,0,1,2.81,1.68,18.94,18.94,0,0,0,4.18,6.5c.12.14.09.42.13.65a1.25,1.25,0,0,1-1.81.15c-2.9-2.14-5-4.79-5.59-8.49C636.79,442.19,636.9,442.08,637.08,441.78Z"/><path class="cls-3" d="M636.61,336.31c.9.53,1.79,1,2.63,1.55,6.69,4.46,7.86,11.21,2.4,17.64a15.43,15.43,0,0,1-8.71,4.93,45.76,45.76,0,0,1-14.15,1.11,36.87,36.87,0,0,1-12.48-2.88,30.4,30.4,0,0,0-5.15-1.68,26.54,26.54,0,0,1-8.75-4.33c-4.43-3.13-8.81-6.33-12.37-10.49a20.06,20.06,0,0,1-4.59-12.84,14.09,14.09,0,0,1,2.32-7.71A7.26,7.26,0,0,1,585,318c2.46.24,4.89.76,7.71,1.21a18.71,18.71,0,0,0,1.63-1.58c4.21-5,8.38-10.08,12.59-15.09,2.4-2.85,4.93-5.6,7.3-8.49,3.37-4.1,6.64-8.28,10-12.42a190.73,190.73,0,0,1,18.41-20.34c.24-.23.49-.46.75-.68,1.42-1.15,2.79-.9,3.53.8a15.84,15.84,0,0,1,1.54,6.51,112.32,112.32,0,0,1-2.11,20.86,17.17,17.17,0,0,0-.43,2.34c-.35,7-2.15,13.83-3.58,20.68-.92,4.42-1.91,8.83-2.94,13.23-.59,2.53-1.31,5-2,7.54A11.17,11.17,0,0,0,636.61,336.31Zm7.76-74.13a7.12,7.12,0,0,0-1.46.78c-1,.92-1.94,1.89-2.86,2.89-2.21,2.4-4.45,4.78-6.58,7.25-3,3.5-6,7.08-9,10.61s-5.38,7.22-8.49,10.53a126.43,126.43,0,0,0-8.66,10.39c-2.39,3.16-5,6.08-7.59,9.09-.79.94-1.49,2-2.33,3.08.74,1.48,1.19,3.08,2.18,4.23a20.49,20.49,0,0,0,5.21,4.28c2.47,1.42,5.13,2.34,7.67,3.56a52.29,52.29,0,0,0,11.64,3.53,19.54,19.54,0,0,0,8.11-.52c.17-.57.39-1.2.55-1.85,1.4-5.7,2.68-11.43,4.22-17.1,2.44-9,3.81-18.11,5.2-27.27.86-5.68,1.17-11.45,2.61-17.06A8.7,8.7,0,0,0,644.37,262.18Zm-53.77,59.3a8.2,8.2,0,0,0-7.23-.67,6.44,6.44,0,0,0-4.15,4.17,10.59,10.59,0,0,0,.47,8.54,37.75,37.75,0,0,0,14.2,16.82c4.16,2.83,8.85,4.48,13.51,6.21a48.6,48.6,0,0,0,6.37,2.31,42.32,42.32,0,0,0,19.82-.65c5-1.28,7.75-4.81,9-9.62a5.54,5.54,0,0,0-.31-4,10.36,10.36,0,0,0-4.54-4.87,9.88,9.88,0,0,0-2-.51,27.25,27.25,0,0,1-.84,3.09,11.44,11.44,0,0,1-3.92,5.36,10.37,10.37,0,0,1-5.46,1.55c-4.89.41-9.65-.62-14.38-1.69a40.06,40.06,0,0,1-4.77-1.73c-3.67-1.35-6.71-3.73-9.72-6.12A23.19,23.19,0,0,1,589,329.54a25.77,25.77,0,0,0-1.46-2.84C588.49,325.07,589.5,323.34,590.6,321.48Zm5.15-2.62c-1.62,2-3,3.6-4.3,5.24a4.33,4.33,0,0,0-.81,3.18c.14,2.87,1.53,5.13,3.23,7.3,2.7,3.46,6.37,5.7,10,8a33.13,33.13,0,0,0,16.41,4.77,29.51,29.51,0,0,0,6.38-.72,3.72,3.72,0,0,0,3.16-3.13c.5-2.44,1-4.86,1.56-7.29.14-.63.57-1.27-.1-2-.8,0-1.69,0-2.57,0a38.09,38.09,0,0,1-6.06-.41A71.12,71.12,0,0,1,604,326.85a18.19,18.19,0,0,1-6.78-6C596.84,320.27,596.41,319.75,595.75,318.86Z"/><path class="cls-2" d="M644.37,262.18a8.7,8.7,0,0,1,.45,6.42c-1.44,5.61-1.75,11.38-2.61,17.06-1.39,9.16-2.76,18.31-5.2,27.27-1.54,5.67-2.82,11.4-4.22,17.1-.16.65-.38,1.28-.55,1.85a19.54,19.54,0,0,1-8.11.52,52.29,52.29,0,0,1-11.64-3.53c-2.54-1.22-5.2-2.14-7.67-3.56a20.49,20.49,0,0,1-5.21-4.28c-1-1.15-1.44-2.75-2.18-4.23.84-1.12,1.54-2.14,2.33-3.08,2.55-3,5.2-5.93,7.59-9.09A126.43,126.43,0,0,1,616,294.24c3.11-3.31,5.57-7.1,8.49-10.53s5.94-7.11,9-10.61c2.13-2.47,4.37-4.85,6.58-7.25.92-1,1.87-2,2.86-2.89A7.12,7.12,0,0,1,644.37,262.18Z"/><path class="cls-2" d="M590.6,321.48c-1.1,1.86-2.11,3.59-3.06,5.22a25.77,25.77,0,0,1,1.46,2.84,23.19,23.19,0,0,0,7.67,10.15c3,2.39,6.05,4.77,9.72,6.12a40.06,40.06,0,0,0,4.77,1.73c4.73,1.07,9.49,2.1,14.38,1.69a10.37,10.37,0,0,0,5.46-1.55,11.44,11.44,0,0,0,3.92-5.36,27.25,27.25,0,0,0,.84-3.09,9.88,9.88,0,0,1,2,.51,10.36,10.36,0,0,1,4.54,4.87,5.54,5.54,0,0,1,.31,4c-1.29,4.81-4,8.34-9,9.62a42.32,42.32,0,0,1-19.82.65,48.6,48.6,0,0,1-6.37-2.31c-4.66-1.73-9.35-3.38-13.51-6.21a37.75,37.75,0,0,1-14.2-16.82,10.59,10.59,0,0,1-.47-8.54,6.44,6.44,0,0,1,4.15-4.17A8.2,8.2,0,0,1,590.6,321.48Z"/><path class="cls-2" d="M595.75,318.86c.66.89,1.09,1.41,1.45,2a18.19,18.19,0,0,0,6.78,6,71.12,71.12,0,0,0,18.68,6.94,38.09,38.09,0,0,0,6.06.41c.88.05,1.77,0,2.57,0,.67.72.24,1.36.1,2-.52,2.43-1.06,4.85-1.56,7.29a3.72,3.72,0,0,1-3.16,3.13,29.51,29.51,0,0,1-6.38.72,33.13,33.13,0,0,1-16.41-4.77c-3.64-2.29-7.31-4.53-10-8-1.7-2.17-3.09-4.43-3.23-7.3a4.33,4.33,0,0,1,.81-3.18C592.78,322.46,594.13,320.83,595.75,318.86Z"/></svg>