<svg xmlns="http://www.w3.org/2000/svg" x="0px" y="0px"
     width="50" height="50"
     viewBox="0 0 50 50"
     style="fill:#000000;"><g id="surface1"><path style=" " d="M 25 2 C 20.59375 2 17 5.59375 17 10 C 17 14.40625 20.59375 18 25 18 C 29.40625 18 33 14.40625 33 10 C 33 5.59375 29.40625 2 25 2 Z M 25 4 C 28.324219 4 31 6.675781 31 10 C 31 13.324219 28.324219 16 25 16 C 21.675781 16 19 13.324219 19 10 C 19 6.675781 21.675781 4 25 4 Z M 19.984375 19.984375 C 19.933594 19.988281 19.886719 19.992188 19.835938 20 L 18 20 C 16.140625 20 14.589844 20.648438 13.453125 21.367188 C 12.316406 22.085938 11.605469 22.835938 11.265625 23.285156 C 9.382813 25.785156 5.203125 32.640625 5.203125 32.640625 C 5.199219 32.644531 5.195313 32.648438 5.191406 32.65625 C 4.429688 33.960938 3.980469 35.230469 4.0625 36.527344 C 4.144531 37.820313 4.789063 39.03125 5.882813 40.121094 L 10.5 44.742188 C 11.816406 46.058594 13.871094 46.109375 15.320313 45.019531 L 15.503906 47.089844 C 15.53125 47.449219 15.746094 47.765625 16.074219 47.921875 C 16.402344 48.074219 16.785156 48.042969 17.082031 47.832031 C 17.375 47.621094 17.535156 47.269531 17.496094 46.910156 L 15.992188 29.910156 C 15.953125 29.496094 15.664063 29.148438 15.265625 29.039063 C 14.863281 28.925781 14.433594 29.074219 14.1875 29.410156 L 9.898438 35.289063 C 9.609375 35.6875 9.652344 36.238281 10 36.585938 L 14.328125 40.914063 C 15.003906 41.589844 15.003906 42.652344 14.328125 43.328125 C 13.652344 44.003906 12.589844 44.003906 11.917969 43.328125 L 7.296875 38.707031 C 6.433594 37.84375 6.105469 37.136719 6.058594 36.394531 C 6.011719 35.65625 6.269531 34.777344 6.921875 33.664063 C 6.9375 33.636719 11.195313 26.699219 12.863281 24.488281 C 12.863281 24.488281 12.863281 24.488281 12.863281 24.484375 C 12.988281 24.320313 13.617188 23.628906 14.519531 23.058594 C 15.425781 22.488281 16.609375 22 18 22 L 19.332031 22 L 23.550781 32.125 L 22.035156 36.167969 C 21.914063 36.496094 22.09375 36.855469 22.4375 36.96875 L 25.339844 37.964844 C 25.683594 38.078125 26.058594 37.910156 26.183594 37.582031 L 27.960938 32.832031 C 28.082031 32.503906 27.90625 32.144531 27.5625 32.03125 L 26.625 31.707031 L 30.667969 22 L 32 22 C 33.390625 22 34.574219 22.488281 35.480469 23.058594 C 36.382813 23.628906 37.011719 24.320313 37.136719 24.484375 C 37.136719 24.488281 37.136719 24.488281 37.136719 24.488281 C 38.804688 26.699219 43.0625 33.636719 43.078125 33.664063 C 43.730469 34.777344 43.988281 35.65625 43.941406 36.394531 C 43.894531 37.136719 43.566406 37.84375 42.703125 38.707031 L 38.082031 43.328125 C 37.410156 44.003906 36.347656 44.003906 35.671875 43.328125 C 34.996094 42.652344 34.996094 41.589844 35.671875 40.914063 L 40 36.585938 C 40.347656 36.238281 40.390625 35.6875 40.097656 35.289063 L 35.8125 29.410156 C 35.566406 29.074219 35.136719 28.925781 34.734375 29.039063 C 34.335938 29.148438 34.046875 29.496094 34.007813 29.910156 L 32.503906 46.910156 C 32.464844 47.269531 32.625 47.621094 32.917969 47.832031 C 33.214844 48.042969 33.597656 48.074219 33.925781 47.921875 C 34.253906 47.765625 34.46875 47.449219 34.496094 47.089844 L 34.679688 45.019531 C 36.128906 46.109375 38.183594 46.058594 39.5 44.742188 L 44.121094 40.121094 C 45.210938 39.03125 45.855469 37.820313 45.9375 36.527344 C 46.019531 35.230469 45.570313 33.960938 44.808594 32.65625 C 44.804688 32.648438 44.800781 32.644531 44.796875 32.640625 C 44.796875 32.640625 40.617188 25.785156 38.734375 23.285156 C 38.394531 22.835938 37.683594 22.085938 36.546875 21.367188 C 35.410156 20.648438 33.859375 20 32 20 L 20.15625 20 C 20.097656 19.992188 20.042969 19.984375 19.984375 19.984375 Z M 21.5 22 L 28.5 22 L 25 30.398438 Z M 14.234375 32.742188 L 14.746094 38.5 L 12.019531 35.777344 Z M 35.765625 32.742188 L 37.980469 35.777344 L 35.253906 38.5 Z "></path></g></svg>