<svg xmlns="http://www.w3.org/2000/svg" x="0px" y="0px"
     width="28" height="28"
     viewBox="0 0 50 50"
     style="fill:#666666;">
  <path d="M 26 4 A 5 5 0 0 0 21 9 A 5 5 0 0 0 26 14 A 5 5 0 0 0 31 9 A 5 5 0 0 0 26 4 z M 48 4.2226562 C 42.495 5.0146562 37.684828 7.9416719 34.423828 12.138672 C 34.776828 12.051672 35.136047 11.998047 35.498047 11.998047 C 37.497047 11.998047 39.277172 13.342672 39.826172 15.263672 C 40.508172 17.648672 39.122328 20.143172 36.736328 20.826172 L 30.130859 22.714844 C 30.048859 23.465844 30 24.227 30 25 C 30 35.577 37.827 44.302719 48 45.761719 L 48 4.2226562 z M 35.626953 14.037109 C 35.310766 14.014594 34.988328 14.046969 34.673828 14.136719 L 28.150391 16 L 21.158203 16 C 19.283203 16 17.492016 16.894078 16.416016 18.330078 L 10.675781 24.792969 C 10.675781 24.792969 10.665344 24.808984 10.652344 24.833984 C 9.8093438 25.766984 9.7758594 27.198156 10.630859 28.160156 L 18 36.449219 L 18 43.357422 C 18 44.665422 18.941188 45.856328 20.242188 45.986328 C 21.739187 46.136328 23 44.966 23 43.5 L 23 35.5 C 23 34.959 22.824906 34.436859 22.503906 34.005859 C 22.460906 33.948859 17.962891 28.007813 17.962891 28.007812 L 24 21 L 28.431641 21 C 28.710641 21 28.987859 20.960766 29.255859 20.884766 L 36.1875 18.904297 C 37.2665 18.595297 37.976 17.623594 38 16.558594 C 38.007 16.230594 37.951313 15.895359 37.820312 15.568359 C 37.457313 14.656359 36.575516 14.104656 35.626953 14.037109 z M 10.105469 30.578125 L 8.7558594 35.710938 L 2.7324219 41.732422 C 1.7554219 42.709422 1.7554219 44.291578 2.7324219 45.267578 C 3.2194219 45.756578 3.86 46 4.5 46 C 5.14 46 5.7795781 45.755578 6.2675781 45.267578 L 12.767578 38.767578 C 13.080578 38.454578 13.305969 38.065719 13.417969 37.636719 L 14.09375 35.066406 L 10.105469 30.578125 z"></path>
</svg>
