<?xml version="1.0" encoding="utf-8"?>
<svg x="0px" y="0px" viewBox="0 0 100 100" xmlns="http://www.w3.org/2000/svg">
  <g transform="matrix(1, 0, 0, 1, 0, -952.362183)">
    <path style="text-indent: 0px; text-transform: none; direction: ltr; baseline-shift: baseline; color: rgb(0, 0, 0); fill: rgb(252, 104, 1);" d="m 7.9999985,972.36215 0,1 0,44.00005 0,1 1,0 82.0000035,0 1,0 0,-1 0,-44.00005 0,-1 -1,0 -82.0000035,0 z m 2,2 80.0000035,0 0,42.00005 -80.0000035,0 z m 32.8437495,8 c -0.44904,0.0814 -0.81055,0.52631 -0.8125,1 l 0,24.00005 c -0.006,0.062 -0.006,0.1251 0,0.1875 0.13127,0.6328 0.93653,0.9926 1.46875,0.6562 l 19.968753,-12 c 0.55276,-0.36668 0.55276,-1.35207 0,-1.71875 l -19.968753,-12 c -0.19599,-0.11886 -0.43244,-0.16389 -0.65625,-0.125 z m 1.125,2.75 17.093753,10.25 -17.093753,10.21875 z m -17.96875,39.25005 c -1.86319,0 -3.39908,1.2757 -3.84375,3 l -9.15625,0 c -0.55228,0 -1,0.4477 -1,1 0,0.5523 0.44772,1 1,1 l 9.15625,0 c 0.44467,1.7243 1.98056,3 3.84375,3 1.86319,0 3.39908,-1.2757 3.84375,-3 l 57.156253,0 c 0.55228,0 1,-0.4477 1,-1 0,-0.5523 -0.44772,-1 -1,-1 l -57.156253,0 c -0.44467,-1.7243 -1.98056,-3 -3.84375,-3 z" fill-opacity="1" stroke="none" marker="none" visibility="visible" display="inline" overflow="visible"/>
  </g>
</svg>